{"glyphs":{"0":{"ha":749,"x_min":0,"x_max":714,"o":"m 714 176 q 493 140 565 165 q 329 0 375 99 q 192 133 289 82 q 0 176 94 183 l 0 210 q 90 397 90 218 l 90 717 q 13 861 90 850 l 13 894 q 390 1111 294 901 q 521 963 431 1024 q 708 894 611 903 l 708 861 q 628 692 628 865 l 628 393 q 714 210 628 221 l 714 176 m 443 176 l 443 639 q 394 788 443 726 q 275 894 375 813 l 275 400 q 443 176 275 274 z "},"1":{"ha":586,"x_min":0,"x_max":558,"o":"m 558 171 q 411 118 486 165 q 307 6 331 68 q 165 90 247 90 q 86 67 117 90 q 56 0 56 43 q 88 -54 56 -42 q 106 -67 106 -61 q 93 -78 106 -78 q 28 -37 51 -78 q 8 40 8 -4 q 67 167 8 115 q 197 226 119 214 l 197 694 q 152 843 197 797 q 0 897 107 889 l 0 928 q 238 953 172 928 q 414 1113 317 983 l 414 347 q 444 233 414 264 q 558 199 475 203 l 558 171 z "},"2":{"ha":950,"x_min":0,"x_max":906,"o":"m 906 174 q 788 113 825 147 q 713 0 751 79 q 499 201 642 201 q 338 141 415 201 q 226 0 261 81 q 140 111 197 58 q 18 174 74 174 l 18 206 q 272 478 146 229 q 422 851 326 583 q 443 951 443 910 q 319 1081 443 1081 q 232 1001 232 1081 q 315 939 232 946 l 315 913 q 206 789 239 906 q 164 608 192 729 l 160 608 q 133 728 151 649 q 86 840 118 793 q 0 913 43 906 l 0 939 q 99 986 53 939 q 182 1075 126 1017 q 303 1122 238 1122 q 447 1090 394 1122 q 589 993 564 1004 q 767 969 642 969 l 767 938 q 667 839 706 933 q 539 515 625 731 q 358 239 453 307 q 438 257 389 254 q 519 261 479 260 q 713 447 656 278 q 906 206 754 290 l 906 174 z "},"3":{"ha":797,"x_min":0,"x_max":760,"o":"m 760 115 q 635 135 710 135 q 450 103 547 135 q 297 4 332 64 q 129 85 239 85 q 22 13 17 85 l 24 -7 q 10 -42 26 -42 q 0 -4 0 -42 q 54 143 0 88 q 164 228 56 144 q 246 340 229 278 q 461 175 347 175 l 469 175 l 469 540 q 419 572 469 572 q 314 513 314 572 l 314 476 l 269 476 l 269 746 l 314 746 q 340 669 314 686 q 422 660 356 660 q 469 750 469 660 l 469 999 q 247 781 289 994 q 169 918 229 868 q 17 972 108 968 l 17 1006 q 163 1044 115 1010 q 215 1104 182 1064 q 290 1136 242 1136 q 471 1065 360 1136 q 651 993 582 993 q 729 999 696 993 l 729 971 q 669 885 669 967 q 671 849 669 876 q 672 817 672 822 l 672 697 q 514 624 672 628 q 624 599 594 611 q 688 518 688 572 l 688 279 q 760 154 688 150 l 760 115 z "},"4":{"ha":943,"x_min":0,"x_max":899,"o":"m 899 329 l 864 329 q 854 397 864 382 q 794 419 840 419 q 742 418 768 419 l 742 307 q 776 228 742 250 q 864 208 803 211 l 864 175 q 744 121 799 168 q 665 7 690 74 q 533 90 607 90 q 459 66 489 90 q 429 1 429 42 q 461 -54 429 -43 q 476 -64 476 -60 q 465 -75 476 -75 q 403 -35 425 -75 q 385 40 385 -3 q 436 163 385 113 q 565 225 488 213 l 565 418 l 514 418 q 297 392 364 418 q 142 242 203 354 q 86 350 97 332 q 0 431 47 411 q 242 754 129 478 q 342 1165 342 1000 q 319 1283 342 1238 l 326 1306 q 421 1178 361 1283 q 539 1038 481 1074 q 501 1013 533 1032 q 358 793 436 972 q 286 535 286 624 q 314 479 286 492 q 531 461 353 461 q 565 463 556 461 l 565 726 q 538 803 565 771 q 469 853 519 824 l 469 886 q 590 969 532 897 q 657 1104 646 1038 q 724 971 669 1033 q 847 886 779 908 l 847 853 q 772 806 794 828 q 742 725 742 775 l 742 463 l 813 463 q 858 492 847 463 q 864 549 864 507 l 899 549 l 899 329 z "},"5":{"ha":796,"x_min":0,"x_max":753,"o":"m 753 181 q 514 135 599 165 q 313 0 396 92 q 158 92 275 92 q 81 65 111 92 q 50 -6 50 39 q 88 -72 50 -49 q 125 -96 125 -94 q 113 -103 125 -103 q 28 -53 58 -103 q 1 46 1 -11 q 65 201 1 144 q 188 271 90 224 q 261 347 256 304 q 338 224 268 272 q 478 176 401 178 l 478 486 q 375 560 478 560 q 215 514 294 560 q 114 390 126 463 l 114 783 q 97 900 114 863 q 0 951 74 951 l 0 983 q 21 983 3 983 q 53 982 39 982 l 107 982 q 292 1004 246 982 q 364 1058 300 1008 q 514 1122 446 1122 q 560 1089 539 1122 q 613 1025 588 1044 q 753 981 661 988 l 753 951 q 606 891 667 947 q 529 744 546 835 q 313 976 488 972 l 313 682 q 400 601 313 601 q 553 644 468 601 q 667 744 639 688 l 667 375 q 675 267 667 294 q 753 210 692 213 l 753 181 z "},"6":{"ha":724,"x_min":22,"x_max":692,"o":"m 692 1078 q 657 967 692 1006 q 583 914 644 953 q 513 839 533 882 q 311 964 417 964 q 279 961 304 964 l 279 644 q 513 801 410 644 q 676 639 554 665 l 676 621 q 601 510 601 607 l 601 328 q 667 208 601 228 l 667 175 q 469 124 565 169 q 308 0 367 76 q 183 117 267 65 q 22 175 99 168 l 22 208 q 89 324 89 215 l 89 857 q 22 950 89 942 l 22 982 l 71 982 q 442 1111 354 982 q 517 1049 471 1074 q 604 1024 563 1024 q 654 1044 638 1024 q 672 1083 664 1056 q 685 1104 678 1104 q 692 1078 692 1104 m 421 175 l 421 532 q 314 606 421 606 q 279 604 297 606 l 279 356 q 421 175 279 236 z "},"7":{"ha":874,"x_min":0,"x_max":833,"o":"m 833 975 l 826 975 q 656 800 729 975 l 435 276 q 431 256 431 267 q 503 214 431 208 l 503 181 q 256 0 361 174 q 74 181 206 169 l 74 214 l 99 214 q 197 281 171 214 l 478 975 q 404 1069 478 1036 q 276 1096 346 1096 q 193 1057 193 1096 q 293 1008 193 1015 l 293 975 q 157 821 210 963 q 0 975 106 960 l 0 1008 q 133 1074 72 1014 q 257 1133 194 1133 q 432 1092 329 1133 q 833 1008 642 1007 l 833 975 z "},"8":{"ha":749,"x_min":0,"x_max":714,"o":"m 714 176 q 502 130 604 176 q 329 0 400 83 q 179 119 271 67 q 0 176 75 181 l 0 210 q 67 240 49 218 q 85 311 85 261 q 78 407 85 381 q 14 463 64 461 l 14 486 q 44 485 32 485 q 253 529 117 485 q 14 626 132 608 l 14 646 l 19 646 q 83 740 83 646 l 83 863 q 0 956 83 946 l 0 989 q 390 1111 301 1006 q 540 1025 436 1061 q 714 989 636 992 l 714 956 q 638 869 638 957 l 638 747 q 703 651 638 649 l 703 631 q 465 585 576 626 q 703 486 597 499 l 703 465 q 636 353 636 461 q 643 260 636 281 q 714 210 657 217 l 714 176 m 446 600 l 446 863 q 383 954 446 915 q 275 1006 361 968 l 275 742 q 343 658 275 704 q 446 600 360 647 m 446 176 l 446 364 q 275 510 446 438 l 275 297 q 446 176 275 226 z "},"9":{"ha":747,"x_min":0,"x_max":713,"o":"m 713 956 q 640 894 668 940 q 613 794 613 847 l 613 256 q 685 146 613 176 l 674 128 q 588 138 644 138 q 406 106 490 138 q 257 0 306 69 q 183 61 231 35 q 94 88 135 88 q 43 67 60 88 q 25 28 32 54 q 14 7 19 7 q 6 33 6 7 q 39 143 6 106 q 114 199 56 163 q 188 274 165 231 q 390 149 283 149 q 422 151 397 149 l 422 463 q 276 428 324 463 q 188 304 235 397 q 126 403 147 381 q 25 453 89 443 l 25 469 q 86 518 71 482 q 97 599 97 544 l 97 790 q 0 956 97 954 l 0 989 q 214 1006 140 989 q 394 1111 333 1032 q 713 989 476 975 l 713 956 m 422 503 l 422 761 q 279 953 422 893 l 279 575 q 388 501 279 501 q 422 503 404 501 z "}," ":{"ha":458,"x_min":0,"x_max":0,"o":""},"!":{"ha":376,"x_min":0,"x_max":342,"o":"m 342 633 q 274 583 283 607 q 261 503 269 556 q 215 432 258 483 q 171 357 172 381 q 126 432 169 381 q 81 503 83 483 q 68 583 76 531 q 0 633 57 608 q 82 775 82 669 q 0 940 82 883 q 99 1012 71 983 q 171 1111 128 1040 q 242 1012 214 1040 q 342 940 271 983 q 258 775 258 885 q 342 633 258 669 m 342 171 q 242 100 268 126 q 171 0 211 71 q 99 99 129 68 q 0 171 68 129 q 100 242 71 211 q 171 342 126 268 q 241 241 213 269 q 342 171 269 213 z "},"\"":{"ha":576,"x_min":-3,"x_max":536,"o":"m 536 990 q 406 703 460 943 q 361 861 389 789 q 272 990 321 967 q 351 1045 328 1022 q 406 1121 374 1068 q 460 1044 438 1067 q 536 990 482 1022 m 257 990 q 126 703 181 943 q 85 861 111 789 q -3 990 46 967 q 72 1044 49 1021 q 126 1121 94 1068 q 181 1044 158 1067 q 257 990 203 1022 z "},"#":{"ha":1067,"x_min":71,"x_max":1010,"o":"m 1010 303 l 767 303 l 701 0 l 572 0 l 638 303 l 339 303 l 278 0 l 147 0 l 211 303 l 71 303 l 71 432 l 238 432 l 292 688 l 71 688 l 71 815 l 317 815 l 382 1121 l 511 1121 l 444 815 l 740 815 l 806 1121 l 935 1121 l 869 815 l 1010 815 l 1010 688 l 844 688 l 792 432 l 1010 432 l 1010 303 m 717 688 l 419 688 l 367 433 l 663 433 l 717 688 z "},"$":{"ha":561,"x_min":0,"x_max":597,"o":"m 328 947 l 296 928 l 296 1111 l 328 1111 l 328 947 m 329 592 l 319 592 q 296 596 307 592 l 296 822 q 329 811 311 821 l 329 592 m 597 249 q 410 224 468 240 q 247 128 317 197 q 126 196 221 196 q 39 122 39 196 q 69 74 39 92 q 100 54 100 56 q 90 50 100 50 q 25 88 51 50 q 0 161 0 121 q 51 279 0 240 q 149 328 69 293 q 207 385 203 351 q 267 283 214 326 q 379 238 319 240 l 379 488 q 299 542 379 542 q 174 510 236 542 q 92 417 103 474 l 92 708 q 0 833 92 836 l 0 856 l 103 856 q 229 872 185 856 q 293 913 246 879 q 381 956 335 943 q 408 960 396 960 q 444 935 428 960 q 489 886 468 900 q 597 856 531 857 l 597 833 q 481 788 531 831 q 419 679 432 746 q 249 853 388 849 l 249 633 q 318 572 249 572 q 438 606 367 572 q 531 681 508 640 l 531 406 q 597 271 531 275 l 597 249 m 329 275 q 296 288 315 278 l 296 521 l 313 521 q 329 519 325 521 l 329 275 m 328 0 l 294 0 l 294 151 l 328 175 l 328 0 z "},"%":{"ha":1108,"x_min":0,"x_max":1107,"o":"m 1107 126 q 858 -1 931 126 q 766 83 836 40 q 649 126 696 125 q 693 169 676 126 q 707 236 707 203 l 707 357 q 650 476 707 443 q 790 508 722 476 q 897 601 867 543 q 990 519 921 560 q 1107 476 1058 479 q 1049 363 1049 463 l 1049 243 q 1107 126 1049 160 m 933 899 q 821 858 861 893 l 663 551 q 689 518 663 528 q 628 483 639 508 l 472 161 q 465 131 465 147 q 538 57 465 75 q 317 -42 415 43 q 213 92 307 57 q 343 161 318 108 l 501 496 q 472 524 501 518 q 535 561 526 542 l 676 878 q 679 921 679 886 q 610 1063 679 1011 q 454 1108 549 1108 q 340 1086 392 1108 q 256 1010 279 1060 q 347 936 288 971 q 457 897 414 897 q 399 783 399 883 l 399 664 q 458 547 399 582 q 315 517 381 547 q 210 419 243 483 q 117 502 188 460 q 0 547 46 544 q 44 590 28 547 q 58 657 58 624 l 58 776 q 1 897 58 864 q 214 978 129 897 q 321 1108 225 1068 q 499 1139 393 1139 q 717 1094 646 1139 q 801 997 742 1079 q 933 899 850 931 m 931 117 l 931 357 q 899 440 931 404 q 825 497 881 461 l 825 238 q 931 117 825 164 m 282 536 l 282 778 q 249 861 282 825 q 175 918 228 883 l 175 658 q 282 536 175 586 z "},"&":{"ha":893,"x_min":-3,"x_max":874,"o":"m 874 613 q 782 524 814 594 l 740 399 q 667 260 717 329 q 861 194 724 192 l 861 165 q 639 -1 733 153 q 479 153 532 38 q 338 96 400 140 q 244 -24 267 47 q 6 138 190 124 l 6 165 q 96 204 71 168 q 115 304 115 235 l 115 458 q -3 578 115 556 l -3 607 q 108 599 54 599 q 350 658 251 599 q 39 919 264 851 l 39 947 q 83 946 54 946 q 264 989 183 946 q 388 1071 343 1043 q 546 1115 460 1115 q 596 1113 563 1115 q 640 960 596 1038 q 758 864 689 875 l 758 843 q 735 846 742 846 q 626 803 683 846 q 532 728 596 778 q 594 500 572 640 l 611 399 q 640 301 621 342 q 707 472 707 375 q 600 613 707 589 l 600 640 q 738 781 717 656 q 874 640 754 668 l 874 613 m 531 801 q 471 927 531 860 q 354 994 411 994 q 315 982 332 994 q 519 763 419 917 q 531 801 531 781 m 463 196 q 415 406 439 261 q 365 615 392 546 q 318 590 326 610 l 318 313 q 340 224 318 263 q 414 176 367 176 q 463 196 440 176 z "},"'":{"ha":311,"x_min":-11,"x_max":272,"o":"m 272 972 q 175 876 200 932 q 140 792 164 849 q 24 731 113 749 q 90 846 90 788 q -11 972 90 929 q 71 1032 47 1008 q 131 1114 94 1056 q 190 1031 165 1056 q 272 972 214 1007 z "},"(":{"ha":490,"x_min":-8,"x_max":479,"o":"m 479 -37 l 467 -44 q 99 407 174 110 q 82 472 96 425 q -8 569 57 544 q 85 676 67 606 l 97 726 q 168 919 129 853 q 449 1178 256 1068 l 464 1172 q 228 560 228 953 q 289 233 228 385 q 479 -37 354 71 z "},")":{"ha":560,"x_min":82,"x_max":568,"o":"m 568 574 q 478 476 504 547 q 461 411 474 458 q 94 -40 385 117 l 82 -33 q 332 565 332 183 q 96 1176 332 961 l 113 1182 q 392 924 303 1075 q 464 732 433 853 q 476 681 467 717 q 568 574 499 608 z "},"*":{"ha":333,"x_min":-3,"x_max":299,"o":"m 299 1006 q 268 944 274 976 q 199 964 251 964 q 151 961 178 964 q 239 1038 232 1004 q 299 1006 260 1017 m 196 1067 q 147 961 168 1047 q 99 1067 131 1051 q 147 1115 129 1085 q 196 1067 165 1085 m 253 904 q 244 838 240 874 q 176 844 211 849 q 179 861 179 853 q 149 958 179 899 q 253 904 219 903 m 144 961 q 107 963 133 963 q 28 944 44 963 q -3 1006 22 976 q 57 1038 33 1017 q 144 961 64 1004 m 146 958 q 115 863 115 901 q 119 844 115 851 q 92 847 94 847 q 51 838 75 847 q 53 863 53 849 q 43 904 53 879 l 49 904 q 146 958 79 904 z "},"+":{"ha":400,"x_min":14,"x_max":424,"o":"m 424 457 l 260 457 l 260 288 l 178 288 l 178 457 l 14 457 l 14 538 l 178 538 l 178 706 l 260 706 l 260 538 l 424 538 l 424 457 z "},",":{"ha":244,"x_min":-22,"x_max":250,"o":"m 250 101 q 154 -1 178 63 q 118 -114 143 -39 q -1 -218 88 -178 q 69 -68 69 -158 q 46 29 69 -18 q -22 101 19 82 q 58 155 33 132 q 114 231 82 178 q 170 155 146 178 q 250 101 194 132 z "},"-":{"ha":389,"x_min":17,"x_max":389,"o":"m 389 367 q 326 304 326 332 q 347 221 329 290 q 201 267 246 267 q 57 221 156 267 l 69 263 q 78 306 78 290 q 17 367 78 331 q 78 428 78 403 q 69 469 78 440 l 57 513 q 200 471 156 471 q 347 513 246 471 l 335 471 q 326 428 326 443 q 389 367 326 403 z "},"‐":{"ha":389,"x_min":17,"x_max":389,"o":"m 389 367 q 326 304 326 332 q 347 221 329 290 q 201 267 246 267 q 57 221 156 267 l 69 263 q 78 306 78 290 q 17 367 78 331 q 78 428 78 403 q 69 469 78 440 l 57 513 q 200 471 156 471 q 347 513 246 471 l 335 471 q 326 428 326 443 q 389 367 326 403 z "},".":{"ha":329,"x_min":0,"x_max":304,"o":"m 304 153 q 216 90 243 117 q 153 1 189 63 q 90 90 118 61 q 0 153 61 118 q 90 216 61 188 q 153 304 118 244 q 215 215 192 239 q 304 153 239 192 z "},"/":{"ha":774,"x_min":-10,"x_max":831,"o":"m 831 1036 q 720 1003 760 1028 q 650 915 681 978 q 514 629 514 640 q 546 593 514 608 q 475 553 489 581 l 293 176 q 285 140 285 160 q 368 56 285 76 q 113 -60 224 36 q 73 35 107 -8 q -10 96 39 78 q 143 178 114 115 l 326 567 q 293 600 326 592 q 367 643 356 621 l 504 928 q 535 1013 535 992 q 453 1092 535 1072 q 704 1189 654 1108 q 747 1097 711 1139 q 831 1036 782 1054 z "},":":{"ha":285,"x_min":7,"x_max":263,"o":"m 263 492 q 188 438 211 461 q 135 364 165 415 q 7 492 90 442 q 82 544 58 521 q 135 619 106 568 q 189 544 167 565 q 263 492 211 522 m 263 119 q 188 67 210 89 q 135 -8 167 46 q 82 67 106 43 q 7 119 58 90 q 82 174 58 150 q 135 249 106 197 q 188 174 164 199 q 263 119 213 150 z "},";":{"ha":267,"x_min":-4,"x_max":253,"o":"m 253 476 q 125 347 174 431 q 71 422 93 400 q -4 476 49 444 q 70 530 47 507 q 125 606 93 553 q 178 531 154 556 q 253 476 203 507 m 253 101 q 163 -1 185 63 q 126 -114 151 -39 q 14 -218 97 -179 q 81 -67 81 -158 q 60 29 81 -15 q -4 101 36 81 q 72 156 50 133 q 125 231 94 178 q 178 156 157 176 q 253 101 199 135 z "},"<":{"ha":1243,"x_min":19,"x_max":1203,"o":"m 1203 631 q 1126 429 1203 551 q 1185 210 1185 315 q 1182 168 1185 188 q 868 335 1040 272 q 521 401 686 401 q 185 265 285 401 q 19 429 135 385 q 186 599 164 507 q 515 474 260 474 q 867 532 688 474 q 1182 692 1046 590 q 1203 631 1203 674 z "},"=":{"ha":474,"x_min":4,"x_max":426,"o":"m 426 514 l 4 514 l 4 601 l 426 601 l 426 514 m 425 374 l 4 374 l 4 463 l 425 463 l 425 374 z "},">":{"ha":1099,"x_min":-6,"x_max":1178,"o":"m 1178 433 q 1013 269 1063 389 q 676 406 913 406 q 329 339 511 406 q 15 172 157 276 q 13 214 13 192 q 71 433 13 319 q -6 635 -6 556 q 15 696 -6 678 q 331 535 154 593 q 682 476 508 476 q 1011 603 939 476 q 1178 433 1033 511 z "},"?":{"ha":550,"x_min":0,"x_max":533,"o":"m 533 958 q 492 859 492 907 q 447 752 492 811 q 401 678 401 693 q 436 631 401 651 q 249 365 306 617 q 86 642 236 558 q 258 764 183 667 q 332 963 332 861 q 311 1044 332 1011 q 242 1086 285 1086 q 200 1071 219 1086 q 181 1036 181 1056 q 263 972 181 1004 q 172 857 210 940 q 132 714 140 786 q 0 972 81 924 q 44 997 33 990 q 79 1028 68 1013 q 154 1102 119 1082 q 253 1122 189 1122 q 392 1058 332 1122 q 533 958 465 979 m 424 176 q 321 103 353 135 q 247 0 289 71 q 174 103 207 69 q 71 176 140 136 q 174 250 142 218 q 247 353 206 282 q 319 249 290 278 q 424 176 349 219 z "},"@":{"ha":1249,"x_min":-6,"x_max":1221,"o":"m 1221 285 q 606 -149 1044 -149 q 166 22 338 -149 q -6 458 -6 192 q 184 930 -6 746 q 663 1114 374 1114 q 1018 990 882 1114 q 1160 644 1160 861 q 1051 307 1160 449 q 742 151 932 151 q 638 182 676 151 q 593 279 593 217 q 596 315 593 290 q 386 151 492 151 q 290 203 324 151 q 261 311 261 246 q 340 599 261 460 q 549 807 419 739 q 624 826 586 826 q 721 753 697 826 l 735 800 l 924 808 l 794 367 q 774 264 774 296 q 787 235 774 247 q 817 222 800 222 q 961 297 885 222 q 1057 433 1025 361 q 1099 632 1099 528 q 981 933 1099 818 q 676 1049 864 1049 q 250 869 418 1049 q 88 435 88 696 q 231 57 88 203 q 607 -89 375 -89 q 942 11 794 -89 q 1156 285 1090 111 l 1221 285 m 678 678 q 639 756 678 756 q 518 581 585 756 q 458 349 458 422 q 488 297 458 297 q 532 326 500 297 q 635 488 593 383 q 678 678 678 592 z "},"A":{"ha":913,"x_min":32,"x_max":910,"o":"m 910 168 q 721 3 786 131 q 614 97 689 18 q 499 168 553 161 l 499 181 q 576 317 576 201 q 542 535 576 361 q 504 539 524 539 q 326 304 326 539 q 429 149 326 172 l 429 136 q 326 83 378 125 q 263 -10 269 36 q 163 68 231 68 q 99 47 128 68 q 71 -6 71 25 q 100 -58 71 -31 q 129 -89 129 -86 l 124 -93 q 58 -46 88 -93 q 32 36 32 -3 q 83 151 32 106 q 204 197 133 197 q 250 193 228 197 q 281 319 261 235 q 300 447 300 403 q 196 564 300 517 q 378 897 338 594 q 379 922 379 908 q 341 1021 379 978 q 247 1064 303 1064 q 170 1031 204 1064 q 136 957 136 999 q 156 901 136 924 q 204 878 175 878 q 224 881 210 878 q 240 883 238 883 q 249 881 246 883 q 190 858 236 858 q 125 891 150 858 q 100 968 100 924 q 165 1093 100 1044 q 303 1138 224 1138 q 488 1074 393 1138 q 631 989 590 1003 q 796 968 688 968 l 796 940 q 779 942 790 942 q 685 838 685 942 q 693 767 685 810 l 772 361 q 817 253 783 303 q 910 197 857 190 l 910 168 m 535 578 l 465 928 q 396 1060 449 1014 q 263 1100 343 1107 l 257 1099 q 301 1085 272 1094 q 343 1069 329 1075 q 421 924 421 1028 q 403 808 421 886 q 386 694 386 736 q 493 574 386 574 q 535 578 513 574 z "},"B":{"ha":867,"x_min":-10,"x_max":856,"o":"m 856 461 q 795 430 813 449 q 778 371 778 411 l 778 214 q 832 69 778 124 l 804 47 q 551 157 689 157 q 297 0 388 157 q 144 99 235 99 q 70 74 100 99 q 40 8 40 49 q 72 -46 40 -33 q 89 -58 89 -53 q 72 -68 89 -68 q 11 -28 35 -68 q -10 49 -10 8 q 181 222 -10 193 l 181 560 q 119 533 131 557 q 113 464 113 518 l 69 464 l 69 742 l 113 742 l 113 707 q 129 660 113 671 q 181 653 142 651 l 181 825 q 18 967 181 971 l 18 996 l 126 996 q 307 1026 240 996 q 406 1092 336 1040 q 542 1160 467 1138 q 579 1167 565 1167 q 613 1144 596 1167 q 856 996 717 1007 l 856 967 q 785 941 803 963 q 768 864 768 919 l 768 707 q 699 608 768 636 q 568 585 667 596 q 699 531 611 579 q 815 483 781 483 q 856 490 832 483 l 856 461 m 557 676 l 557 825 q 504 936 557 888 q 393 994 458 979 l 393 596 q 496 607 472 600 q 557 676 557 625 m 557 200 l 557 435 q 513 540 557 518 q 393 560 490 551 l 393 372 q 414 247 393 282 q 526 200 442 200 l 557 200 z "},"C":{"ha":878,"x_min":4,"x_max":864,"o":"m 864 996 q 729 850 763 979 q 708 633 719 810 l 672 633 l 672 669 q 571 989 672 910 l 571 461 q 592 343 571 375 q 700 300 617 304 l 700 268 l 668 269 q 358 119 461 278 q 546 28 436 28 q 725 94 649 28 q 801 263 801 161 q 763 377 801 326 q 663 428 724 428 q 634 422 657 428 q 604 417 611 417 q 596 421 596 417 q 631 449 596 439 q 682 456 657 456 q 808 390 758 456 q 854 253 854 332 q 743 47 854 131 q 515 -31 640 -31 q 151 139 304 -31 q 4 515 4 301 q 146 917 4 733 q 510 1115 299 1115 q 539 1108 539 1115 q 490 1092 539 1101 q 278 908 332 1058 q 526 993 407 915 q 689 1194 653 1076 q 747 1079 715 1114 q 864 1028 788 1036 l 864 996 m 356 126 l 356 713 q 343 815 356 781 q 269 882 324 868 q 260 789 260 849 l 260 418 q 356 126 260 243 z "},"D":{"ha":907,"x_min":10,"x_max":896,"o":"m 896 944 q 767 754 767 938 l 767 304 q 860 64 767 157 l 832 42 q 564 157 708 157 q 319 3 397 157 q 172 96 260 96 q 97 74 132 96 q 57 11 57 49 q 90 -50 57 -32 q 101 -61 101 -56 q 89 -69 101 -69 q 35 -32 54 -69 q 18 36 18 -1 q 206 213 18 183 l 206 547 q 143 522 154 546 q 139 453 139 514 l 99 453 l 99 713 l 139 713 l 139 694 q 148 652 139 665 q 193 639 157 639 l 206 639 l 206 725 q 189 815 206 786 q 115 868 169 851 l 115 896 q 310 1086 250 924 q 519 897 353 935 l 519 868 q 436 817 460 849 q 413 725 413 786 l 413 540 q 413 433 413 494 q 411 357 411 372 q 432 231 411 267 q 543 183 460 183 l 567 183 l 567 817 q 496 1024 567 940 q 303 1108 425 1108 q 132 1057 204 1108 q 51 906 51 1000 q 108 806 51 833 q 144 779 144 789 q 135 774 144 774 q 45 816 81 774 q 10 917 10 858 q 121 1094 10 1025 q 332 1154 218 1154 q 532 1107 444 1154 q 685 1019 582 1076 q 896 974 775 971 l 896 944 z "},"E":{"ha":833,"x_min":0,"x_max":826,"o":"m 826 971 q 721 900 767 965 q 671 779 683 847 q 626 907 656 867 q 510 971 590 956 l 510 1000 l 515 1000 q 589 1018 554 1000 q 629 1076 629 1040 q 586 1113 629 1113 q 481 969 481 1113 l 481 654 q 551 667 539 656 q 564 735 564 679 l 606 735 l 606 463 l 564 463 q 554 532 564 514 q 494 560 540 560 l 481 560 l 481 343 l 447 343 l 447 956 q 600 1157 447 1157 q 697 1117 657 1157 q 751 1043 725 1079 q 826 1000 789 1000 l 826 971 m 424 971 q 360 733 360 938 q 363 601 360 689 q 367 469 367 514 q 346 300 367 349 q 197 169 321 240 q 10 79 156 146 l 10 99 q 124 199 96 151 q 151 346 151 247 l 151 560 q 78 539 92 558 q 68 463 68 526 l 26 463 l 26 742 l 68 742 q 76 674 68 686 q 140 654 90 654 l 151 654 l 151 824 q 0 971 151 953 l 0 1000 q 157 1029 114 1007 q 249 1156 221 1063 q 424 1000 288 1024 l 424 971 m 826 153 q 676 106 726 132 q 565 -3 607 69 q 360 74 485 74 q 196 46 264 74 q 101 -75 101 7 q 119 -131 101 -101 q 136 -158 136 -160 q 124 -167 136 -167 q 74 -132 93 -167 q 56 -69 56 -101 q 224 142 56 64 q 346 201 331 192 q 447 324 413 244 l 481 324 q 635 208 547 240 q 826 182 707 182 l 826 153 z "},"F":{"ha":775,"x_min":14,"x_max":826,"o":"m 826 961 q 732 853 775 956 q 694 703 697 771 l 685 478 l 653 478 l 651 554 l 522 554 l 522 263 q 574 178 522 204 l 574 149 q 453 96 500 133 q 367 -6 417 67 q 225 67 317 67 q 124 35 169 67 q 74 -54 74 -1 q 89 -95 74 -78 q 126 -112 104 -112 q 142 -110 131 -112 q 156 -108 153 -108 l 163 -112 q 140 -131 160 -122 q 108 -140 121 -140 q 51 -107 72 -140 q 33 -42 33 -79 q 142 139 33 65 q 350 206 238 206 q 486 171 429 206 l 486 1076 l 522 1090 l 522 625 l 650 625 l 649 703 q 618 850 647 764 q 538 961 582 956 l 538 992 q 607 1049 607 1011 q 576 1097 607 1076 q 514 1117 546 1117 q 432 1078 463 1117 q 401 985 401 1040 l 401 503 q 306 258 401 336 q 58 147 249 213 l 58 171 q 172 253 150 215 q 194 394 194 290 l 194 554 q 169 556 185 556 q 115 525 124 556 q 113 457 113 514 l 68 457 l 68 742 l 113 742 q 121 667 113 679 q 194 647 136 646 l 194 774 q 142 907 194 850 q 14 961 90 964 l 14 992 l 42 992 q 256 1033 182 992 l 364 1113 q 536 1156 422 1156 q 660 1119 607 1156 q 740 1046 678 1107 q 826 992 785 1001 l 826 961 z "},"G":{"ha":917,"x_min":4,"x_max":904,"o":"m 904 125 q 871 126 892 126 q 704 85 778 126 q 648 47 686 72 q 590 7 610 21 q 425 -35 518 -35 q 136 157 278 -35 q 4 489 4 336 q 125 844 4 665 q 399 1107 235 1006 q 417 1114 410 1114 q 425 1108 425 1114 q 415 1094 425 1103 q 301 951 332 1028 q 275 769 275 886 l 275 233 q 440 8 275 8 q 535 82 504 8 q 557 211 557 136 l 557 367 q 439 490 557 481 l 439 33 l 428 33 q 399 36 417 32 l 399 719 q 321 935 399 924 l 321 958 q 417 1017 376 969 q 489 1101 431 1032 q 600 1144 533 1144 q 710 1104 663 1144 q 772 1031 769 1032 q 854 989 814 989 l 854 958 q 738 890 788 953 q 681 764 694 836 q 513 958 638 940 l 513 989 l 528 989 q 638 1049 638 989 q 578 1107 638 1107 q 439 775 439 1107 l 439 532 q 592 574 542 540 q 681 701 642 608 q 890 532 746 542 l 890 499 q 810 468 833 493 q 788 386 788 443 q 789 372 788 383 q 789 350 789 360 l 789 311 q 810 204 789 239 q 904 156 836 160 l 904 125 z "},"H":{"ha":858,"x_min":1,"x_max":833,"o":"m 833 610 q 760 533 779 590 q 747 422 747 496 l 747 38 q 754 -83 747 -53 q 819 -182 767 -135 q 789 -185 800 -185 q 667 -132 719 -185 q 589 -29 665 -131 q 493 44 544 29 l 493 50 q 550 197 550 82 l 550 510 q 510 593 550 569 q 414 611 486 607 l 414 267 q 476 181 414 189 l 476 150 q 310 -6 379 132 q 182 88 275 88 q 89 67 126 88 q 40 -8 40 40 q 47 -41 40 -17 q 54 -72 54 -65 q 47 -85 54 -85 q 15 -40 31 -85 q 1 19 1 -3 q 64 157 1 104 q 208 210 121 206 l 208 558 q 192 560 203 560 q 132 531 146 560 q 124 461 124 514 l 85 461 l 85 739 l 124 739 q 131 674 124 689 q 189 653 140 653 l 208 653 l 208 782 q 164 913 208 857 q 43 969 117 974 l 43 999 l 63 999 q 272 1038 192 999 q 406 1111 288 1044 q 549 1150 475 1150 q 663 1115 618 1150 q 732 1043 697 1079 q 818 999 776 1004 l 818 969 q 722 915 774 963 q 654 824 671 868 q 513 969 607 956 l 513 999 q 615 1056 615 1006 q 592 1097 615 1081 q 539 1113 568 1113 q 449 1072 483 1113 q 414 971 414 1031 l 414 642 q 654 778 604 639 q 833 631 700 640 l 833 610 z "},"I":{"ha":631,"x_min":0,"x_max":617,"o":"m 617 158 l 606 158 q 457 121 522 158 q 363 3 383 79 q 211 89 293 89 q 133 65 167 89 q 96 -3 96 39 q 105 -38 96 -11 q 114 -71 114 -65 q 107 -83 114 -83 q 68 -35 88 -83 q 51 32 51 7 q 117 165 51 114 q 260 217 175 213 l 260 961 q 228 1056 260 1019 q 142 1092 197 1092 q 69 1064 101 1092 q 36 999 36 1036 q 60 945 36 972 q 83 919 83 918 q 72 911 83 911 q 22 937 43 911 q 0 996 0 963 q 75 1114 0 1072 q 219 1149 136 1149 q 340 1113 278 1149 q 446 1040 393 1076 q 617 1006 514 1003 l 617 976 l 610 976 q 504 915 540 976 q 472 789 472 863 l 472 653 l 542 653 l 542 568 l 472 568 l 472 369 q 617 188 472 199 l 617 158 m 174 226 q 139 211 158 221 l 139 565 q 115 567 131 567 q 63 536 72 567 q 58 468 58 524 l 22 468 l 22 743 l 58 743 q 65 681 58 696 q 121 660 75 660 l 139 660 l 139 1067 q 174 1063 160 1067 l 174 226 z "},"J":{"ha":628,"x_min":-19,"x_max":614,"o":"m 614 943 l 583 943 q 471 815 471 943 l 471 622 l 556 622 l 556 543 l 471 543 l 471 361 q 497 239 471 279 q 607 186 529 193 l 607 157 q 468 78 514 157 q 390 -69 443 29 q 214 -149 332 -149 q 119 -108 160 -149 q 61 -29 76 -44 q -19 21 22 15 l -19 42 q 67 82 26 42 q 118 165 104 118 q 257 42 163 54 l 257 21 q 164 -51 164 15 q 182 -95 164 -76 q 225 -114 200 -114 q 275 -1 275 -114 l 275 943 q 243 1034 275 999 q 157 1069 211 1069 q 88 1043 118 1069 q 57 981 57 1017 q 79 931 57 956 q 101 904 101 906 q 90 896 101 896 q 42 922 63 896 q 22 978 22 947 q 92 1090 22 1050 q 226 1124 149 1124 q 350 1083 296 1124 q 447 1008 375 1064 q 614 972 514 969 l 614 943 m 192 96 q 158 146 174 113 l 158 540 q 138 542 151 542 q 85 513 94 542 q 81 447 81 500 l 47 447 l 47 719 l 81 719 q 89 647 81 660 q 158 629 101 629 l 158 1046 q 192 1040 179 1046 l 192 96 z "},"K":{"ha":850,"x_min":-4,"x_max":829,"o":"m 829 158 q 724 96 760 125 q 657 -3 674 56 q 579 46 611 4 l 533 121 q 482 158 510 158 l 482 188 q 540 301 540 182 q 506 413 540 382 q 385 444 471 444 q 383 352 385 414 q 382 260 382 290 q 463 188 382 193 l 463 158 q 286 1 351 161 q 142 92 213 92 q 71 69 100 92 q 38 4 38 44 q 46 -29 38 -4 q 54 -60 54 -54 q 46 -74 54 -74 q 10 -26 28 -74 q -4 36 -4 10 q 56 163 -4 114 q 190 213 111 208 l 190 536 l 168 538 q 111 511 124 540 q 104 444 104 496 l 71 444 l 71 707 l 104 707 q 116 637 104 647 q 190 625 128 626 l 190 767 q 31 933 190 939 l 31 961 q 246 1006 154 961 q 374 1090 288 1033 q 526 1135 443 1135 q 667 1100 614 1135 q 731 976 731 1058 q 700 906 731 935 q 626 878 669 878 q 579 889 604 878 q 549 922 549 903 l 554 926 q 582 915 556 926 q 621 904 608 904 q 671 935 653 904 q 688 994 688 961 q 646 1069 688 1042 q 560 1093 610 1093 q 439 1047 493 1093 q 385 933 385 1000 l 385 699 q 410 697 393 697 q 621 843 561 697 q 697 744 657 772 q 817 707 736 717 l 817 683 q 713 639 754 674 q 651 572 692 622 q 576 500 611 521 q 667 467 626 499 q 724 385 707 435 q 726 307 726 371 q 829 188 726 188 l 829 158 m 610 588 q 394 668 560 668 l 385 668 l 385 469 q 610 588 538 469 z "},"L":{"ha":767,"x_min":0,"x_max":775,"o":"m 451 344 l 418 344 l 418 1042 q 451 1061 431 1054 l 451 344 m 749 943 q 703 921 729 942 q 607 689 603 844 q 578 842 597 790 q 472 943 544 931 l 472 971 q 568 1035 568 986 q 544 1077 568 1061 q 490 1093 521 1093 q 393 1059 432 1093 q 354 971 354 1025 l 354 450 q 274 208 354 286 q 42 92 217 153 l 42 115 q 143 186 122 154 q 164 307 164 218 l 164 553 q 146 554 154 554 q 97 524 107 554 q 93 463 93 511 l 51 463 l 51 722 l 93 722 q 99 658 93 668 q 158 639 110 639 l 164 639 l 164 747 q 118 878 164 818 q 0 942 69 944 l 0 971 l 17 971 q 229 1011 153 971 l 336 1089 q 489 1131 394 1131 q 603 1094 556 1131 q 671 1024 619 1082 q 749 971 708 982 l 749 943 m 775 182 q 535 1 621 151 q 317 89 443 89 q 172 60 236 89 q 90 -47 90 24 q 107 -100 90 -72 q 124 -126 124 -128 q 113 -135 124 -135 q 65 -101 85 -135 q 47 -43 47 -75 q 211 156 47 81 q 336 215 322 207 q 435 322 403 257 q 590 226 490 251 q 775 210 656 210 l 775 182 z "},"M":{"ha":1167,"x_min":0,"x_max":1138,"o":"m 1138 142 q 943 -10 1044 132 q 825 81 881 10 q 735 143 776 143 l 735 172 q 800 335 800 201 l 800 913 l 674 358 q 661 265 661 304 q 715 172 661 181 l 715 143 q 556 1 603 135 q 496 94 546 47 q 401 143 446 140 l 401 172 q 440 260 440 199 q 425 354 440 300 l 268 913 l 268 333 q 296 229 268 278 q 379 172 328 172 l 379 143 q 235 -3 268 119 q 124 67 199 67 q 71 53 96 67 q 46 13 46 39 q 63 -26 46 -4 q 79 -50 79 -47 q 65 -61 79 -61 q 19 -21 39 -61 q 3 42 3 13 q 75 174 3 126 q 225 218 135 214 l 225 538 q 208 539 219 539 q 146 513 161 539 q 136 442 136 494 l 103 442 l 103 713 l 136 713 q 152 644 136 658 q 225 631 168 631 l 225 926 q 138 1074 225 1074 q 69 1051 99 1074 q 36 990 36 1025 q 59 942 36 967 q 82 917 82 918 q 69 907 82 907 q 20 933 40 907 q 0 992 0 958 q 71 1108 0 1067 q 210 1143 129 1143 q 332 1104 271 1143 q 435 1024 354 1090 q 610 983 504 982 l 610 954 q 517 860 517 956 q 526 792 517 831 l 629 375 l 731 806 q 736 847 736 829 q 639 954 736 942 l 639 983 q 787 1027 717 981 q 882 1146 857 1074 q 1138 983 939 997 l 1138 954 q 1021 813 1021 949 l 1021 335 q 1138 172 1021 192 l 1138 142 z "},"N":{"ha":921,"x_min":0,"x_max":896,"o":"m 896 143 q 762 95 819 140 q 686 -22 704 50 q 675 -24 682 -24 q 606 17 646 -24 l 528 94 q 415 143 475 136 l 415 172 q 482 240 482 172 q 463 336 482 279 l 271 904 l 271 335 q 301 229 271 279 q 390 174 338 174 l 390 143 q 233 -1 269 118 q 124 68 197 68 q 71 54 96 68 q 46 14 46 40 q 63 -24 46 -3 q 79 -49 79 -46 q 65 -60 79 -60 q 19 -21 39 -60 q 3 43 3 13 q 74 174 3 125 q 222 219 135 215 l 222 539 q 207 540 218 540 q 146 513 161 540 q 136 442 136 494 l 103 442 l 103 713 l 136 713 q 151 644 136 657 q 222 631 165 631 l 222 914 q 138 1054 222 1054 q 67 1029 99 1054 q 35 969 35 1004 q 58 920 35 944 q 82 896 82 896 q 71 888 82 888 q 21 913 42 888 q 0 972 0 939 q 65 1086 0 1046 q 199 1121 121 1121 q 303 1085 257 1121 q 389 1018 344 1053 q 560 983 456 982 l 560 954 q 510 897 510 954 q 535 763 510 829 l 722 263 l 722 750 q 692 875 722 821 q 594 954 657 938 l 594 983 q 744 1124 721 997 q 896 983 764 1004 l 896 954 q 796 879 829 944 q 768 753 768 826 l 768 346 q 896 174 768 206 l 896 143 z "},"O":{"ha":847,"x_min":4,"x_max":814,"o":"m 814 135 q 626 90 704 135 q 514 8 569 50 q 385 -35 446 -35 q 122 158 250 -35 q 4 481 4 336 q 124 818 4 644 q 383 1071 229 971 q 401 1078 394 1078 q 411 1071 411 1078 q 403 1058 411 1065 q 253 753 253 924 l 253 231 q 400 8 253 8 q 499 214 499 8 l 499 775 q 432 899 499 899 q 294 817 381 899 l 279 838 q 560 1156 518 1029 q 663 1039 581 1088 q 814 988 736 994 l 814 957 q 715 763 715 942 l 715 286 q 814 164 715 172 l 814 135 m 397 33 q 361 38 381 33 l 361 840 q 397 864 378 853 l 397 33 z "},"P":{"ha":869,"x_min":-4,"x_max":874,"o":"m 874 604 l 872 576 q 738 513 793 576 q 675 372 688 456 q 597 512 661 463 q 438 561 532 561 l 410 561 l 410 360 q 433 251 410 288 q 531 206 461 210 l 531 176 q 399 115 465 169 q 319 -1 332 61 q 172 88 260 88 q 100 63 129 88 q 71 -1 71 39 q 103 -54 71 -40 q 118 -67 118 -61 q 103 -76 118 -76 q 42 -36 65 -76 q 22 38 22 -3 q 206 206 22 176 l 206 561 q 147 535 158 558 q 140 468 140 519 l 97 468 l 97 726 l 139 726 q 138 692 138 708 q 183 653 138 653 l 206 653 l 206 726 q 185 822 206 788 q 107 868 164 856 q 234 930 194 893 q 303 1051 274 967 q 386 931 326 985 q 517 869 451 869 q 410 726 410 836 l 410 600 q 438 599 419 599 q 546 642 515 599 q 571 757 571 676 q 569 793 571 778 l 569 829 q 497 1024 569 949 q 307 1100 425 1100 q 126 1050 203 1100 q 38 893 38 993 q 56 821 38 863 q 75 775 75 779 l 71 769 q 15 821 38 776 q -4 899 -4 861 q 114 1086 -4 1018 q 342 1143 213 1143 q 592 1074 471 1143 q 696 1018 676 1025 q 867 994 761 994 l 872 994 l 872 965 q 778 894 799 961 q 768 767 768 864 q 785 660 768 694 q 874 604 808 611 z "},"Q":{"ha":846,"x_min":4,"x_max":813,"o":"m 813 139 q 779 140 801 140 q 639 113 694 140 q 554 49 611 99 q 458 -14 503 4 q 533 -44 479 -18 q 601 -69 583 -69 q 725 -8 643 -69 l 743 -29 q 585 -247 608 -122 q 432 -194 489 -246 q 364 -101 419 -183 q 286 -53 331 -53 q 186 -146 224 -53 l 150 -142 q 304 -8 200 -12 q 97 201 194 42 q 4 482 4 354 q 122 817 4 647 q 381 1068 228 968 q 397 1074 389 1074 q 408 1067 408 1074 q 400 1054 408 1061 q 251 753 251 921 l 251 235 q 397 14 251 14 q 496 214 496 14 l 496 772 q 428 894 496 894 q 293 814 375 894 l 278 831 q 557 1151 514 1025 q 660 1035 575 1083 q 813 985 735 992 l 813 956 q 710 760 710 940 l 710 290 q 813 169 710 176 l 813 139 m 394 39 q 358 43 378 39 l 358 838 q 394 860 371 846 l 394 39 z "},"R":{"ha":868,"x_min":-10,"x_max":863,"o":"m 863 -200 q 697 -144 740 -164 q 572 -35 596 -97 q 560 108 560 -1 l 560 418 q 514 533 560 501 q 390 565 476 560 l 390 361 q 410 254 390 288 q 504 207 435 211 l 504 178 q 369 117 436 171 q 290 -3 303 63 q 140 86 231 86 q 68 62 97 86 q 39 -3 39 38 q 71 -57 39 -44 q 88 -68 88 -64 q 72 -78 88 -78 q 11 -39 33 -78 q -10 36 -10 -6 q 175 207 -10 178 l 175 565 q 114 540 125 564 q 111 471 111 529 l 68 471 l 68 749 l 111 749 l 111 729 q 110 710 110 721 q 164 657 110 657 l 175 657 l 175 788 q 136 918 175 867 q 17 975 93 976 l 17 1004 l 153 1004 q 324 1029 267 1004 q 408 1084 351 1042 q 533 1144 465 1126 q 572 1150 554 1150 q 619 1129 600 1150 q 721 1042 676 1068 q 850 1004 775 1011 l 850 975 q 778 938 797 971 q 761 854 761 911 l 761 726 q 685 622 761 660 q 550 588 628 594 q 688 539 610 586 q 799 492 765 492 q 850 500 824 492 l 850 471 q 749 358 749 450 l 747 8 q 863 -167 747 -108 l 863 -200 m 560 683 l 560 846 q 508 957 560 918 q 390 1004 471 986 l 390 606 q 496 615 475 610 q 560 683 560 632 z "},"S":{"ha":839,"x_min":7,"x_max":814,"o":"m 443 624 q 413 631 435 625 l 413 936 q 443 921 428 926 l 443 624 m 814 161 q 560 126 629 146 q 340 -3 438 92 q 178 88 300 88 q 96 64 128 88 q 60 -10 60 38 q 101 -75 60 -54 q 142 -101 142 -96 q 129 -108 142 -108 q 40 -58 76 -108 q 7 42 7 -12 q 76 199 7 143 q 207 267 106 222 q 288 344 282 300 q 367 207 294 267 q 519 144 440 147 l 519 483 q 410 557 519 557 q 240 513 328 557 q 129 388 144 464 l 129 782 q 110 901 129 864 q 7 951 82 953 l 7 981 l 146 981 q 317 1004 260 981 q 408 1061 344 1015 q 521 1117 464 1101 q 557 1122 542 1122 q 607 1089 583 1122 q 667 1024 638 1044 q 814 981 718 986 l 814 951 q 657 890 722 946 q 574 743 592 833 q 342 976 532 972 l 342 681 q 436 599 342 599 q 596 642 506 599 q 722 743 693 688 l 722 372 q 735 258 722 299 q 814 190 754 196 l 814 161 m 443 194 q 417 211 428 201 l 413 213 l 413 528 l 429 528 q 436 526 431 528 l 443 526 l 443 194 z "},"T":{"ha":822,"x_min":4,"x_max":874,"o":"m 874 953 q 731 549 772 953 q 689 778 726 642 q 581 953 640 953 l 581 982 q 661 1047 661 1015 q 608 1075 661 1075 q 549 985 549 1075 l 549 343 q 577 231 549 258 q 692 196 606 203 l 692 167 q 547 114 621 161 q 443 3 467 64 q 301 88 383 88 q 224 64 254 88 q 193 -3 193 40 q 225 -57 193 -42 q 242 -69 242 -65 q 226 -79 242 -79 q 164 -39 188 -79 q 144 36 144 -6 q 203 164 144 113 q 335 224 256 211 l 335 953 q 226 871 267 953 q 179 699 193 806 q 161 547 174 649 q 93 846 157 703 q 4 953 47 950 l 4 982 q 151 1110 118 1004 q 296 983 190 983 q 458 1048 364 983 q 608 1113 551 1113 q 735 1085 685 1113 q 799 1028 750 1076 q 874 982 833 993 l 874 953 z "},"U":{"ha":956,"x_min":-21,"x_max":931,"o":"m 582 50 l 571 50 q 551 54 563 50 l 551 939 l 582 939 l 582 50 m 931 972 q 832 896 865 961 q 804 769 804 843 l 804 582 q 919 247 804 329 q 789 42 893 117 q 554 -31 690 -31 q 390 21 453 -31 q 285 114 347 56 q 106 160 217 163 l 106 190 q 224 253 196 193 q 243 393 243 296 l 243 547 q 222 549 236 549 q 151 481 151 549 q 153 447 151 463 l 117 447 l 117 731 l 153 731 q 151 689 151 707 q 243 640 151 639 l 243 960 q 211 1055 243 1019 q 122 1090 179 1090 q 48 1062 81 1090 q 15 996 15 1033 q 40 940 15 967 q 64 914 64 914 q 53 906 64 906 q 1 933 22 906 q -21 992 -21 961 q 54 1113 -21 1069 q 199 1149 118 1149 q 313 1110 267 1149 q 397 1038 340 1086 q 563 1003 457 1000 l 563 972 q 457 788 457 978 l 457 326 q 513 46 457 90 q 592 24 540 24 l 601 24 q 713 83 679 24 q 744 213 736 124 q 751 371 751 286 l 751 767 q 621 972 751 953 l 621 1003 q 776 1142 758 1017 q 825 1045 794 1071 q 931 1003 856 1019 l 931 972 z "},"V":{"ha":846,"x_min":0,"x_max":890,"o":"m 890 953 q 746 765 785 926 l 660 415 q 647 328 647 364 q 753 193 647 214 l 753 164 q 511 0 594 167 q 428 65 475 17 q 350 136 375 119 q 242 164 304 167 l 242 193 l 250 193 q 351 285 351 193 q 300 540 351 342 q 281 542 294 542 q 210 518 226 542 q 199 443 199 499 l 163 443 l 163 715 l 199 715 l 199 686 q 215 639 199 649 q 253 632 226 632 l 281 632 l 218 921 q 179 1006 210 963 q 107 1057 144 1057 q 59 1032 82 1057 q 36 981 36 1007 q 59 933 36 954 q 82 907 82 911 q 69 899 82 899 q 20 924 40 899 q 0 983 0 950 q 64 1096 0 1054 q 194 1132 119 1132 q 300 1093 256 1132 q 385 1019 340 1057 q 556 983 450 982 l 556 953 q 479 919 507 951 q 451 835 451 888 q 458 779 451 813 l 557 314 q 604 229 569 256 q 597 300 597 268 q 619 444 597 357 l 700 763 q 706 808 706 785 q 674 901 706 861 q 590 953 642 940 l 590 983 q 738 1133 715 1019 q 890 982 763 1014 l 890 953 z "},"W":{"ha":1300,"x_min":0,"x_max":1344,"o":"m 1344 953 q 1200 765 1240 925 l 1113 415 q 1100 328 1100 365 q 1206 193 1100 214 l 1206 164 q 964 0 1049 167 q 850 96 943 10 q 731 164 774 165 l 731 193 q 804 288 804 204 q 800 332 804 308 q 699 864 751 611 q 700 843 700 857 q 650 572 700 754 q 600 297 600 389 q 676 193 600 219 l 676 164 q 497 0 561 128 q 418 67 463 18 q 346 138 367 124 q 244 164 300 169 l 244 193 l 254 193 q 351 283 351 193 q 333 413 351 339 q 300 540 317 476 q 278 542 293 542 q 210 518 224 542 q 199 444 199 500 l 163 444 l 163 714 l 199 714 l 199 683 q 210 642 199 653 q 250 632 221 632 l 281 632 l 218 921 q 179 1006 210 963 q 107 1057 144 1057 q 59 1032 82 1057 q 36 981 36 1007 q 59 933 36 954 q 82 907 82 911 q 69 899 82 899 q 20 924 40 899 q 0 983 0 950 q 64 1096 0 1054 q 194 1132 119 1132 q 297 1093 256 1132 q 376 1019 335 1057 q 544 983 438 981 l 544 953 q 451 843 451 953 q 458 779 451 815 q 560 301 471 711 q 611 567 565 372 q 651 833 651 738 q 582 953 651 946 l 582 983 q 702 1031 647 990 q 768 1133 757 1072 q 857 1029 778 1074 q 993 983 926 989 l 993 953 q 904 849 904 953 q 913 779 904 818 l 1011 314 q 1058 229 1024 256 q 1051 300 1051 268 q 1074 444 1051 357 l 1154 763 q 1160 808 1160 785 q 1128 900 1160 860 q 1044 953 1096 940 l 1044 983 q 1196 1133 1171 999 q 1344 983 1213 1013 l 1344 953 z "},"X":{"ha":850,"x_min":-4,"x_max":843,"o":"m 843 158 q 706 111 757 151 q 619 -8 661 75 q 511 82 585 8 q 382 158 450 144 l 382 188 l 390 188 q 458 243 458 188 q 417 372 458 285 q 354 503 388 433 q 296 368 335 458 q 256 238 256 272 q 290 192 256 201 q 356 188 304 188 l 356 158 q 194 -8 217 142 q 118 47 172 47 q 62 28 86 47 q 38 -19 38 8 q 60 -71 38 -51 q 111 -99 74 -82 q 101 -104 110 -104 q 22 -57 53 -104 q -4 35 -4 -17 q 38 155 -4 100 q 142 210 79 210 q 163 208 156 210 q 238 356 213 306 q 293 496 293 467 q 219 579 293 556 q 275 650 275 589 q 260 711 275 676 q 172 882 201 844 q 6 960 111 960 l 6 989 q 144 1025 97 992 q 231 1142 188 1056 q 343 1049 253 1132 q 468 989 413 985 l 468 960 q 424 890 424 960 q 460 758 424 840 q 521 631 460 756 q 578 732 540 664 q 611 839 611 794 q 584 915 611 881 q 515 960 557 949 l 515 989 q 616 1038 576 996 q 665 1142 656 1079 q 815 989 686 1018 l 815 960 q 639 768 728 936 q 582 646 582 661 q 657 582 582 597 q 594 488 594 549 q 683 272 594 457 q 746 199 713 213 q 843 188 772 188 l 843 158 z "},"Y":{"ha":783,"x_min":-36,"x_max":817,"o":"m 817 965 q 658 775 718 938 q 628 701 647 750 q 610 621 610 651 q 658 561 610 581 q 579 501 600 547 q 563 400 563 467 q 578 251 563 281 q 708 197 603 203 l 708 168 q 561 119 628 161 q 461 3 486 74 q 315 88 407 88 q 201 -4 201 88 q 235 -60 201 -49 q 251 -72 251 -65 q 236 -81 251 -81 q 174 -40 197 -81 q 153 36 153 -6 q 215 165 153 111 q 350 226 271 214 l 350 407 q 271 550 350 550 q 210 521 222 550 q 203 450 203 504 l 168 450 l 168 718 l 203 718 l 203 690 q 253 640 203 640 l 286 640 l 172 933 q 71 1069 119 1069 q 24 1044 46 1069 q 1 993 1 1018 q 24 943 1 968 q 47 919 47 918 q 36 911 47 911 q -15 937 7 911 q -36 996 -36 963 q 28 1110 -36 1068 q 160 1146 85 1146 q 260 1106 221 1146 l 332 1031 q 494 994 386 992 l 494 965 q 415 872 415 964 q 428 789 415 819 l 526 550 l 611 772 q 624 833 624 806 q 594 916 624 879 q 518 965 564 953 l 518 994 q 667 1147 646 1011 q 714 1045 679 1081 q 817 994 749 1010 l 817 965 z "},"Z":{"ha":813,"x_min":0,"x_max":793,"o":"m 793 979 q 650 846 726 981 q 558 649 631 811 l 568 649 q 635 661 618 649 q 656 728 657 678 l 693 728 l 693 456 l 656 456 q 636 537 656 518 q 556 556 617 556 l 517 556 l 475 468 q 449 378 449 413 q 474 325 449 346 l 465 304 q 425 310 447 310 q 308 268 378 310 l 181 192 q 13 149 99 151 q 181 328 108 201 q 286 556 201 365 l 186 556 l 185 456 l 153 456 l 143 701 q 101 851 140 771 q 0 954 54 949 l 0 979 q 100 1028 53 979 q 183 1117 128 1058 q 307 1164 239 1164 q 481 1124 415 1164 q 589 1050 500 1111 q 793 1010 665 1010 l 793 979 m 793 168 q 646 117 708 163 q 542 0 593 79 q 419 75 496 57 q 274 88 368 88 q 129 60 189 88 q 50 -53 50 22 q 62 -98 50 -69 q 74 -126 74 -126 q 64 -136 74 -136 q 19 -103 38 -136 q 4 -46 4 -74 q 75 94 4 32 q 290 185 118 132 q 479 296 442 231 q 626 214 556 232 q 793 199 669 203 l 793 168 m 460 992 q 329 1122 460 1122 q 249 1061 249 1122 q 326 979 249 1008 l 326 954 q 229 849 272 943 q 189 701 190 767 l 188 649 l 328 649 l 438 892 q 460 992 460 940 z "},"[":{"ha":368,"x_min":0,"x_max":364,"o":"m 364 0 l 0 0 l 0 1111 l 364 1111 l 364 1051 l 153 1051 l 153 60 l 364 60 l 364 0 z "},"\\":{"ha":522,"x_min":0,"x_max":507,"o":"m 507 950 q 390 749 390 899 q 381 747 389 747 l 344 747 q 281 889 342 822 q 142 956 215 958 q 254 811 235 896 q 263 622 263 775 l 263 315 q 433 174 263 174 q 476 176 451 174 l 476 165 q 325 119 396 165 q 219 0 254 74 q 135 106 192 58 q 14 169 78 153 q 79 224 56 178 q 99 310 99 261 l 99 622 l 3 622 l 3 672 l 99 672 l 99 708 q 100 744 100 724 q 0 939 100 894 q 164 982 90 939 q 268 1111 247 1029 q 507 950 333 990 z "},"]":{"ha":438,"x_min":8,"x_max":372,"o":"m 372 0 l 8 0 l 8 60 l 219 60 l 219 1051 l 8 1051 l 8 1111 l 372 1111 l 372 0 z "},"^":{"ha":807,"x_min":101,"x_max":710,"o":"m 710 451 l 603 451 l 403 799 l 206 451 l 101 451 l 381 939 l 436 939 l 710 451 z "},"_":{"ha":694,"x_min":-8,"x_max":703,"o":"m 703 -174 l -8 -174 l -8 -104 l 703 -104 l 703 -174 z "},"`":{"ha":624,"x_min":50,"x_max":301,"o":"m 301 819 l 258 819 l 50 1110 l 231 1110 l 301 819 z "},"a":{"ha":624,"x_min":0,"x_max":593,"o":"m 593 160 q 504 93 535 128 q 446 0 479 65 q 293 140 368 140 q 139 0 217 140 q 85 93 99 75 q 0 160 54 131 q 72 290 72 182 q 31 406 72 367 q 110 385 75 385 q 203 422 151 385 q 281 460 254 460 q 360 421 317 460 l 360 518 q 340 574 360 549 q 292 600 319 600 q 139 460 217 600 q 85 551 100 532 q 0 617 57 588 q 88 683 61 646 q 139 782 104 707 q 293 626 211 626 q 446 782 374 626 q 501 683 476 714 q 593 617 532 649 q 539 567 560 601 q 518 494 518 532 l 518 307 q 529 219 518 247 q 593 160 543 183 m 360 278 l 360 365 q 289 424 338 424 q 226 297 226 424 q 233 214 226 238 q 292 168 247 168 q 360 278 360 168 z "},"b":{"ha":657,"x_min":0,"x_max":633,"o":"m 633 171 q 486 106 582 171 q 356 0 421 61 q 194 110 329 47 q 6 171 68 168 q 64 228 42 171 q 81 317 81 269 l 81 476 q 4 636 81 593 q 71 707 56 671 q 82 803 82 733 q 0 953 82 933 q 22 951 7 951 q 201 1031 88 951 q 374 1111 314 1111 q 476 1079 432 1111 q 526 989 526 1043 q 502 926 526 951 q 440 900 478 900 q 364 971 364 900 q 382 1018 364 999 q 426 1038 400 1038 q 488 971 479 1038 q 489 990 489 978 q 463 1047 489 1024 q 400 1069 438 1069 q 286 989 325 1069 q 256 842 256 926 l 256 647 q 394 685 347 647 q 476 806 438 718 q 536 703 513 729 q 633 636 571 663 q 557 513 557 601 l 557 321 q 633 171 557 226 m 394 290 l 394 536 q 356 593 394 574 q 283 608 325 608 q 256 607 271 608 l 256 126 l 351 189 q 394 290 394 224 z "},"c":{"ha":531,"x_min":0,"x_max":515,"o":"m 515 165 q 385 101 465 164 q 271 0 349 74 q 150 105 244 47 q 1 165 56 163 q 64 219 40 168 q 85 307 85 263 l 85 463 q 0 617 85 569 q 361 781 251 617 q 422 683 397 713 q 515 617 454 646 q 428 499 465 594 q 389 350 400 429 l 386 350 q 349 517 375 444 q 244 628 306 632 l 244 318 q 515 165 244 165 z "},"d":{"ha":633,"x_min":0,"x_max":611,"o":"m 611 171 l 603 171 q 417 126 506 171 q 274 0 322 79 q 0 171 150 163 q 71 322 71 204 l 71 514 q 0 639 71 606 q 151 808 110 690 q 233 688 193 721 q 372 650 282 650 q 240 1039 243 838 q 172 1064 211 1064 q 115 1047 142 1064 q 85 999 85 1028 q 104 956 85 972 q 136 925 135 931 q 125 924 133 924 q 71 946 93 924 q 49 1000 49 968 q 88 1078 49 1046 q 175 1111 128 1111 q 308 1052 211 1111 q 475 999 406 993 q 431 908 431 969 q 486 749 431 838 q 608 639 544 653 q 549 478 549 604 l 549 318 q 611 171 549 203 m 372 128 l 372 610 q 346 611 358 611 q 272 594 304 611 q 233 538 233 575 l 233 292 q 276 190 233 225 l 372 128 z "},"e":{"ha":532,"x_min":0,"x_max":515,"o":"m 515 165 q 376 111 444 158 q 271 0 307 64 q 156 108 236 61 q 6 165 83 151 q 85 285 85 201 l 85 463 q 0 618 85 571 q 201 657 108 618 q 361 782 304 700 q 422 685 394 718 q 515 618 457 644 q 463 517 481 588 q 418 411 443 439 q 244 324 369 356 l 243 300 q 339 178 238 207 q 515 165 390 164 m 365 474 q 324 572 365 514 q 244 629 282 629 l 244 356 q 328 396 292 365 q 365 474 365 426 z "},"f":{"ha":522,"x_min":0,"x_max":507,"o":"m 507 950 q 390 753 396 901 l 381 514 l 356 514 l 351 622 l 263 622 l 263 315 q 433 174 263 174 q 476 176 451 174 l 476 165 q 325 119 396 165 q 219 0 254 74 q 135 106 192 58 q 14 169 78 153 q 79 224 56 178 q 99 310 99 261 l 99 622 l 3 622 l 3 672 l 99 672 l 99 708 q 100 744 100 724 q 0 939 100 894 q 164 982 90 939 q 268 1111 247 1029 q 507 950 333 990 m 349 672 q 346 753 349 708 q 279 894 340 831 q 142 956 218 957 q 247 835 225 900 q 263 672 263 790 l 349 672 z "},"g":{"ha":629,"x_min":-4,"x_max":599,"o":"m 599 -161 q 551 -160 583 -160 q 364 -189 449 -160 q 214 -297 257 -225 q 72 -212 158 -212 q 21 -251 43 -212 q 3 -290 -1 -290 q -4 -265 -4 -290 q 25 -156 -4 -194 q 92 -101 39 -137 q 153 -32 136 -71 q 328 -153 235 -153 q 356 -150 336 -153 l 356 151 q 225 114 268 151 q 153 -1 194 88 q 96 99 121 69 q 1 164 63 139 q 75 283 75 200 l 75 469 q 1 617 75 581 q 186 664 89 617 q 332 781 283 711 q 447 667 368 717 q 599 617 526 617 q 539 560 561 611 q 521 474 521 518 l 521 318 q 596 164 521 208 q 529 90 544 132 q 519 -8 519 65 q 599 -161 519 -143 m 356 192 l 356 442 q 232 628 356 569 l 232 261 q 329 190 232 190 q 356 192 342 190 z "},"h":{"ha":663,"x_min":-10,"x_max":626,"o":"m 626 164 q 546 39 565 132 q 494 -121 521 -79 q 282 -250 438 -211 l 282 -228 q 386 -51 386 -197 l 386 531 q 317 597 386 581 q 254 603 292 603 l 238 603 l 238 311 q 250 222 238 250 q 315 164 267 188 q 222 90 263 135 q 157 -8 197 63 q 90 90 121 56 q -4 164 54 133 q 60 222 46 186 q 71 311 71 250 l 71 471 q -7 632 71 588 q 61 701 47 668 q 72 799 72 729 q -10 950 72 917 q 24 947 13 947 q 199 1028 88 947 q 369 1108 310 1108 q 471 1078 428 1108 q 519 988 519 1043 q 495 923 519 949 q 432 897 471 897 q 356 968 356 897 q 374 1015 356 996 q 419 1035 392 1035 q 479 968 474 1035 q 482 988 482 982 q 454 1045 482 1022 q 389 1068 426 1068 q 269 988 308 1068 q 238 838 238 922 l 238 643 q 382 681 329 643 q 469 801 428 714 q 529 699 501 731 q 626 632 564 658 q 550 507 550 594 l 550 314 q 626 164 550 240 z "},"i":{"ha":324,"x_min":0,"x_max":296,"o":"m 296 946 q 149 790 197 901 q 1 946 103 907 q 149 1111 110 997 q 296 946 197 988 m 296 165 q 208 94 242 136 q 149 0 189 69 q 89 94 107 72 q 1 165 53 138 q 64 224 50 189 q 74 311 74 249 l 74 496 q 0 617 74 585 q 94 676 49 617 q 149 781 131 722 q 206 679 167 729 q 296 617 253 619 q 224 496 224 583 l 224 311 q 233 224 224 247 q 296 165 247 189 z "},"j":{"ha":351,"x_min":6,"x_max":332,"o":"m 321 947 q 174 790 222 903 q 26 947 128 908 q 174 1111 133 994 q 321 947 222 988 m 332 -83 q 281 -207 332 -154 q 158 -260 229 -260 q 61 -231 103 -260 q 15 -144 15 -197 q 39 -82 15 -107 q 99 -57 63 -57 q 174 -124 174 -57 q 156 -169 174 -150 q 111 -189 138 -189 q 54 -125 63 -189 q 53 -142 53 -131 q 82 -199 53 -175 q 149 -222 111 -222 q 219 -190 193 -222 q 246 -111 246 -157 q 179 -18 246 -51 q 60 7 126 7 q 6 1 28 7 q 69 56 44 18 q 93 135 93 93 q 94 207 93 149 q 94 310 94 265 l 94 483 q 29 617 94 585 q 119 683 90 649 q 174 781 136 704 q 229 683 214 703 q 318 617 260 644 q 253 486 253 585 l 253 286 q 264 214 253 238 q 318 165 278 185 q 272 110 272 149 q 302 17 272 81 q 332 -83 332 -47 z "},"k":{"ha":667,"x_min":0,"x_max":643,"o":"m 643 171 q 553 99 585 139 q 490 0 535 76 q 428 99 446 76 q 338 171 396 139 q 399 274 399 203 q 347 375 399 349 q 244 343 299 353 l 244 321 q 257 231 244 260 q 324 171 274 193 q 231 99 268 142 q 165 0 206 71 q 99 99 126 67 q 4 171 63 140 q 68 231 53 194 q 79 318 79 257 l 79 476 q 3 638 79 592 q 71 710 56 672 q 81 807 81 735 q 0 954 81 921 q 26 953 10 953 q 203 1033 92 953 q 374 1113 315 1113 q 480 1079 435 1113 q 525 990 525 1046 q 501 926 525 953 q 439 900 476 900 q 363 971 363 900 q 381 1019 363 1000 q 426 1039 399 1039 q 486 971 478 1039 q 489 990 489 985 q 461 1047 489 1024 q 396 1069 433 1069 q 276 990 315 1069 q 244 842 244 926 l 244 657 q 382 689 339 657 q 464 806 421 717 q 528 704 492 751 q 617 638 581 638 q 504 561 542 618 q 431 446 481 524 q 474 453 456 453 q 603 386 547 453 q 561 283 561 336 q 643 171 561 211 m 413 517 q 376 594 413 567 q 288 622 339 622 q 244 618 268 622 l 244 378 q 357 418 314 389 q 413 517 413 456 z "},"l":{"ha":349,"x_min":0,"x_max":364,"o":"m 364 1089 q 271 985 304 1072 q 244 840 244 917 l 244 318 q 257 229 244 257 q 322 171 274 194 q 229 99 267 140 q 164 0 204 71 q 99 99 129 64 q 4 171 63 140 q 68 229 54 193 q 79 318 79 257 l 79 475 q 3 636 79 593 q 69 706 54 667 q 81 801 81 735 q 0 956 81 929 q 26 954 10 954 q 197 1025 97 954 q 364 1111 303 1100 l 364 1089 z "},"m":{"ha":933,"x_min":0,"x_max":900,"o":"m 900 165 q 813 94 846 136 q 753 0 793 69 q 693 94 713 69 q 606 165 660 136 q 668 225 653 188 q 678 311 678 250 l 678 497 q 660 568 678 538 q 601 604 639 604 q 543 568 564 604 q 525 497 525 538 l 525 311 q 535 224 525 247 q 599 165 549 189 q 510 94 544 136 q 450 0 492 74 q 390 94 408 72 q 303 165 354 138 q 365 225 350 188 q 375 311 375 250 l 375 497 q 357 568 375 538 q 299 604 336 604 q 240 568 261 604 q 222 497 222 538 l 222 311 q 232 224 222 247 q 296 165 246 189 q 207 94 242 136 q 147 0 189 74 q 88 96 128 35 q 0 165 53 136 q 63 225 47 188 q 74 311 74 251 l 74 497 q 53 567 74 533 q 0 617 32 601 q 91 681 63 649 q 147 781 119 714 q 299 629 222 629 q 450 781 375 629 q 601 629 525 629 q 753 781 678 629 q 807 682 794 697 q 900 617 835 649 q 828 497 828 583 l 828 311 q 838 225 828 249 q 900 165 853 188 z "},"n":{"ha":632,"x_min":0,"x_max":599,"o":"m 599 165 q 510 96 542 135 q 450 0 494 78 q 390 94 408 72 q 303 165 354 138 q 365 225 350 188 q 375 311 375 250 l 375 497 q 357 568 375 538 q 299 604 336 604 q 240 568 261 604 q 222 497 222 538 l 222 311 q 233 225 222 251 q 296 165 249 188 q 207 94 242 136 q 147 0 189 74 q 88 96 128 35 q 0 165 53 136 q 63 225 47 188 q 74 311 74 251 l 74 497 q 0 618 74 581 q 90 685 61 650 q 147 781 114 711 q 299 629 222 629 q 450 781 375 629 q 507 683 490 703 q 599 618 535 651 q 525 497 525 582 l 525 311 q 536 225 525 254 q 599 165 550 189 z "},"o":{"ha":617,"x_min":0,"x_max":594,"o":"m 594 167 q 271 0 363 163 q 151 110 239 56 q 0 167 63 164 q 56 224 33 168 q 75 308 75 271 l 75 464 q 1 619 75 578 q 183 661 94 619 q 322 781 279 706 q 442 676 351 729 q 593 619 532 622 q 518 472 518 601 l 518 317 q 594 167 518 206 m 365 153 l 365 465 q 322 574 365 525 q 228 647 300 599 l 228 310 q 365 153 228 218 z "},"p":{"ha":611,"x_min":-12,"x_max":583,"o":"m 583 167 q 489 101 519 139 q 433 0 468 75 q 354 117 393 86 q 218 153 307 153 l 218 -15 q 293 -133 218 -100 q 201 -201 235 -164 q 140 -296 181 -225 q 79 -200 96 -219 q -12 -133 50 -165 q 67 10 67 -99 q 58 103 67 85 q -10 167 44 132 q 65 319 65 208 l 65 475 q 47 561 65 515 q -8 618 25 618 q 74 683 29 618 q 128 782 75 686 q 276 642 189 642 q 428 782 365 642 q 583 618 469 639 q 511 471 511 597 l 511 285 q 583 167 511 200 m 361 288 l 361 503 q 346 571 361 542 q 290 607 326 607 q 217 460 215 607 l 218 193 q 311 214 268 190 q 361 288 361 242 z "},"q":{"ha":622,"x_min":0,"x_max":596,"o":"m 596 -135 q 506 -203 539 -164 q 443 -297 479 -233 q 381 -203 404 -231 q 290 -135 347 -164 q 365 -17 365 -101 l 365 151 q 231 115 278 151 q 151 -1 190 83 q 94 100 118 71 q 0 165 63 139 q 74 283 74 199 l 74 465 q 0 617 74 575 q 144 674 57 617 q 261 779 226 728 q 413 675 288 735 q 592 617 532 619 q 535 560 556 617 q 518 472 518 515 l 518 318 q 593 165 518 207 q 525 101 538 131 q 517 7 517 82 q 596 -135 517 -100 m 365 192 l 365 657 q 269 601 301 621 q 222 507 222 572 l 222 285 q 269 215 222 243 q 354 192 310 192 l 365 192 z "},"r":{"ha":554,"x_min":0,"x_max":540,"o":"m 540 607 q 456 492 490 585 q 419 346 431 425 l 418 346 q 381 490 414 410 q 290 590 339 590 q 249 522 249 590 l 249 240 q 368 156 311 169 q 515 149 397 149 q 385 90 438 124 q 275 0 343 64 q 156 102 244 56 q 1 149 68 149 q 61 211 33 151 q 86 303 86 265 l 86 460 q 0 607 86 558 q 160 781 90 607 q 285 638 214 638 q 415 781 356 638 l 460 679 q 540 607 488 631 z "},"s":{"ha":628,"x_min":0,"x_max":604,"o":"m 604 149 q 249 0 374 149 q 108 82 179 82 q 8 0 40 82 l 0 0 q 46 143 7 100 q 128 194 67 165 q 214 257 189 224 q 278 183 233 224 q 360 139 326 139 q 382 165 382 139 l 382 290 q 263 383 382 383 q 86 300 143 383 l 86 457 q 10 607 86 564 q 218 651 114 607 q 383 781 331 700 q 581 607 450 654 l 571 607 q 468 569 511 607 q 414 469 425 531 q 356 571 394 522 q 263 632 307 632 q 240 607 240 632 q 256 472 240 510 q 364 407 282 407 q 538 493 463 407 l 538 289 q 604 149 538 189 z "},"t":{"ha":414,"x_min":0,"x_max":378,"o":"m 378 500 l 347 500 l 347 525 q 349 550 349 536 q 330 617 349 600 q 258 633 311 633 l 258 318 q 338 151 258 189 q 244 90 272 115 q 179 0 213 60 q 114 92 142 65 q 19 151 94 111 q 83 221 67 174 q 94 318 94 253 l 94 633 l 0 633 l 0 696 l 94 696 l 94 840 q 56 911 94 878 q 13 946 51 915 l 14 947 q 108 968 47 951 q 235 1049 140 979 q 375 1111 307 1101 l 374 1093 q 258 842 258 1057 l 258 696 q 338 714 324 696 q 347 794 347 726 l 378 794 l 378 500 z "},"u":{"ha":633,"x_min":0,"x_max":599,"o":"m 599 157 q 508 97 535 126 q 450 0 482 67 q 299 153 375 153 q 147 0 222 153 q 92 96 111 75 q 0 157 64 126 q 53 210 32 174 q 74 285 74 247 l 74 471 q 63 554 74 531 q 0 608 49 585 q 149 781 100 664 q 296 608 196 663 q 233 554 247 585 q 222 471 222 531 l 222 285 q 243 221 222 249 q 299 193 264 193 q 354 219 333 193 q 375 285 375 246 l 375 471 q 365 554 375 533 q 303 608 351 585 q 450 781 403 664 q 599 608 497 663 q 536 554 550 585 q 525 471 525 531 l 525 285 q 546 210 525 247 q 599 157 567 174 z "},"v":{"ha":607,"x_min":0,"x_max":582,"o":"m 582 157 q 403 115 485 158 q 258 0 340 82 q 147 110 222 63 q 0 157 68 158 q 53 210 32 172 q 74 285 74 247 l 74 471 q 63 554 74 531 q 0 610 47 588 q 149 781 100 663 q 296 610 197 661 q 233 554 249 588 q 222 471 222 531 l 222 285 q 308 204 242 236 q 425 175 368 175 l 425 488 q 396 567 425 533 q 319 610 367 600 q 451 781 413 664 q 582 610 496 661 q 500 574 524 600 q 476 488 476 547 l 476 285 q 582 157 476 190 z "},"w":{"ha":914,"x_min":0,"x_max":882,"o":"m 882 149 q 719 111 785 149 q 593 0 678 88 q 390 140 490 140 q 294 99 333 140 q 239 0 254 58 q 135 106 203 63 q 0 149 68 149 q 53 201 32 164 q 74 278 74 239 l 74 465 q 64 550 74 528 q 0 607 50 583 q 93 679 60 638 q 150 781 113 703 q 300 639 232 639 q 450 781 369 639 q 507 678 475 718 q 600 607 539 639 q 536 550 550 583 q 526 465 526 528 l 526 278 q 615 200 543 236 q 731 165 682 165 l 731 482 q 701 562 731 528 q 624 607 671 596 q 707 679 678 636 q 756 781 731 714 q 882 607 792 654 q 803 571 824 597 q 782 482 782 544 l 782 278 q 882 149 782 172 m 365 149 l 365 465 q 353 549 365 513 q 299 600 335 600 q 242 549 260 600 q 226 465 226 507 l 226 256 q 281 186 226 224 q 365 149 331 151 z "},"x":{"ha":697,"x_min":42,"x_max":679,"o":"m 679 149 q 589 93 626 138 q 533 1 574 75 q 372 151 429 49 q 296 361 335 219 q 253 222 253 263 q 318 149 253 149 q 196 1 214 124 q 140 46 181 46 q 94 28 114 46 q 74 -14 74 11 q 97 -64 74 -49 q 131 -83 108 -71 l 122 -87 q 60 -46 82 -87 q 42 32 42 -12 q 74 139 42 88 q 161 197 108 197 q 176 196 171 197 q 249 368 249 354 q 207 417 249 399 q 257 474 257 438 q 242 518 257 493 q 74 607 189 607 q 153 681 104 610 q 208 782 194 743 q 358 650 300 763 q 435 454 383 601 q 478 549 478 524 q 410 607 478 585 q 543 782 501 656 q 668 607 576 649 q 558 558 615 600 q 493 464 493 511 q 538 417 493 433 q 481 347 481 383 q 496 303 481 331 q 679 149 581 149 z "},"y":{"ha":639,"x_min":6,"x_max":607,"o":"m 607 157 q 547 106 565 149 q 525 19 535 76 q 500 -61 515 -37 q 414 -133 475 -101 l 307 -190 q 224 -297 250 -231 q 82 -212 168 -212 q 31 -251 53 -212 q 13 -290 8 -290 q 6 -265 6 -290 q 35 -156 6 -194 q 99 -106 43 -144 q 163 -32 143 -75 q 294 -124 225 -124 q 365 10 365 -124 l 365 535 q 304 604 365 604 q 242 535 242 604 l 242 283 q 263 208 242 247 q 317 157 286 163 q 218 101 254 149 q 163 -1 197 75 q 105 97 132 65 q 11 157 78 129 q 64 209 43 172 q 85 283 85 246 l 85 471 q 69 556 85 517 q 11 608 50 608 q 103 681 68 638 q 160 782 122 704 q 308 640 239 640 q 456 782 376 640 q 603 608 506 658 q 546 557 565 608 q 531 474 531 518 l 531 319 q 607 157 531 199 z "},"z":{"ha":679,"x_min":0,"x_max":651,"o":"m 651 149 q 558 93 589 129 q 503 0 544 76 q 349 140 450 140 q 235 98 290 140 q 153 0 179 56 q 3 149 76 146 q 143 258 81 164 q 240 456 185 321 q 318 632 300 600 q 290 636 304 636 q 172 550 224 636 q 122 404 131 481 l 121 404 q 0 607 100 558 q 142 781 93 650 q 209 700 163 731 q 310 669 256 669 q 344 674 328 669 q 478 781 406 758 q 611 607 504 681 q 572 614 590 614 q 456 519 513 614 q 360 325 453 514 q 247 165 300 204 q 321 185 289 185 q 344 183 326 185 q 368 181 363 181 q 467 258 410 181 q 526 376 519 329 q 651 149 554 192 z "},"{":{"ha":435,"x_min":-1,"x_max":467,"o":"m 467 -53 q 288 -26 344 -53 q 190 114 206 11 q 185 322 185 153 q 143 481 185 428 q -1 554 101 535 q 167 665 135 594 q 185 869 185 706 q 232 1106 185 1050 q 467 1169 286 1169 q 353 1089 406 1153 q 322 969 322 1051 l 322 840 q 297 656 322 710 q 149 553 261 578 q 321 353 308 521 q 322 197 322 344 q 353 28 322 65 q 467 -53 408 -40 z "},"|":{"ha":331,"x_min":115,"x_max":207,"o":"m 207 -71 l 115 -71 l 115 1182 l 207 1182 l 207 -71 z "},"}":{"ha":485,"x_min":50,"x_max":517,"o":"m 517 547 q 368 464 411 526 q 328 297 328 408 q 329 233 328 275 q 331 168 331 190 q 257 -21 331 28 q 50 -60 199 -60 q 164 21 107 -47 q 194 136 194 57 l 194 263 q 219 446 194 393 q 368 546 256 521 q 235 624 276 567 q 196 751 196 676 l 196 910 q 164 1081 196 1040 q 50 1163 114 1143 q 231 1135 174 1163 q 325 992 311 1097 q 331 782 331 950 q 369 621 331 658 q 517 547 417 576 z "},"~":{"ha":694,"x_min":0,"x_max":0,"o":""},"¡":{"ha":376,"x_min":0,"x_max":342,"o":"m 342 940 q 243 870 274 901 q 171 769 213 839 q 100 869 132 838 q 0 940 68 901 q 101 1013 69 982 q 171 1111 132 1043 q 242 1011 218 1035 q 342 940 265 988 m 342 171 q 242 99 271 128 q 171 0 214 71 q 99 99 128 71 q 0 171 71 128 q 83 336 83 228 q 0 478 83 443 q 68 528 58 504 q 81 608 72 556 q 126 678 83 626 q 171 754 169 729 q 215 678 172 729 q 261 608 258 626 q 274 528 265 582 q 342 478 285 503 q 260 336 260 442 q 342 171 260 228 z "},"¢":{"ha":615,"x_min":0,"x_max":625,"o":"m 371 964 l 339 964 l 339 1111 l 371 1111 l 371 964 m 371 876 l 338 856 l 338 914 l 371 924 l 371 876 m 625 867 q 528 769 551 856 q 513 619 519 738 l 486 619 l 486 639 q 413 863 486 810 l 413 500 q 429 418 413 440 q 507 390 449 392 l 507 368 l 485 368 q 258 267 328 368 q 393 203 314 203 q 523 249 465 203 q 581 365 581 294 q 552 444 581 411 q 479 478 524 478 q 457 474 474 478 q 436 471 440 471 l 431 474 q 492 497 433 497 q 582 456 546 497 q 618 357 618 414 q 535 214 618 272 q 371 163 463 163 q 110 275 219 163 q 0 539 0 388 q 104 818 0 694 q 367 949 214 949 q 388 944 388 949 q 353 933 388 940 q 199 807 238 911 q 376 864 290 811 q 497 1003 469 921 q 543 921 515 947 q 625 889 571 894 l 625 867 m 371 221 l 339 231 l 339 315 l 371 329 l 371 221 m 371 0 l 339 0 l 339 147 l 371 147 l 371 0 m 256 271 l 256 674 q 193 789 256 775 q 186 735 186 765 l 186 471 q 256 271 186 353 z "},"£":{"ha":1081,"x_min":65,"x_max":1022,"o":"m 1022 161 l 936 0 q 490 86 674 86 q 78 0 308 86 l 65 21 q 428 186 224 121 q 431 228 431 222 q 375 457 431 324 l 78 457 l 126 593 l 332 593 q 304 747 304 676 q 332 886 304 819 l 719 1079 l 1001 903 l 889 767 l 567 965 q 494 760 494 872 q 531 593 494 704 l 847 593 l 800 457 l 557 457 q 560 433 560 435 q 479 200 560 319 q 682 231 592 231 q 1022 161 847 231 z "},"¤":{"ha":1081,"x_min":19,"x_max":1054,"o":"m 1054 910 l 1007 796 q 658 968 860 968 q 434 883 533 968 q 303 674 335 797 l 956 674 l 908 561 l 283 561 l 283 506 l 885 506 l 838 393 l 304 393 q 433 186 344 265 q 658 99 531 99 q 1017 282 861 99 l 1017 119 q 658 -12 856 -12 q 353 106 482 -12 q 188 393 232 215 l 19 393 l 67 506 l 171 506 q 169 533 169 517 q 171 561 169 550 l 19 561 l 67 674 l 188 674 q 351 963 228 851 q 658 1081 482 1081 q 1054 910 886 1081 z "},"¥":{"ha":1164,"x_min":39,"x_max":1124,"o":"m 1124 939 l 1067 824 l 860 907 l 693 511 l 693 453 l 950 453 l 910 335 l 693 335 l 693 169 q 783 181 740 181 q 860 169 818 181 l 801 40 q 701 53 729 53 q 376 0 547 53 l 365 33 q 536 118 413 61 l 536 335 l 279 335 l 319 453 l 536 453 l 536 511 l 354 814 q 293 910 304 896 q 196 958 251 958 q 61 868 128 958 l 39 893 q 122 1022 68 974 q 264 1079 185 1079 q 475 922 383 1079 l 681 572 l 889 1074 q 1124 939 963 1022 z "},"¦":{"ha":786,"x_min":328,"x_max":454,"o":"m 454 472 l 328 472 l 328 967 l 454 967 l 454 472 m 454 -187 l 328 -187 l 328 306 l 454 306 l 454 -187 z "},"§":{"ha":708,"x_min":67,"x_max":642,"o":"m 642 357 q 525 147 642 256 q 576 32 576 94 q 521 -112 576 -37 q 414 -229 493 -150 l 128 -128 l 193 -17 l 478 -118 q 511 -44 511 -75 q 396 88 511 15 l 182 222 q 67 422 67 317 q 183 626 67 525 q 135 744 135 679 q 299 1001 135 858 l 581 900 l 514 790 l 231 893 q 199 818 199 844 q 314 686 199 760 l 526 550 q 642 357 642 458 m 572 282 q 506 397 572 338 q 393 475 472 426 q 204 604 314 524 q 138 488 138 542 q 215 368 138 432 q 340 283 256 335 q 506 169 435 226 q 572 282 572 231 z "},"¨":{"ha":624,"x_min":51,"x_max":536,"o":"m 536 997 l 424 885 l 310 997 l 424 1111 l 536 997 m 278 997 l 165 885 l 51 997 l 165 1111 l 278 997 z "},"©":{"ha":1140,"x_min":1,"x_max":1104,"o":"m 1104 547 q 943 157 1104 318 q 553 -4 782 -4 q 162 156 322 -4 q 1 547 1 317 q 162 938 1 778 q 553 1099 322 1099 q 944 938 783 1099 q 1104 547 1104 778 m 1032 547 q 892 887 1032 747 q 553 1026 753 1026 q 213 888 351 1026 q 74 547 74 749 q 213 207 74 346 q 553 68 351 68 q 892 208 753 68 q 1032 547 1032 347 m 832 811 q 739 726 763 801 q 722 590 728 693 l 696 590 l 696 617 q 624 807 696 761 l 624 486 q 642 410 624 429 q 717 388 661 390 l 717 368 l 692 368 q 474 281 539 368 q 607 222 532 222 q 728 258 674 222 q 788 365 788 299 q 760 436 788 407 q 690 465 732 465 q 672 463 686 465 q 651 460 657 460 q 643 461 650 460 q 703 483 651 483 q 790 447 754 483 q 825 358 825 410 q 742 229 825 281 q 585 186 671 186 q 333 283 444 186 q 222 519 222 381 q 327 772 222 660 q 571 883 432 883 q 601 879 589 883 q 518 856 561 869 q 415 758 447 833 q 588 806 503 760 q 708 932 681 857 q 755 857 729 879 q 832 831 781 835 l 832 811 m 471 282 l 471 639 q 410 742 471 729 q 403 686 403 717 l 403 460 q 471 282 403 354 z "},"«":{"ha":632,"x_min":46,"x_max":586,"o":"m 586 71 l 564 47 q 403 219 463 118 q 340 444 340 326 q 564 842 340 675 l 586 819 q 453 447 453 669 q 586 71 453 219 m 290 71 l 269 47 q 46 444 46 208 q 269 842 46 679 l 290 819 q 157 446 157 681 q 290 71 157 213 z "},"¬":{"ha":1065,"x_min":101,"x_max":963,"o":"m 963 265 l 819 265 l 819 644 l 101 644 l 101 789 l 963 789 l 963 265 z "},"®":{"ha":1140,"x_min":1,"x_max":1104,"o":"m 1104 547 q 943 157 1104 318 q 553 -4 782 -4 q 162 156 322 -4 q 1 547 1 317 q 162 938 1 778 q 553 1099 322 1099 q 944 938 783 1099 q 1104 547 1104 778 m 1032 547 q 892 887 1032 747 q 553 1026 753 1026 q 213 888 351 1026 q 74 547 74 749 q 213 207 74 346 q 553 68 351 68 q 892 208 753 68 q 1032 547 1032 347 m 833 188 q 731 215 771 201 q 647 271 663 238 q 639 343 639 289 l 639 506 q 604 568 639 551 q 529 582 585 578 l 529 476 q 603 397 529 401 l 603 382 q 518 352 564 381 q 464 289 472 324 q 369 336 425 336 q 303 289 303 336 q 324 261 303 268 q 333 256 332 260 q 324 250 333 250 q 288 268 303 250 q 272 308 272 286 q 390 397 272 383 l 390 582 q 353 574 358 581 q 349 533 349 568 l 321 533 l 321 668 l 349 668 q 356 635 349 642 q 390 629 363 629 l 390 696 q 363 767 390 740 q 289 793 335 793 l 289 807 l 376 807 q 514 835 465 807 q 644 883 600 883 q 708 847 651 883 q 825 807 761 814 l 825 793 q 767 719 767 792 l 767 692 q 768 664 768 679 q 632 593 768 604 q 717 569 665 593 q 792 544 769 544 q 825 549 807 544 l 825 533 q 761 475 761 521 l 760 293 q 833 206 760 235 l 833 188 m 639 643 l 639 726 q 529 807 639 793 l 529 603 q 639 643 639 604 z "},"°":{"ha":639,"x_min":44,"x_max":583,"o":"m 583 842 q 505 650 583 729 q 314 571 426 571 q 122 649 200 571 q 44 842 44 728 q 123 1033 44 954 q 314 1111 201 1111 q 505 1033 426 1111 q 583 842 583 954 m 482 842 q 433 960 482 911 q 314 1010 383 1010 q 194 961 243 1010 q 146 842 146 913 q 194 723 146 771 q 314 675 243 675 q 433 724 383 675 q 482 842 482 772 z "},"±":{"ha":1065,"x_min":101,"x_max":963,"o":"m 963 588 l 604 588 l 604 231 l 460 231 l 460 588 l 101 588 l 101 732 l 460 732 l 460 1092 l 604 1092 l 604 732 l 963 732 l 963 588 m 963 -42 l 101 -42 l 101 103 l 963 103 l 963 -42 z "},"²":{"ha":532,"x_min":32,"x_max":493,"o":"m 493 636 l 404 526 q 229 558 296 558 q 74 526 149 558 l 32 542 q 131 690 47 624 q 275 801 179 728 q 349 961 349 871 q 317 1032 349 997 l 124 913 l 32 994 l 214 1111 l 486 1000 q 492 949 492 972 q 414 793 492 858 q 256 708 364 750 q 124 613 167 674 q 343 663 239 663 q 493 636 424 663 z "},"³":{"ha":532,"x_min":-4,"x_max":482,"o":"m 482 715 q 135 531 482 549 l -4 643 l 93 735 l 288 583 q 329 688 329 625 q 274 803 329 774 q 140 824 233 824 l 140 864 q 310 990 310 864 q 271 1047 310 1047 q 192 1006 251 1047 q 117 950 167 988 l 35 1039 l 140 1111 l 464 1024 q 333 849 438 881 q 482 715 482 811 z "},"´":{"ha":624,"x_min":275,"x_max":526,"o":"m 526 1110 l 318 819 l 275 819 l 346 1110 l 526 1110 z "},"¶":{"ha":622,"x_min":-10,"x_max":632,"o":"m 632 882 l 542 882 l 542 -300 l 492 -300 l 492 882 l 365 882 l 365 -300 l 317 -300 l 317 407 q 89 463 169 413 q -10 665 -10 524 q 83 860 -10 792 q 296 919 164 919 l 632 919 l 632 882 z "},"¸":{"ha":532,"x_min":122,"x_max":442,"o":"m 442 -118 q 236 -260 442 -260 q 122 -250 175 -260 l 135 -224 q 201 -229 185 -229 q 278 -208 242 -229 q 315 -149 315 -186 q 281 -93 315 -112 q 214 -76 253 -76 q 178 -81 201 -76 l 233 -18 q 313 0 279 0 q 405 -33 368 0 q 442 -118 442 -65 z "},"¹":{"ha":532,"x_min":117,"x_max":424,"o":"m 424 622 l 292 531 l 171 600 l 200 631 l 200 943 q 179 1021 200 1021 q 136 996 169 1021 l 117 1025 l 244 1111 q 322 1047 304 1092 q 335 943 335 1017 l 336 651 q 361 622 339 646 l 403 651 l 424 622 z "},"º":{"ha":449,"x_min":29,"x_max":389,"o":"m 389 704 q 231 632 310 683 q 42 683 118 683 l 29 704 q 60 817 60 739 l 60 1043 q 144 1065 115 1053 q 218 1113 172 1078 q 389 1058 297 1067 l 389 704 m 285 719 l 285 982 q 165 1018 231 1008 l 165 763 l 285 719 z "},"»":{"ha":632,"x_min":47,"x_max":588,"o":"m 588 444 q 363 47 588 206 l 342 71 q 476 446 476 214 q 342 819 476 681 l 363 842 q 588 444 588 679 m 293 444 q 229 219 293 328 q 68 47 169 118 l 47 71 q 181 447 181 219 q 47 819 181 669 l 68 842 q 293 444 293 675 z "},"¼":{"ha":1136,"x_min":0,"x_max":1110,"o":"m 486 165 q 544 224 529 188 q 554 310 554 247 l 554 469 q 504 610 554 563 q 425 490 458 578 q 389 350 397 419 l 386 350 q 349 517 375 444 q 244 628 306 632 l 244 318 q 486 165 244 172 m 1110 163 q 1029 38 1049 131 q 978 -122 1004 -81 q 765 -251 921 -212 l 765 -229 q 869 -53 869 -199 l 869 529 q 800 596 869 579 q 738 601 775 601 l 721 601 l 721 310 q 733 221 721 249 q 799 163 750 186 q 706 89 746 133 q 640 -10 681 61 q 575 88 599 61 q 485 160 536 131 q 271 0 418 139 q 150 105 244 47 q 1 165 56 163 q 64 219 40 168 q 85 307 85 263 l 85 463 q 0 617 85 569 q 361 781 251 617 q 482 635 419 672 q 544 703 531 665 q 556 797 556 732 q 474 949 556 915 q 507 946 496 946 q 682 1026 571 946 q 853 1107 793 1107 q 954 1076 911 1107 q 1003 986 1003 1042 q 978 922 1003 947 q 915 896 954 896 q 839 967 839 896 q 857 1014 839 994 q 903 1033 875 1033 q 963 967 957 1033 q 965 986 965 981 q 938 1044 965 1021 q 872 1067 910 1067 q 753 986 792 1067 q 721 836 721 921 l 721 642 q 865 679 813 642 q 953 800 911 713 q 1013 697 985 729 q 1110 631 1047 657 q 1033 506 1033 593 l 1033 313 q 1110 163 1033 239 z "},"½":{"ha":1129,"x_min":0,"x_max":1107,"o":"m 468 172 l 468 171 q 532 231 517 194 q 543 318 543 257 l 543 476 q 501 608 543 558 q 425 490 458 578 q 389 350 397 419 l 386 350 q 349 517 375 444 q 244 628 306 632 l 244 318 q 318 200 244 236 q 468 172 371 174 m 1107 171 q 1017 99 1049 139 q 954 0 999 76 q 892 99 910 76 q 801 171 860 139 q 863 274 863 203 q 811 375 863 349 q 708 343 763 353 l 708 321 q 721 231 708 260 q 788 171 738 193 q 694 99 732 142 q 629 0 669 71 q 568 93 593 63 q 486 161 536 132 q 271 0 422 143 q 150 105 244 47 q 1 165 56 163 q 64 219 40 168 q 85 307 85 263 l 85 463 q 0 617 85 569 q 361 781 251 617 q 472 640 419 676 q 535 711 522 672 q 544 807 544 735 q 464 954 544 921 q 490 953 474 953 q 667 1033 556 953 q 838 1113 779 1113 q 944 1079 899 1113 q 989 990 989 1046 q 965 926 989 953 q 903 900 940 900 q 826 971 826 900 q 844 1019 826 1000 q 890 1039 863 1039 q 950 971 942 1039 q 953 990 953 985 q 925 1047 953 1024 q 860 1069 897 1069 q 740 990 779 1069 q 708 842 708 926 l 708 657 q 846 689 803 657 q 928 806 885 717 q 992 704 956 751 q 1081 638 1044 638 q 968 561 1006 618 q 894 446 944 524 q 938 453 919 453 q 1067 386 1011 453 q 1025 283 1025 336 q 1107 171 1025 211 m 876 517 q 840 594 876 567 q 751 622 803 622 q 708 618 732 622 l 708 378 q 821 418 778 389 q 876 517 876 456 z "},"¾":{"ha":1497,"x_min":0,"x_max":1464,"o":"m 840 165 q 899 224 883 188 q 908 310 908 247 l 908 469 q 858 610 908 563 q 779 490 813 578 q 743 350 751 419 l 740 350 q 703 517 729 444 q 599 628 660 632 l 599 318 q 840 165 599 172 m 1464 163 q 1383 38 1403 131 q 1332 -122 1358 -81 q 1119 -251 1275 -212 l 1119 -229 q 1224 -53 1224 -199 l 1224 529 q 1154 596 1224 579 q 1092 601 1129 601 l 1075 601 l 1075 310 q 1088 221 1075 249 q 1153 163 1104 186 q 1060 89 1100 133 q 994 -10 1035 61 q 929 88 953 61 q 839 160 890 131 q 625 0 772 139 q 524 90 601 39 q 403 156 457 135 q 219 0 275 118 q 135 106 192 58 q 14 169 78 153 q 79 224 56 178 q 99 310 99 261 l 99 622 l 3 622 l 3 672 l 99 672 l 99 708 q 100 744 100 724 q 0 939 100 894 q 164 982 90 939 q 268 1111 247 1029 q 507 950 333 990 q 390 749 390 899 q 381 747 389 747 l 344 747 q 281 889 342 822 q 142 956 215 958 q 254 811 235 896 q 263 622 263 775 l 263 315 q 386 178 263 197 q 425 238 408 196 q 439 307 439 275 l 439 463 q 354 617 439 569 q 715 781 606 617 q 836 635 774 672 q 899 703 885 665 q 910 797 910 732 q 828 949 910 915 q 861 946 850 946 q 1036 1026 925 946 q 1207 1107 1147 1107 q 1308 1076 1265 1107 q 1357 986 1357 1042 q 1333 922 1357 947 q 1269 896 1308 896 q 1193 967 1193 896 q 1211 1014 1193 994 q 1257 1033 1229 1033 q 1317 967 1311 1033 q 1319 986 1319 981 q 1292 1044 1319 1021 q 1226 1067 1264 1067 q 1107 986 1146 1067 q 1075 836 1075 921 l 1075 642 q 1219 679 1167 642 q 1307 800 1265 713 q 1367 697 1339 729 q 1464 631 1401 657 q 1388 506 1388 593 l 1388 313 q 1464 163 1388 239 z "},"¿":{"ha":550,"x_min":0,"x_max":533,"o":"m 463 946 q 360 874 390 904 q 286 769 331 843 q 212 873 244 840 q 110 946 179 906 q 213 1019 182 988 q 286 1122 244 1050 q 358 1018 329 1047 q 463 946 388 989 m 533 150 q 490 126 506 133 q 454 94 465 111 q 381 19 415 39 q 281 0 346 0 q 142 64 201 0 q 0 164 69 140 q 42 264 42 217 q 87 370 42 311 q 132 444 132 429 q 97 492 132 471 q 285 757 228 506 q 447 481 297 564 q 276 356 351 453 q 201 160 201 260 q 222 78 201 111 q 292 36 249 36 q 333 51 314 36 q 353 85 353 65 q 271 150 353 118 q 361 264 324 182 q 401 408 393 333 q 533 150 453 199 z "},"À":{"ha":913,"x_min":32,"x_max":910,"o":"m 374 1226 l 331 1226 l 122 1517 l 303 1517 l 374 1226 m 910 168 q 721 3 786 131 q 614 97 689 18 q 499 168 553 161 l 499 181 q 576 317 576 201 q 542 535 576 361 q 504 539 524 539 q 326 304 326 539 q 429 149 326 172 l 429 136 q 326 83 378 125 q 263 -10 269 36 q 163 68 231 68 q 99 47 128 68 q 71 -6 71 25 q 100 -58 71 -31 q 129 -89 129 -86 l 124 -93 q 58 -46 88 -93 q 32 36 32 -3 q 83 151 32 106 q 204 197 133 197 q 250 193 228 197 q 281 319 261 235 q 300 447 300 403 q 196 564 300 517 q 378 897 338 594 q 379 922 379 908 q 341 1021 379 978 q 247 1064 303 1064 q 170 1031 204 1064 q 136 957 136 999 q 156 901 136 924 q 204 878 175 878 q 224 881 210 878 q 240 883 238 883 q 249 881 246 883 q 190 858 236 858 q 125 891 150 858 q 100 968 100 924 q 165 1093 100 1044 q 303 1138 224 1138 q 488 1074 393 1138 q 631 989 590 1003 q 796 968 688 968 l 796 940 q 779 942 790 942 q 685 838 685 942 q 693 767 685 810 l 772 361 q 817 253 783 303 q 910 197 857 190 l 910 168 m 535 578 l 465 928 q 396 1060 449 1014 q 263 1100 343 1107 l 257 1099 q 301 1085 272 1094 q 343 1069 329 1075 q 421 924 421 1028 q 403 808 421 886 q 386 694 386 736 q 493 574 386 574 q 535 578 513 574 z "},"Á":{"ha":913,"x_min":32,"x_max":910,"o":"m 706 1517 l 497 1226 l 454 1226 l 525 1517 l 706 1517 m 910 168 q 721 3 786 131 q 614 97 689 18 q 499 168 553 161 l 499 181 q 576 317 576 201 q 542 535 576 361 q 504 539 524 539 q 326 304 326 539 q 429 149 326 172 l 429 136 q 326 83 378 125 q 263 -10 269 36 q 163 68 231 68 q 99 47 128 68 q 71 -6 71 25 q 100 -58 71 -31 q 129 -89 129 -86 l 124 -93 q 58 -46 88 -93 q 32 36 32 -3 q 83 151 32 106 q 204 197 133 197 q 250 193 228 197 q 281 319 261 235 q 300 447 300 403 q 196 564 300 517 q 378 897 338 594 q 379 922 379 908 q 341 1021 379 978 q 247 1064 303 1064 q 170 1031 204 1064 q 136 957 136 999 q 156 901 136 924 q 204 878 175 878 q 224 881 210 878 q 240 883 238 883 q 249 881 246 883 q 190 858 236 858 q 125 891 150 858 q 100 968 100 924 q 165 1093 100 1044 q 303 1138 224 1138 q 488 1074 393 1138 q 631 989 590 1003 q 796 968 688 968 l 796 940 q 779 942 790 942 q 685 838 685 942 q 693 767 685 810 l 772 361 q 817 253 783 303 q 910 197 857 190 l 910 168 m 535 578 l 465 928 q 396 1060 449 1014 q 263 1100 343 1107 l 257 1099 q 301 1085 272 1094 q 343 1069 329 1075 q 421 924 421 1028 q 403 808 421 886 q 386 694 386 736 q 493 574 386 574 q 535 578 513 574 z "},"Â":{"ha":913,"x_min":32,"x_max":910,"o":"m 657 1226 l 610 1226 l 428 1394 l 243 1226 l 197 1226 l 344 1518 l 513 1518 l 657 1226 m 910 168 q 721 3 786 131 q 614 97 689 18 q 499 168 553 161 l 499 181 q 576 317 576 201 q 542 535 576 361 q 504 539 524 539 q 326 304 326 539 q 429 149 326 172 l 429 136 q 326 83 378 125 q 263 -10 269 36 q 163 68 231 68 q 99 47 128 68 q 71 -6 71 25 q 100 -58 71 -31 q 129 -89 129 -86 l 124 -93 q 58 -46 88 -93 q 32 36 32 -3 q 83 151 32 106 q 204 197 133 197 q 250 193 228 197 q 281 319 261 235 q 300 447 300 403 q 196 564 300 517 q 378 897 338 594 q 379 922 379 908 q 341 1021 379 978 q 247 1064 303 1064 q 170 1031 204 1064 q 136 957 136 999 q 156 901 136 924 q 204 878 175 878 q 224 881 210 878 q 240 883 238 883 q 249 881 246 883 q 190 858 236 858 q 125 891 150 858 q 100 968 100 924 q 165 1093 100 1044 q 303 1138 224 1138 q 488 1074 393 1138 q 631 989 590 1003 q 796 968 688 968 l 796 940 q 779 942 790 942 q 685 838 685 942 q 693 767 685 810 l 772 361 q 817 253 783 303 q 910 197 857 190 l 910 168 m 535 578 l 465 928 q 396 1060 449 1014 q 263 1100 343 1107 l 257 1099 q 301 1085 272 1094 q 343 1069 329 1075 q 421 924 421 1028 q 403 808 421 886 q 386 694 386 736 q 493 574 386 574 q 535 578 513 574 z "},"Ã":{"ha":913,"x_min":32,"x_max":910,"o":"m 685 1415 q 522 1226 667 1226 q 399 1260 479 1226 q 290 1294 319 1294 q 215 1225 239 1294 l 183 1225 q 340 1415 211 1415 q 457 1380 379 1415 q 576 1344 535 1344 q 657 1415 632 1344 l 685 1415 m 910 168 q 721 3 786 131 q 614 97 689 18 q 499 168 553 161 l 499 181 q 576 317 576 201 q 542 535 576 361 q 504 539 524 539 q 326 304 326 539 q 429 149 326 172 l 429 136 q 326 83 378 125 q 263 -10 269 36 q 163 68 231 68 q 99 47 128 68 q 71 -6 71 25 q 100 -58 71 -31 q 129 -89 129 -86 l 124 -93 q 58 -46 88 -93 q 32 36 32 -3 q 83 151 32 106 q 204 197 133 197 q 250 193 228 197 q 281 319 261 235 q 300 447 300 403 q 196 564 300 517 q 378 897 338 594 q 379 922 379 908 q 341 1021 379 978 q 247 1064 303 1064 q 170 1031 204 1064 q 136 957 136 999 q 156 901 136 924 q 204 878 175 878 q 224 881 210 878 q 240 883 238 883 q 249 881 246 883 q 190 858 236 858 q 125 891 150 858 q 100 968 100 924 q 165 1093 100 1044 q 303 1138 224 1138 q 488 1074 393 1138 q 631 989 590 1003 q 796 968 688 968 l 796 940 q 779 942 790 942 q 685 838 685 942 q 693 767 685 810 l 772 361 q 817 253 783 303 q 910 197 857 190 l 910 168 m 535 578 l 465 928 q 396 1060 449 1014 q 263 1100 343 1107 l 257 1099 q 301 1085 272 1094 q 343 1069 329 1075 q 421 924 421 1028 q 403 808 421 886 q 386 694 386 736 q 493 574 386 574 q 535 578 513 574 z "},"Ä":{"ha":913,"x_min":32,"x_max":910,"o":"m 696 1339 l 583 1226 l 469 1339 l 583 1453 l 696 1339 m 438 1339 l 325 1226 l 211 1339 l 325 1453 l 438 1339 m 910 168 q 721 3 786 131 q 614 97 689 18 q 499 168 553 161 l 499 181 q 576 317 576 201 q 542 535 576 361 q 504 539 524 539 q 326 304 326 539 q 429 149 326 172 l 429 136 q 326 83 378 125 q 263 -10 269 36 q 163 68 231 68 q 99 47 128 68 q 71 -6 71 25 q 100 -58 71 -31 q 129 -89 129 -86 l 124 -93 q 58 -46 88 -93 q 32 36 32 -3 q 83 151 32 106 q 204 197 133 197 q 250 193 228 197 q 281 319 261 235 q 300 447 300 403 q 196 564 300 517 q 378 897 338 594 q 379 922 379 908 q 341 1021 379 978 q 247 1064 303 1064 q 170 1031 204 1064 q 136 957 136 999 q 156 901 136 924 q 204 878 175 878 q 224 881 210 878 q 240 883 238 883 q 249 881 246 883 q 190 858 236 858 q 125 891 150 858 q 100 968 100 924 q 165 1093 100 1044 q 303 1138 224 1138 q 488 1074 393 1138 q 631 989 590 1003 q 796 968 688 968 l 796 940 q 779 942 790 942 q 685 838 685 942 q 693 767 685 810 l 772 361 q 817 253 783 303 q 910 197 857 190 l 910 168 m 535 578 l 465 928 q 396 1060 449 1014 q 263 1100 343 1107 l 257 1099 q 301 1085 272 1094 q 343 1069 329 1075 q 421 924 421 1028 q 403 808 421 886 q 386 694 386 736 q 493 574 386 574 q 535 578 513 574 z "},"Å":{"ha":913,"x_min":32,"x_max":910,"o":"m 582 1357 q 544 1265 582 1303 q 451 1226 506 1226 q 359 1265 397 1226 q 321 1357 321 1303 q 359 1449 321 1411 q 451 1488 397 1488 q 544 1449 506 1488 q 582 1357 582 1411 m 910 168 q 721 3 786 131 q 614 97 689 18 q 499 168 553 161 l 499 181 q 576 317 576 201 q 542 535 576 361 q 504 539 524 539 q 326 304 326 539 q 429 149 326 172 l 429 136 q 326 83 378 125 q 263 -10 269 36 q 163 68 231 68 q 99 47 128 68 q 71 -6 71 25 q 100 -58 71 -31 q 129 -89 129 -86 l 124 -93 q 58 -46 88 -93 q 32 36 32 -3 q 83 151 32 106 q 204 197 133 197 q 250 193 228 197 q 281 319 261 235 q 300 447 300 403 q 196 564 300 517 q 378 897 338 594 q 379 922 379 908 q 341 1021 379 978 q 247 1064 303 1064 q 170 1031 204 1064 q 136 957 136 999 q 156 901 136 924 q 204 878 175 878 q 224 881 210 878 q 240 883 238 883 q 249 881 246 883 q 190 858 236 858 q 125 891 150 858 q 100 968 100 924 q 165 1093 100 1044 q 303 1138 224 1138 q 488 1074 393 1138 q 631 989 590 1003 q 796 968 688 968 l 796 940 q 779 942 790 942 q 685 838 685 942 q 693 767 685 810 l 772 361 q 817 253 783 303 q 910 197 857 190 l 910 168 m 538 1357 q 513 1417 538 1392 q 451 1442 488 1442 q 390 1417 415 1442 q 365 1357 365 1392 q 391 1296 365 1321 q 451 1271 417 1271 q 512 1296 486 1271 q 538 1357 538 1321 m 535 578 l 465 928 q 396 1060 449 1014 q 263 1100 343 1107 l 257 1099 q 301 1085 272 1094 q 343 1069 329 1075 q 421 924 421 1028 q 403 808 421 886 q 386 694 386 736 q 493 574 386 574 q 535 578 513 574 z "},"Æ":{"ha":1631,"x_min":32,"x_max":1619,"o":"m 1619 969 q 1514 899 1560 964 q 1464 778 1476 846 q 1419 906 1449 864 q 1303 969 1382 957 l 1303 999 l 1308 999 q 1382 1017 1349 999 q 1422 1075 1422 1038 q 1379 1111 1422 1111 q 1274 968 1274 1111 l 1274 653 q 1344 666 1332 654 q 1357 733 1357 678 l 1399 733 l 1399 461 l 1357 461 q 1349 532 1357 515 q 1288 558 1336 558 l 1274 558 l 1274 342 l 1240 342 l 1240 954 q 1393 1156 1240 1156 q 1490 1115 1450 1156 q 1546 1042 1540 1047 q 1619 999 1585 999 l 1619 969 m 1619 151 q 1469 104 1517 129 q 1358 -4 1400 67 q 1153 72 1278 72 q 989 44 1057 72 q 894 -76 894 6 q 912 -131 894 -100 q 929 -160 929 -161 q 917 -168 929 -168 q 867 -133 886 -168 q 849 -71 849 -103 q 1018 140 849 63 q 1139 200 1119 188 q 1240 322 1206 246 l 1274 322 q 1428 207 1340 239 q 1619 181 1500 181 l 1619 151 m 1217 969 q 1157 785 1157 939 l 1158 379 q 1144 288 1158 319 q 910 174 1113 213 l 910 168 q 721 3 786 131 q 614 96 686 18 q 499 168 553 163 l 499 181 q 576 317 576 201 q 542 535 576 361 q 504 539 524 539 q 365 464 411 539 q 326 304 326 403 q 429 149 326 172 l 429 136 q 326 83 378 125 q 263 -10 269 36 q 163 68 231 68 q 99 47 128 68 q 71 -6 71 25 q 99 -59 71 -33 q 129 -89 128 -85 l 124 -93 q 58 -46 88 -93 q 32 36 32 -3 q 83 151 32 106 q 204 197 133 197 q 250 193 228 197 q 282 319 265 257 q 300 447 300 400 q 196 564 300 518 q 378 897 340 596 q 379 922 379 908 q 340 1021 379 978 q 247 1064 301 1064 q 170 1031 204 1064 q 136 957 136 999 q 156 901 136 924 q 204 878 175 878 q 224 881 210 878 q 240 883 238 883 q 249 881 246 883 q 190 858 232 858 q 125 893 150 858 q 100 968 100 924 q 165 1093 100 1044 q 303 1138 224 1138 q 475 1079 383 1138 q 631 989 599 1000 q 796 968 688 968 q 875 981 819 971 q 1042 1154 1001 1007 q 1217 999 1081 1022 l 1217 969 m 944 782 q 793 929 944 911 l 797 931 q 776 935 779 935 q 685 838 685 935 q 693 767 685 810 l 772 361 q 858 210 794 249 q 932 249 925 242 q 944 329 944 263 l 944 782 m 535 578 l 465 928 q 282 1100 431 1100 q 257 1099 267 1100 q 346 1067 297 1085 q 421 924 421 1028 q 403 808 421 886 q 386 694 386 736 q 493 574 386 574 q 535 578 513 574 z "},"Ç":{"ha":878,"x_min":4,"x_max":864,"o":"m 864 996 q 729 850 763 978 q 708 633 719 810 l 672 633 l 672 669 q 571 989 672 910 l 571 461 q 592 343 571 375 q 700 300 617 304 l 700 268 l 668 269 q 358 119 461 278 q 546 28 436 28 q 725 94 649 28 q 801 263 801 161 q 763 377 801 326 q 663 428 724 428 q 634 422 657 428 q 604 417 611 417 q 596 421 596 417 q 631 449 596 439 q 682 456 657 456 q 808 390 758 456 q 854 253 854 332 q 743 47 854 131 q 515 -31 640 -31 q 361 -4 435 -31 q 389 -79 389 -36 q 182 -219 389 -219 q 69 -210 122 -219 l 82 -183 q 149 -189 132 -189 q 222 -169 189 -189 q 263 -110 263 -147 q 229 -53 263 -74 q 161 -36 200 -36 q 125 -40 149 -36 l 181 21 q 271 39 231 42 q 76 243 149 115 q 4 515 4 371 q 146 917 4 733 q 510 1115 299 1115 q 539 1108 539 1115 q 490 1092 539 1101 q 278 908 332 1060 q 526 993 407 915 q 689 1194 653 1076 q 747 1079 715 1114 q 864 1028 788 1036 l 864 996 m 356 126 l 356 713 q 343 815 356 781 q 269 882 324 868 q 260 789 260 849 l 260 418 q 356 126 260 243 z "},"È":{"ha":833,"x_min":0,"x_max":826,"o":"m 417 1226 l 374 1226 l 165 1517 l 346 1517 l 417 1226 m 826 971 q 721 900 767 965 q 671 779 683 847 q 626 907 656 867 q 510 971 590 956 l 510 1000 l 515 1000 q 589 1018 554 1000 q 629 1076 629 1040 q 586 1113 629 1113 q 481 969 481 1113 l 481 654 q 551 667 539 656 q 564 735 564 679 l 606 735 l 606 463 l 564 463 q 554 532 564 514 q 494 560 540 560 l 481 560 l 481 343 l 447 343 l 447 956 q 600 1157 447 1157 q 697 1117 657 1157 q 751 1043 725 1079 q 826 1000 789 1000 l 826 971 m 424 971 q 360 733 360 938 q 363 601 360 689 q 367 469 367 514 q 346 300 367 349 q 197 169 321 240 q 10 79 156 146 l 10 99 q 124 199 96 151 q 151 346 151 247 l 151 560 q 78 539 92 558 q 68 463 68 526 l 26 463 l 26 742 l 68 742 q 76 674 68 686 q 140 654 90 654 l 151 654 l 151 824 q 0 971 151 953 l 0 1000 q 157 1029 114 1007 q 249 1156 221 1063 q 424 1000 288 1024 l 424 971 m 826 153 q 676 106 726 132 q 565 -3 607 69 q 360 74 485 74 q 196 46 264 74 q 101 -75 101 7 q 119 -131 101 -101 q 136 -158 136 -160 q 124 -167 136 -167 q 74 -132 93 -167 q 56 -69 56 -101 q 224 142 56 64 q 346 201 331 192 q 447 324 413 244 l 481 324 q 635 208 547 240 q 826 182 707 182 l 826 153 z "},"É":{"ha":833,"x_min":0,"x_max":826,"o":"m 676 1517 l 468 1226 l 425 1226 l 496 1517 l 676 1517 m 826 971 q 721 900 767 965 q 671 779 683 847 q 626 907 656 867 q 510 971 590 956 l 510 1000 l 515 1000 q 589 1018 554 1000 q 629 1076 629 1040 q 586 1113 629 1113 q 481 969 481 1113 l 481 654 q 551 667 539 656 q 564 735 564 679 l 606 735 l 606 463 l 564 463 q 554 532 564 514 q 494 560 540 560 l 481 560 l 481 343 l 447 343 l 447 956 q 600 1157 447 1157 q 697 1117 657 1157 q 751 1043 725 1079 q 826 1000 789 1000 l 826 971 m 424 971 q 360 733 360 938 q 363 601 360 689 q 367 469 367 514 q 346 300 367 349 q 197 169 321 240 q 10 79 156 146 l 10 99 q 124 199 96 151 q 151 346 151 247 l 151 560 q 78 539 92 558 q 68 463 68 526 l 26 463 l 26 742 l 68 742 q 76 674 68 686 q 140 654 90 654 l 151 654 l 151 824 q 0 971 151 953 l 0 1000 q 157 1029 114 1007 q 249 1156 221 1063 q 424 1000 288 1024 l 424 971 m 826 153 q 676 106 726 132 q 565 -3 607 69 q 360 74 485 74 q 196 46 264 74 q 101 -75 101 7 q 119 -131 101 -101 q 136 -158 136 -160 q 124 -167 136 -167 q 74 -132 93 -167 q 56 -69 56 -101 q 224 142 56 64 q 346 201 331 192 q 447 324 413 244 l 481 324 q 635 208 547 240 q 826 182 707 182 l 826 153 z "},"Ê":{"ha":833,"x_min":0,"x_max":826,"o":"m 657 1226 l 610 1226 l 428 1394 l 243 1226 l 197 1226 l 344 1518 l 513 1518 l 657 1226 m 826 971 q 721 900 767 965 q 671 779 683 847 q 626 907 656 867 q 510 971 590 956 l 510 1000 l 515 1000 q 589 1018 554 1000 q 629 1076 629 1040 q 586 1113 629 1113 q 481 969 481 1113 l 481 654 q 551 667 539 656 q 564 735 564 679 l 606 735 l 606 463 l 564 463 q 554 532 564 514 q 494 560 540 560 l 481 560 l 481 343 l 447 343 l 447 956 q 600 1157 447 1157 q 697 1117 657 1157 q 751 1043 725 1079 q 826 1000 789 1000 l 826 971 m 424 971 q 360 733 360 938 q 363 601 360 689 q 367 469 367 514 q 346 300 367 349 q 197 169 321 240 q 10 79 156 146 l 10 99 q 124 199 96 151 q 151 346 151 247 l 151 560 q 78 539 92 558 q 68 463 68 526 l 26 463 l 26 742 l 68 742 q 76 674 68 686 q 140 654 90 654 l 151 654 l 151 824 q 0 971 151 953 l 0 1000 q 157 1029 114 1007 q 249 1156 221 1063 q 424 1000 288 1024 l 424 971 m 826 153 q 676 106 726 132 q 565 -3 607 69 q 360 74 485 74 q 196 46 264 74 q 101 -75 101 7 q 119 -131 101 -101 q 136 -158 136 -160 q 124 -167 136 -167 q 74 -132 93 -167 q 56 -69 56 -101 q 224 142 56 64 q 346 201 331 192 q 447 324 413 244 l 481 324 q 635 208 547 240 q 826 182 707 182 l 826 153 z "},"Ë":{"ha":833,"x_min":0,"x_max":826,"o":"m 676 1339 l 564 1226 l 450 1339 l 564 1453 l 676 1339 m 418 1339 l 306 1226 l 192 1339 l 306 1453 l 418 1339 m 826 971 q 721 900 767 965 q 671 779 683 847 q 626 907 656 867 q 510 971 590 956 l 510 1000 l 515 1000 q 589 1018 554 1000 q 629 1076 629 1040 q 586 1113 629 1113 q 481 969 481 1113 l 481 654 q 551 667 539 656 q 564 735 564 679 l 606 735 l 606 463 l 564 463 q 554 532 564 514 q 494 560 540 560 l 481 560 l 481 343 l 447 343 l 447 956 q 600 1157 447 1157 q 697 1117 657 1157 q 751 1043 725 1079 q 826 1000 789 1000 l 826 971 m 424 971 q 360 733 360 938 q 363 601 360 689 q 367 469 367 514 q 346 300 367 349 q 197 169 321 240 q 10 79 156 146 l 10 99 q 124 199 96 151 q 151 346 151 247 l 151 560 q 78 539 92 558 q 68 463 68 526 l 26 463 l 26 742 l 68 742 q 76 674 68 686 q 140 654 90 654 l 151 654 l 151 824 q 0 971 151 953 l 0 1000 q 157 1029 114 1007 q 249 1156 221 1063 q 424 1000 288 1024 l 424 971 m 826 153 q 676 106 726 132 q 565 -3 607 69 q 360 74 485 74 q 196 46 264 74 q 101 -75 101 7 q 119 -131 101 -101 q 136 -158 136 -160 q 124 -167 136 -167 q 74 -132 93 -167 q 56 -69 56 -101 q 224 142 56 64 q 346 201 331 192 q 447 324 413 244 l 481 324 q 635 208 547 240 q 826 182 707 182 l 826 153 z "},"Ì":{"ha":631,"x_min":0,"x_max":617,"o":"m 267 1226 l 224 1226 l 15 1517 l 196 1517 l 267 1226 m 617 158 l 606 158 q 457 121 522 158 q 363 3 383 79 q 211 89 293 89 q 133 65 167 89 q 96 -3 96 39 q 105 -38 96 -11 q 114 -71 114 -65 q 107 -83 114 -83 q 68 -35 88 -83 q 51 32 51 7 q 117 165 51 114 q 260 217 175 213 l 260 961 q 228 1056 260 1019 q 142 1092 197 1092 q 69 1064 101 1092 q 36 999 36 1036 q 60 945 36 972 q 83 919 83 918 q 72 911 83 911 q 22 937 43 911 q 0 996 0 963 q 75 1114 0 1072 q 219 1149 136 1149 q 340 1113 278 1149 q 446 1040 393 1076 q 617 1006 514 1003 l 617 976 l 610 976 q 504 915 540 976 q 472 789 472 863 l 472 653 l 542 653 l 542 568 l 472 568 l 472 369 q 617 188 472 199 l 617 158 m 174 226 q 139 211 158 221 l 139 565 q 115 567 131 567 q 63 536 72 567 q 58 468 58 524 l 22 468 l 22 743 l 58 743 q 65 681 58 696 q 121 660 75 660 l 139 660 l 139 1067 q 174 1063 160 1067 l 174 226 z "},"Í":{"ha":631,"x_min":0,"x_max":617,"o":"m 501 1517 l 293 1226 l 250 1226 l 321 1517 l 501 1517 m 617 158 l 606 158 q 457 121 522 158 q 363 3 383 79 q 211 89 293 89 q 133 65 167 89 q 96 -3 96 39 q 105 -38 96 -11 q 114 -71 114 -65 q 107 -83 114 -83 q 68 -35 88 -83 q 51 32 51 7 q 117 165 51 114 q 260 217 175 213 l 260 961 q 228 1056 260 1019 q 142 1092 197 1092 q 69 1064 101 1092 q 36 999 36 1036 q 60 945 36 972 q 83 919 83 918 q 72 911 83 911 q 22 937 43 911 q 0 996 0 963 q 75 1114 0 1072 q 219 1149 136 1149 q 340 1113 278 1149 q 446 1040 393 1076 q 617 1006 514 1003 l 617 976 l 610 976 q 504 915 540 976 q 472 789 472 863 l 472 653 l 542 653 l 542 568 l 472 568 l 472 369 q 617 188 472 199 l 617 158 m 174 226 q 139 211 158 221 l 139 565 q 115 567 131 567 q 63 536 72 567 q 58 468 58 524 l 22 468 l 22 743 l 58 743 q 65 681 58 696 q 121 660 75 660 l 139 660 l 139 1067 q 174 1063 160 1067 l 174 226 z "},"Î":{"ha":631,"x_min":0,"x_max":617,"o":"m 544 1226 l 497 1226 l 315 1394 l 131 1226 l 85 1226 l 232 1518 l 400 1518 l 544 1226 m 617 158 l 606 158 q 457 121 522 158 q 363 3 383 79 q 211 89 293 89 q 133 65 167 89 q 96 -3 96 39 q 105 -38 96 -11 q 114 -71 114 -65 q 107 -83 114 -83 q 68 -35 88 -83 q 51 32 51 7 q 117 165 51 114 q 260 217 175 213 l 260 961 q 228 1056 260 1019 q 142 1092 197 1092 q 69 1064 101 1092 q 36 999 36 1036 q 60 945 36 972 q 83 919 83 918 q 72 911 83 911 q 22 937 43 911 q 0 996 0 963 q 75 1114 0 1072 q 219 1149 136 1149 q 340 1113 278 1149 q 446 1040 393 1076 q 617 1006 514 1003 l 617 976 l 610 976 q 504 915 540 976 q 472 789 472 863 l 472 653 l 542 653 l 542 568 l 472 568 l 472 369 q 617 188 472 199 l 617 158 m 174 226 q 139 211 158 221 l 139 565 q 115 567 131 567 q 63 536 72 567 q 58 468 58 524 l 22 468 l 22 743 l 58 743 q 65 681 58 696 q 121 660 75 660 l 139 660 l 139 1067 q 174 1063 160 1067 l 174 226 z "},"Ï":{"ha":631,"x_min":0,"x_max":617,"o":"m 549 1339 l 436 1226 l 322 1339 l 436 1453 l 549 1339 m 290 1339 l 178 1226 l 64 1339 l 178 1453 l 290 1339 m 617 158 l 606 158 q 457 121 522 158 q 363 3 383 79 q 211 89 293 89 q 133 65 167 89 q 96 -3 96 39 q 105 -38 96 -11 q 114 -71 114 -65 q 107 -83 114 -83 q 68 -35 88 -83 q 51 32 51 7 q 117 165 51 114 q 260 217 175 213 l 260 961 q 228 1056 260 1019 q 142 1092 197 1092 q 69 1064 101 1092 q 36 999 36 1036 q 60 945 36 972 q 83 919 83 918 q 72 911 83 911 q 22 937 43 911 q 0 996 0 963 q 75 1114 0 1072 q 219 1149 136 1149 q 340 1113 278 1149 q 446 1040 393 1076 q 617 1006 514 1003 l 617 976 l 610 976 q 504 915 540 976 q 472 789 472 863 l 472 653 l 542 653 l 542 568 l 472 568 l 472 369 q 617 188 472 199 l 617 158 m 174 226 q 139 211 158 221 l 139 565 q 115 567 131 567 q 63 536 72 567 q 58 468 58 524 l 22 468 l 22 743 l 58 743 q 65 681 58 696 q 121 660 75 660 l 139 660 l 139 1067 q 174 1063 160 1067 l 174 226 z "},"Ð":{"ha":907,"x_min":10,"x_max":896,"o":"m 896 944 q 767 754 767 938 l 767 304 q 860 64 767 157 l 832 42 q 564 157 708 157 q 319 3 397 157 q 172 96 260 96 q 97 74 132 96 q 57 11 57 49 q 90 -50 57 -32 q 101 -61 101 -56 q 89 -69 101 -69 q 35 -32 54 -69 q 18 36 18 -1 q 206 213 18 183 l 206 526 l 75 526 l 75 640 l 206 640 l 206 725 q 189 815 206 786 q 115 868 169 851 l 115 896 q 310 1086 250 924 q 519 897 353 935 l 519 868 q 419 781 436 842 q 413 640 413 756 l 522 640 l 522 526 l 411 526 l 411 357 q 432 231 411 267 q 543 183 460 183 l 567 183 l 567 817 q 496 1024 567 940 q 303 1108 425 1108 q 132 1057 204 1108 q 51 906 51 1000 q 108 806 51 833 q 144 779 144 789 q 135 774 144 774 q 45 816 81 774 q 10 917 10 858 q 121 1094 10 1025 q 332 1154 218 1154 q 532 1107 444 1154 q 685 1019 582 1076 q 896 974 775 971 l 896 944 z "},"Ñ":{"ha":921,"x_min":0,"x_max":896,"o":"m 726 1415 q 564 1226 708 1226 q 441 1260 521 1226 q 332 1294 361 1294 q 257 1225 281 1294 l 225 1225 q 382 1415 253 1415 q 499 1380 421 1415 q 618 1344 576 1344 q 699 1415 674 1344 l 726 1415 m 896 143 q 762 95 819 140 q 686 -22 704 50 q 675 -24 682 -24 q 606 17 646 -24 l 528 94 q 415 143 475 136 l 415 172 q 482 240 482 172 q 463 336 482 279 l 271 904 l 271 335 q 301 229 271 279 q 390 174 338 174 l 390 143 q 233 -1 269 118 q 124 68 197 68 q 71 54 96 68 q 46 14 46 40 q 63 -24 46 -3 q 79 -49 79 -46 q 65 -60 79 -60 q 19 -21 39 -60 q 3 43 3 13 q 74 174 3 125 q 222 219 135 215 l 222 539 q 207 540 218 540 q 146 513 161 540 q 136 442 136 494 l 103 442 l 103 713 l 136 713 q 151 644 136 657 q 222 631 165 631 l 222 914 q 138 1054 222 1054 q 67 1029 99 1054 q 35 969 35 1004 q 58 920 35 944 q 82 896 82 896 q 71 888 82 888 q 21 913 42 888 q 0 972 0 939 q 65 1086 0 1046 q 199 1121 121 1121 q 303 1085 257 1121 q 389 1018 344 1053 q 560 983 456 982 l 560 954 q 510 897 510 954 q 535 763 510 829 l 722 263 l 722 750 q 692 875 722 821 q 594 954 657 938 l 594 983 q 744 1124 721 997 q 896 983 764 1004 l 896 954 q 796 879 829 944 q 768 753 768 826 l 768 346 q 896 174 768 206 l 896 143 z "},"Ò":{"ha":847,"x_min":4,"x_max":814,"o":"m 476 1226 l 433 1226 l 225 1517 l 406 1517 l 476 1226 m 814 135 q 626 90 704 135 q 514 8 569 50 q 385 -35 446 -35 q 122 158 250 -35 q 4 481 4 336 q 124 818 4 644 q 383 1071 229 971 q 401 1078 394 1078 q 411 1071 411 1078 q 403 1058 411 1065 q 253 753 253 924 l 253 231 q 400 8 253 8 q 499 214 499 8 l 499 775 q 432 899 499 899 q 294 817 381 899 l 279 838 q 560 1156 518 1029 q 663 1039 581 1088 q 814 988 736 994 l 814 957 q 715 763 715 942 l 715 286 q 814 164 715 172 l 814 135 m 397 33 q 361 38 381 33 l 361 840 q 397 864 378 853 l 397 33 z "},"Ó":{"ha":847,"x_min":4,"x_max":814,"o":"m 728 1517 l 519 1226 l 476 1226 l 547 1517 l 728 1517 m 814 135 q 626 90 704 135 q 514 8 569 50 q 385 -35 446 -35 q 122 158 250 -35 q 4 481 4 336 q 124 818 4 644 q 383 1071 229 971 q 401 1078 394 1078 q 411 1071 411 1078 q 403 1058 411 1065 q 253 753 253 924 l 253 231 q 400 8 253 8 q 499 214 499 8 l 499 775 q 432 899 499 899 q 294 817 381 899 l 279 838 q 560 1156 518 1029 q 663 1039 581 1088 q 814 988 736 994 l 814 957 q 715 763 715 942 l 715 286 q 814 164 715 172 l 814 135 m 397 33 q 361 38 381 33 l 361 840 q 397 864 378 853 l 397 33 z "},"Ô":{"ha":847,"x_min":4,"x_max":814,"o":"m 657 1226 l 610 1226 l 428 1394 l 243 1226 l 197 1226 l 344 1518 l 513 1518 l 657 1226 m 814 135 q 626 90 704 135 q 514 8 569 50 q 385 -35 446 -35 q 122 158 250 -35 q 4 481 4 336 q 124 818 4 644 q 383 1071 229 971 q 401 1078 394 1078 q 411 1071 411 1078 q 403 1058 411 1065 q 253 753 253 924 l 253 231 q 400 8 253 8 q 499 214 499 8 l 499 775 q 432 899 499 899 q 294 817 381 899 l 279 838 q 560 1156 518 1029 q 663 1039 581 1088 q 814 988 736 994 l 814 957 q 715 763 715 942 l 715 286 q 814 164 715 172 l 814 135 m 397 33 q 361 38 381 33 l 361 840 q 397 864 378 853 l 397 33 z "},"Õ":{"ha":847,"x_min":4,"x_max":814,"o":"m 685 1415 q 522 1226 667 1226 q 399 1260 479 1226 q 290 1294 319 1294 q 215 1225 239 1294 l 183 1225 q 340 1415 211 1415 q 457 1380 379 1415 q 576 1344 535 1344 q 657 1415 632 1344 l 685 1415 m 814 135 q 626 90 704 135 q 514 8 569 50 q 385 -35 446 -35 q 122 158 250 -35 q 4 481 4 336 q 124 818 4 644 q 383 1071 229 971 q 401 1078 394 1078 q 411 1071 411 1078 q 403 1058 411 1065 q 253 753 253 924 l 253 231 q 400 8 253 8 q 499 214 499 8 l 499 775 q 432 899 499 899 q 294 817 381 899 l 279 838 q 560 1156 518 1029 q 663 1039 581 1088 q 814 988 736 994 l 814 957 q 715 763 715 942 l 715 286 q 814 164 715 172 l 814 135 m 397 33 q 361 38 381 33 l 361 840 q 397 864 378 853 l 397 33 z "},"Ö":{"ha":847,"x_min":4,"x_max":814,"o":"m 676 1339 l 564 1226 l 450 1339 l 564 1453 l 676 1339 m 418 1339 l 306 1226 l 192 1339 l 306 1453 l 418 1339 m 814 135 q 626 90 704 135 q 514 8 569 50 q 385 -35 446 -35 q 122 158 250 -35 q 4 481 4 336 q 124 818 4 644 q 383 1071 229 971 q 401 1078 394 1078 q 411 1071 411 1078 q 403 1058 411 1065 q 253 753 253 924 l 253 231 q 400 8 253 8 q 499 214 499 8 l 499 775 q 432 899 499 899 q 294 817 381 899 l 279 838 q 560 1156 518 1029 q 663 1039 581 1088 q 814 988 736 994 l 814 957 q 715 763 715 942 l 715 286 q 814 164 715 172 l 814 135 m 397 33 q 361 38 381 33 l 361 840 q 397 864 378 853 l 397 33 z "},"×":{"ha":1065,"x_min":131,"x_max":936,"o":"m 936 824 l 636 522 l 933 224 l 832 122 l 533 421 l 233 122 l 132 224 l 432 522 l 131 825 l 232 926 l 533 624 l 835 926 l 936 824 z "},"Ø":{"ha":847,"x_min":4,"x_max":814,"o":"m 499 669 l 253 260 l 253 231 q 400 8 253 8 q 499 214 499 8 l 499 669 m 79 -33 q 58 -33 74 -32 q 38 -31 44 -35 l 136 138 q 46 300 82 213 q 4 481 4 401 q 124 818 4 644 q 383 1071 229 971 q 401 1078 394 1078 q 411 1071 411 1078 q 403 1058 411 1065 q 253 753 253 924 l 253 331 l 499 739 l 499 775 q 432 899 499 899 q 294 817 381 899 l 279 838 q 560 1156 518 1029 q 675 1032 582 1083 l 744 1153 q 788 1154 760 1154 l 707 1015 q 814 988 765 992 l 814 957 q 715 763 715 942 l 715 286 q 814 164 715 172 l 814 135 q 626 90 704 135 q 514 8 569 50 q 385 -35 446 -35 q 160 106 272 -35 l 79 -33 z "},"Ù":{"ha":956,"x_min":-21,"x_max":931,"o":"m 554 1226 l 511 1226 l 303 1517 l 483 1517 l 554 1226 m 582 50 l 571 50 q 551 54 563 50 l 551 939 l 582 939 l 582 50 m 931 972 q 832 896 865 961 q 804 769 804 843 l 804 582 q 919 247 804 329 q 789 42 893 117 q 554 -31 690 -31 q 390 21 453 -31 q 285 114 347 56 q 106 160 217 163 l 106 190 q 224 253 196 193 q 243 393 243 296 l 243 547 q 222 549 236 549 q 151 481 151 549 q 153 447 151 463 l 117 447 l 117 731 l 153 731 q 151 689 151 707 q 243 640 151 639 l 243 960 q 211 1055 243 1019 q 122 1090 179 1090 q 48 1062 81 1090 q 15 996 15 1033 q 40 940 15 967 q 64 914 64 914 q 53 906 64 906 q 1 933 22 906 q -21 992 -21 961 q 54 1113 -21 1069 q 199 1149 118 1149 q 313 1110 267 1149 q 397 1038 340 1086 q 563 1003 457 1000 l 563 972 q 457 788 457 978 l 457 326 q 513 46 457 90 q 592 24 540 24 l 601 24 q 713 83 679 24 q 744 213 736 124 q 751 371 751 286 l 751 767 q 621 972 751 953 l 621 1003 q 776 1142 758 1017 q 825 1045 794 1071 q 931 1003 856 1019 l 931 972 z "},"Ú":{"ha":956,"x_min":-21,"x_max":931,"o":"m 775 1517 l 567 1226 l 524 1226 l 594 1517 l 775 1517 m 582 50 l 571 50 q 551 54 563 50 l 551 939 l 582 939 l 582 50 m 931 972 q 832 896 865 961 q 804 769 804 843 l 804 582 q 919 247 804 329 q 789 42 893 117 q 554 -31 690 -31 q 390 21 453 -31 q 285 114 347 56 q 106 160 217 163 l 106 190 q 224 253 196 193 q 243 393 243 296 l 243 547 q 222 549 236 549 q 151 481 151 549 q 153 447 151 463 l 117 447 l 117 731 l 153 731 q 151 689 151 707 q 243 640 151 639 l 243 960 q 211 1055 243 1019 q 122 1090 179 1090 q 48 1062 81 1090 q 15 996 15 1033 q 40 940 15 967 q 64 914 64 914 q 53 906 64 906 q 1 933 22 906 q -21 992 -21 961 q 54 1113 -21 1069 q 199 1149 118 1149 q 313 1110 267 1149 q 397 1038 340 1086 q 563 1003 457 1000 l 563 972 q 457 788 457 978 l 457 326 q 513 46 457 90 q 592 24 540 24 l 601 24 q 713 83 679 24 q 744 213 736 124 q 751 371 751 286 l 751 767 q 621 972 751 953 l 621 1003 q 776 1142 758 1017 q 825 1045 794 1071 q 931 1003 856 1019 l 931 972 z "},"Û":{"ha":956,"x_min":-21,"x_max":931,"o":"m 757 1226 l 710 1226 l 528 1394 l 343 1226 l 297 1226 l 444 1518 l 613 1518 l 757 1226 m 582 50 l 571 50 q 551 54 563 50 l 551 939 l 582 939 l 582 50 m 931 972 q 832 896 865 961 q 804 769 804 843 l 804 582 q 919 247 804 329 q 789 42 893 117 q 554 -31 690 -31 q 390 21 453 -31 q 285 114 347 56 q 106 160 217 163 l 106 190 q 224 253 196 193 q 243 393 243 296 l 243 547 q 222 549 236 549 q 151 481 151 549 q 153 447 151 463 l 117 447 l 117 731 l 153 731 q 151 689 151 707 q 243 640 151 639 l 243 960 q 211 1055 243 1019 q 122 1090 179 1090 q 48 1062 81 1090 q 15 996 15 1033 q 40 940 15 967 q 64 914 64 914 q 53 906 64 906 q 1 933 22 906 q -21 992 -21 961 q 54 1113 -21 1069 q 199 1149 118 1149 q 313 1110 267 1149 q 397 1038 340 1086 q 563 1003 457 1000 l 563 972 q 457 788 457 978 l 457 326 q 513 46 457 90 q 592 24 540 24 l 601 24 q 713 83 679 24 q 744 213 736 124 q 751 371 751 286 l 751 767 q 621 972 751 953 l 621 1003 q 776 1142 758 1017 q 825 1045 794 1071 q 931 1003 856 1019 l 931 972 z "},"Ü":{"ha":956,"x_min":-21,"x_max":931,"o":"m 793 1339 l 681 1226 l 567 1339 l 681 1453 l 793 1339 m 535 1339 l 422 1226 l 308 1339 l 422 1453 l 535 1339 m 582 50 l 571 50 q 551 54 563 50 l 551 939 l 582 939 l 582 50 m 931 972 q 832 896 865 961 q 804 769 804 843 l 804 582 q 919 247 804 329 q 789 42 893 117 q 554 -31 690 -31 q 390 21 453 -31 q 285 114 347 56 q 106 160 217 163 l 106 190 q 224 253 196 193 q 243 393 243 296 l 243 547 q 222 549 236 549 q 151 481 151 549 q 153 447 151 463 l 117 447 l 117 731 l 153 731 q 151 689 151 707 q 243 640 151 639 l 243 960 q 211 1055 243 1019 q 122 1090 179 1090 q 48 1062 81 1090 q 15 996 15 1033 q 40 940 15 967 q 64 914 64 914 q 53 906 64 906 q 1 933 22 906 q -21 992 -21 961 q 54 1113 -21 1069 q 199 1149 118 1149 q 313 1110 267 1149 q 397 1038 340 1086 q 563 1003 457 1000 l 563 972 q 457 788 457 978 l 457 326 q 513 46 457 90 q 592 24 540 24 l 601 24 q 713 83 679 24 q 744 213 736 124 q 751 371 751 286 l 751 767 q 621 972 751 953 l 621 1003 q 776 1142 758 1017 q 825 1045 794 1071 q 931 1003 856 1019 l 931 972 z "},"Ý":{"ha":819,"x_min":-36,"x_max":817,"o":"m 719 1517 l 511 1226 l 468 1226 l 539 1517 l 719 1517 m 817 965 q 658 775 718 938 q 628 701 647 750 q 610 621 610 651 q 658 561 610 581 q 579 501 600 547 q 563 400 563 467 q 578 251 563 281 q 708 197 603 203 l 708 168 q 561 119 628 161 q 461 3 486 74 q 315 88 407 88 q 201 -4 201 88 q 235 -60 201 -49 q 251 -72 251 -65 q 236 -81 251 -81 q 174 -40 197 -81 q 153 36 153 -6 q 215 165 153 111 q 350 226 271 214 l 350 407 q 271 550 350 550 q 210 521 222 550 q 203 450 203 504 l 168 450 l 168 718 l 203 718 l 203 690 q 253 640 203 640 l 286 640 l 172 933 q 71 1069 119 1069 q 24 1044 46 1069 q 1 993 1 1018 q 24 943 1 968 q 47 919 47 918 q 36 911 47 911 q -15 937 7 911 q -36 996 -36 963 q 28 1110 -36 1068 q 160 1146 85 1146 q 260 1106 221 1146 l 332 1031 q 494 994 386 992 l 494 965 q 415 872 415 964 q 428 789 415 819 l 526 550 l 611 772 q 624 833 624 806 q 594 916 624 879 q 518 965 564 953 l 518 994 q 667 1147 646 1011 q 714 1045 679 1081 q 817 994 749 1010 l 817 965 z "},"Þ":{"ha":947,"x_min":-1,"x_max":943,"o":"m 943 492 l 942 464 q 807 400 863 464 q 744 260 757 343 q 631 407 729 357 q 442 449 550 449 l 413 449 l 410 347 q 531 206 410 214 l 531 176 q 399 115 465 169 q 319 -1 332 61 q 172 88 260 88 q 100 63 129 88 q 71 -1 71 39 q 103 -54 71 -40 q 118 -67 118 -61 q 103 -76 118 -76 q 42 -36 65 -76 q 22 38 22 -3 q 206 206 22 176 l 207 618 q 186 713 207 679 q 108 760 165 747 q 235 822 196 785 q 304 943 275 858 q 388 822 328 876 q 518 761 453 761 q 411 618 411 728 l 411 488 q 440 486 421 486 q 639 717 639 486 q 531 914 639 833 q 310 988 431 988 q 129 938 206 988 q 40 781 40 881 q 59 708 40 750 q 78 663 78 667 l 74 657 q 17 708 39 665 q -1 786 -1 746 q 113 972 -1 903 q 333 1031 210 1031 q 664 938 488 1031 q 892 881 772 881 q 942 882 924 881 l 942 853 q 847 782 868 849 q 838 654 838 751 q 854 547 838 582 q 943 492 878 499 z "},"ß":{"ha":774,"x_min":0,"x_max":719,"o":"m 719 256 q 683 146 719 189 q 596 88 653 110 q 486 47 560 75 q 350 6 421 29 q 321 -49 321 -19 q 340 -89 321 -72 q 383 -106 358 -106 q 413 -101 390 -106 q 440 -97 435 -97 q 468 -121 468 -97 q 429 -142 468 -142 q 338 -119 378 -142 q 290 -44 290 -92 q 350 47 290 7 q 461 121 388 71 q 522 226 522 165 q 478 313 522 276 q 389 369 421 369 q 317 358 339 369 q 263 317 311 357 q 339 225 264 315 q 435 172 382 172 q 456 174 449 172 l 456 163 q 219 0 296 164 q 135 106 192 58 q 14 169 78 153 q 79 224 56 178 q 99 310 99 261 l 99 622 l 3 622 l 3 672 l 99 672 l 99 708 q 100 744 100 724 q 0 939 100 894 q 164 982 90 939 q 268 1111 247 1029 q 507 950 333 990 q 390 749 390 899 q 381 747 389 747 l 344 747 q 281 889 342 822 q 142 956 215 958 q 250 822 226 900 q 263 649 264 774 l 469 768 q 553 699 497 744 q 650 646 621 646 q 665 642 650 646 q 685 640 679 638 l 700 614 l 463 454 q 469 453 469 454 q 465 448 469 449 q 461 442 461 447 q 565 429 517 439 q 649 393 614 419 q 719 256 719 339 m 513 535 l 358 660 l 264 607 l 264 365 l 513 535 z "},"à":{"ha":624,"x_min":0,"x_max":593,"o":"m 301 819 l 258 819 l 50 1110 l 231 1110 l 301 819 m 593 160 q 504 93 535 128 q 446 0 479 65 q 293 140 368 140 q 139 0 217 140 q 85 93 99 75 q 0 160 54 131 q 72 290 72 182 q 31 406 72 367 q 110 385 75 385 q 203 422 151 385 q 281 460 254 460 q 360 421 317 460 l 360 518 q 340 574 360 549 q 292 600 319 600 q 139 460 217 600 q 85 551 100 532 q 0 617 57 588 q 88 683 61 646 q 139 782 104 707 q 293 626 211 626 q 446 782 374 626 q 501 683 476 714 q 593 617 532 649 q 539 567 560 601 q 518 494 518 532 l 518 307 q 529 219 518 247 q 593 160 543 183 m 360 278 l 360 365 q 289 424 338 424 q 226 297 226 424 q 233 214 226 238 q 292 168 247 168 q 360 278 360 168 z "},"á":{"ha":624,"x_min":0,"x_max":593,"o":"m 526 1110 l 318 819 l 275 819 l 346 1110 l 526 1110 m 593 160 q 504 93 535 128 q 446 0 479 65 q 293 140 368 140 q 139 0 217 140 q 85 93 99 75 q 0 160 54 131 q 72 290 72 182 q 31 406 72 367 q 110 385 75 385 q 203 422 151 385 q 281 460 254 460 q 360 421 317 460 l 360 518 q 340 574 360 549 q 292 600 319 600 q 139 460 217 600 q 85 551 100 532 q 0 617 57 588 q 88 683 61 646 q 139 782 104 707 q 293 626 211 626 q 446 782 374 626 q 501 683 476 714 q 593 617 532 649 q 539 567 560 601 q 518 494 518 532 l 518 307 q 529 219 518 247 q 593 160 543 183 m 360 278 l 360 365 q 289 424 338 424 q 226 297 226 424 q 233 214 226 238 q 292 168 247 168 q 360 278 360 168 z "},"â":{"ha":624,"x_min":0,"x_max":593,"o":"m 513 819 l 465 819 l 283 988 l 99 819 l 53 819 l 200 1111 l 368 1111 l 513 819 m 593 160 q 504 93 535 128 q 446 0 479 65 q 293 140 368 140 q 139 0 217 140 q 85 93 99 75 q 0 160 54 131 q 72 290 72 182 q 31 406 72 367 q 110 385 75 385 q 203 422 151 385 q 281 460 254 460 q 360 421 317 460 l 360 518 q 340 574 360 549 q 292 600 319 600 q 139 460 217 600 q 85 551 100 532 q 0 617 57 588 q 88 683 61 646 q 139 782 104 707 q 293 626 211 626 q 446 782 374 626 q 501 683 476 714 q 593 617 532 649 q 539 567 560 601 q 518 494 518 532 l 518 307 q 529 219 518 247 q 593 160 543 183 m 360 278 l 360 365 q 289 424 338 424 q 226 297 226 424 q 233 214 226 238 q 292 168 247 168 q 360 278 360 168 z "},"ã":{"ha":624,"x_min":0,"x_max":593,"o":"m 550 1056 q 388 867 532 867 q 265 901 344 867 q 156 935 185 935 q 81 865 104 935 l 49 865 q 206 1056 76 1056 q 322 1020 244 1056 q 442 985 400 985 q 522 1056 497 985 l 550 1056 m 593 160 q 504 93 535 128 q 446 0 479 65 q 293 140 368 140 q 139 0 217 140 q 85 93 99 75 q 0 160 54 131 q 72 290 72 182 q 31 406 72 367 q 110 385 75 385 q 203 422 151 385 q 281 460 254 460 q 360 421 317 460 l 360 518 q 340 574 360 549 q 292 600 319 600 q 139 460 217 600 q 85 551 100 532 q 0 617 57 588 q 88 683 61 646 q 139 782 104 707 q 293 626 211 626 q 446 782 374 626 q 501 683 476 714 q 593 617 532 649 q 539 567 560 601 q 518 494 518 532 l 518 307 q 529 219 518 247 q 593 160 543 183 m 360 278 l 360 365 q 289 424 338 424 q 226 297 226 424 q 233 214 226 238 q 292 168 247 168 q 360 278 360 168 z "},"ä":{"ha":624,"x_min":0,"x_max":593,"o":"m 536 997 l 424 885 l 310 997 l 424 1111 l 536 997 m 278 997 l 165 885 l 51 997 l 165 1111 l 278 997 m 593 160 q 504 93 535 128 q 446 0 479 65 q 293 140 368 140 q 139 0 217 140 q 85 93 99 75 q 0 160 54 131 q 72 290 72 182 q 31 406 72 367 q 110 385 75 385 q 203 422 151 385 q 281 460 254 460 q 360 421 317 460 l 360 518 q 340 574 360 549 q 292 600 319 600 q 139 460 217 600 q 85 551 100 532 q 0 617 57 588 q 88 683 61 646 q 139 782 104 707 q 293 626 211 626 q 446 782 374 626 q 501 683 476 714 q 593 617 532 649 q 539 567 560 601 q 518 494 518 532 l 518 307 q 529 219 518 247 q 593 160 543 183 m 360 278 l 360 365 q 289 424 338 424 q 226 297 226 424 q 233 214 226 238 q 292 168 247 168 q 360 278 360 168 z "},"å":{"ha":624,"x_min":0,"x_max":593,"o":"m 428 981 q 390 888 428 926 q 297 850 351 850 q 205 888 243 850 q 167 981 167 926 q 205 1074 167 1036 q 297 1111 243 1111 q 390 1074 351 1111 q 428 981 428 1036 m 593 160 q 504 93 535 128 q 446 0 479 65 q 293 140 368 140 q 139 0 217 140 q 85 93 99 75 q 0 160 54 131 q 72 290 72 182 q 31 406 72 367 q 110 385 75 385 q 203 422 151 385 q 281 460 254 460 q 360 421 317 460 l 360 518 q 340 574 360 549 q 292 600 319 600 q 139 460 217 600 q 85 551 100 532 q 0 617 57 588 q 88 683 61 646 q 139 782 104 707 q 293 626 211 626 q 446 782 374 626 q 501 683 476 714 q 593 617 532 649 q 539 567 560 601 q 518 494 518 532 l 518 307 q 529 219 518 247 q 593 160 543 183 m 383 981 q 358 1041 383 1017 q 297 1065 333 1065 q 236 1041 261 1065 q 211 981 211 1017 q 237 920 211 946 q 297 894 263 894 q 358 920 332 894 q 383 981 383 946 m 360 278 l 360 365 q 289 424 338 424 q 226 297 226 424 q 233 214 226 238 q 292 168 247 168 q 360 278 360 168 z "},"æ":{"ha":806,"x_min":0,"x_max":792,"o":"m 792 158 q 651 104 721 151 q 547 -7 581 57 q 483 65 525 32 q 446 0 474 50 q 293 140 368 140 q 139 0 217 140 q 85 93 99 75 q 0 160 54 131 q 72 290 72 182 q 31 406 72 367 q 110 385 75 385 q 203 422 151 385 q 281 460 254 460 q 360 421 317 460 l 360 479 q 340 544 360 508 q 293 600 319 579 l 292 600 q 139 460 215 600 q 85 551 100 532 q 0 617 57 588 q 88 683 61 646 q 139 782 104 707 q 293 626 211 626 q 446 782 374 626 q 515 667 481 701 q 638 775 594 710 q 699 678 671 711 q 792 611 733 638 q 739 510 757 581 q 694 404 719 432 q 521 317 646 349 l 519 293 q 615 171 514 200 q 792 158 667 157 m 642 467 q 568 600 642 532 q 521 521 521 561 l 521 349 q 605 389 568 358 q 642 467 642 419 m 360 278 l 360 365 q 289 424 338 424 q 226 297 226 424 q 292 168 226 161 l 301 168 q 360 278 360 208 z "},"ç":{"ha":531,"x_min":0,"x_max":515,"o":"m 515 165 q 281 10 444 163 q 319 -76 319 -24 q 113 -217 319 -217 q 0 -207 53 -217 l 13 -181 q 79 -186 63 -186 q 153 -167 119 -186 q 193 -107 193 -144 q 160 -50 193 -71 q 92 -33 131 -33 q 56 -37 79 -33 l 111 24 q 190 43 161 43 q 243 33 222 43 q 131 117 199 76 q 1 165 54 163 q 64 219 40 168 q 85 307 85 263 l 85 463 q 0 617 85 569 q 361 781 251 617 q 422 683 397 713 q 515 617 454 646 q 428 499 467 593 q 389 350 400 432 l 386 350 q 349 517 375 444 q 244 628 306 632 l 244 318 q 515 165 244 165 z "},"è":{"ha":532,"x_min":0,"x_max":515,"o":"m 301 819 l 258 819 l 50 1110 l 231 1110 l 301 819 m 515 165 q 376 111 444 158 q 271 0 307 64 q 156 108 236 61 q 6 165 83 151 q 85 285 85 201 l 85 463 q 0 618 85 571 q 201 657 108 618 q 361 782 304 700 q 422 685 394 718 q 515 618 457 644 q 463 517 481 588 q 418 411 443 439 q 244 324 369 356 l 243 300 q 339 178 238 207 q 515 165 390 164 m 365 474 q 324 572 365 514 q 244 629 282 629 l 244 356 q 328 396 292 365 q 365 474 365 426 z "},"é":{"ha":532,"x_min":0,"x_max":515,"o":"m 465 1110 l 257 819 l 214 819 l 285 1110 l 465 1110 m 515 165 q 376 111 444 158 q 271 0 307 64 q 156 108 236 61 q 6 165 83 151 q 85 285 85 201 l 85 463 q 0 618 85 571 q 201 657 108 618 q 361 782 304 700 q 422 685 394 718 q 515 618 457 644 q 463 517 481 588 q 418 411 443 439 q 244 324 369 356 l 243 300 q 339 178 238 207 q 515 165 390 164 m 365 474 q 324 572 365 514 q 244 629 282 629 l 244 356 q 328 396 292 365 q 365 474 365 426 z "},"ê":{"ha":532,"x_min":0,"x_max":515,"o":"m 493 819 l 446 819 l 264 988 l 79 819 l 33 819 l 181 1111 l 349 1111 l 493 819 m 515 165 q 376 111 444 158 q 271 0 307 64 q 156 108 236 61 q 6 165 83 151 q 85 285 85 201 l 85 463 q 0 618 85 571 q 201 657 108 618 q 361 782 304 700 q 422 685 394 718 q 515 618 457 644 q 463 517 481 588 q 418 411 443 439 q 244 324 369 356 l 243 300 q 339 178 238 207 q 515 165 390 164 m 365 474 q 324 572 365 514 q 244 629 282 629 l 244 356 q 328 396 292 365 q 365 474 365 426 z "},"ë":{"ha":532,"x_min":0,"x_max":515,"o":"m 506 997 l 393 885 l 279 997 l 393 1111 l 506 997 m 247 997 l 135 885 l 21 997 l 135 1111 l 247 997 m 515 165 q 376 111 444 158 q 271 0 307 64 q 156 108 236 61 q 6 165 83 151 q 85 285 85 201 l 85 463 q 0 618 85 571 q 201 657 108 618 q 361 782 304 700 q 422 685 394 718 q 515 618 457 644 q 463 517 481 588 q 418 411 443 439 q 244 324 369 356 l 243 300 q 339 178 238 207 q 515 165 390 164 m 365 474 q 324 572 365 514 q 244 629 282 629 l 244 356 q 328 396 292 365 q 365 474 365 426 z "},"ì":{"ha":324,"x_min":-165,"x_max":296,"o":"m 86 819 l 43 819 l -165 1110 l 15 1110 l 86 819 m 296 165 q 208 94 242 136 q 149 0 189 69 q 89 94 107 72 q 1 165 53 138 q 64 224 50 189 q 74 311 74 249 l 74 496 q 0 617 74 585 q 94 676 49 617 q 149 781 131 722 q 206 679 167 729 q 296 617 253 619 q 224 496 224 583 l 224 311 q 233 224 224 247 q 296 165 247 189 z "},"í":{"ha":324,"x_min":0,"x_max":475,"o":"m 475 1110 l 267 819 l 224 819 l 294 1110 l 475 1110 m 296 165 q 208 94 242 136 q 149 0 189 69 q 89 94 107 72 q 1 165 53 138 q 64 224 50 189 q 74 311 74 249 l 74 496 q 0 617 74 585 q 94 676 49 617 q 149 781 131 722 q 206 679 167 729 q 296 617 253 619 q 224 496 224 583 l 224 311 q 233 224 224 247 q 296 165 247 189 z "},"î":{"ha":324,"x_min":-87,"x_max":372,"o":"m 372 819 l 325 819 l 143 988 l -42 819 l -87 819 l 60 1111 l 228 1111 l 372 819 m 296 165 q 208 94 242 136 q 149 0 189 69 q 89 94 107 72 q 1 165 53 138 q 64 224 50 189 q 74 311 74 249 l 74 496 q 0 617 74 585 q 94 676 49 617 q 149 781 131 722 q 206 679 167 729 q 296 617 253 619 q 224 496 224 583 l 224 311 q 233 224 224 247 q 296 165 247 189 z "},"ï":{"ha":324,"x_min":-101,"x_max":383,"o":"m 383 997 l 271 885 l 157 997 l 271 1111 l 383 997 m 125 997 l 13 885 l -101 997 l 13 1111 l 125 997 m 296 165 q 208 94 242 136 q 149 0 189 69 q 89 94 107 72 q 1 165 53 138 q 64 224 50 189 q 74 311 74 249 l 74 496 q 0 617 74 585 q 94 676 49 617 q 149 781 131 722 q 206 679 167 729 q 296 617 253 619 q 224 496 224 583 l 224 311 q 233 224 224 247 q 296 165 247 189 z "},"ð":{"ha":633,"x_min":0,"x_max":611,"o":"m 611 171 l 603 171 q 417 126 506 171 q 274 0 322 79 q 0 171 150 163 q 71 322 71 204 l 71 514 q 0 639 71 606 q 151 808 110 690 q 233 688 193 721 q 372 650 282 650 q 306 764 332 707 l 229 744 l 207 826 l 274 844 q 240 1039 242 943 q 172 1064 211 1064 q 115 1047 142 1064 q 85 999 85 1028 q 104 957 85 976 q 136 925 133 928 q 125 924 133 924 q 71 946 93 924 q 49 1000 49 968 q 88 1078 49 1046 q 175 1111 128 1111 q 308 1052 211 1111 q 475 999 406 993 q 431 908 431 969 q 432 886 431 893 l 501 904 l 524 821 l 458 804 q 608 639 521 660 q 549 478 549 604 l 549 318 q 611 171 549 203 m 372 128 l 372 610 q 346 611 358 611 q 272 594 304 611 q 233 538 233 575 l 233 292 q 276 190 233 225 l 372 128 z "},"ñ":{"ha":632,"x_min":0,"x_max":599,"o":"m 550 1056 q 388 867 532 867 q 265 901 344 867 q 156 935 185 935 q 81 865 104 935 l 49 865 q 206 1056 76 1056 q 322 1020 244 1056 q 442 985 400 985 q 522 1056 497 985 l 550 1056 m 599 165 q 510 96 542 135 q 450 0 494 78 q 390 94 408 72 q 303 165 354 138 q 365 225 350 188 q 375 311 375 250 l 375 497 q 357 568 375 538 q 299 604 336 604 q 240 568 261 604 q 222 497 222 538 l 222 311 q 233 225 222 251 q 296 165 249 188 q 207 94 242 136 q 147 0 189 74 q 88 96 128 35 q 0 165 53 136 q 63 225 47 188 q 74 311 74 251 l 74 497 q 0 618 74 581 q 90 685 61 650 q 147 781 114 711 q 299 629 222 629 q 450 781 375 629 q 507 683 490 703 q 599 618 535 651 q 525 497 525 582 l 525 311 q 536 225 525 254 q 599 165 550 189 z "},"ò":{"ha":617,"x_min":0,"x_max":594,"o":"m 272 819 l 229 819 l 21 1110 l 201 1110 l 272 819 m 594 167 q 271 0 363 163 q 151 110 239 56 q 0 167 63 164 q 56 224 33 168 q 75 308 75 271 l 75 464 q 1 619 75 578 q 183 661 94 619 q 322 781 279 706 q 442 676 351 729 q 593 619 532 622 q 518 472 518 601 l 518 317 q 594 167 518 206 m 365 153 l 365 465 q 322 574 365 525 q 228 647 300 599 l 228 310 q 365 153 228 218 z "},"ó":{"ha":617,"x_min":0,"x_max":610,"o":"m 610 1110 l 401 819 l 358 819 l 429 1110 l 610 1110 m 594 167 q 271 0 363 163 q 151 110 239 56 q 0 167 63 164 q 56 224 33 168 q 75 308 75 271 l 75 464 q 1 619 75 578 q 183 661 94 619 q 322 781 279 706 q 442 676 351 729 q 593 619 532 622 q 518 472 518 601 l 518 317 q 594 167 518 206 m 365 153 l 365 465 q 322 574 365 525 q 228 647 300 599 l 228 310 q 365 153 228 218 z "},"ô":{"ha":617,"x_min":0,"x_max":594,"o":"m 533 819 l 486 819 l 304 988 l 119 819 l 74 819 l 221 1111 l 389 1111 l 533 819 m 594 167 q 271 0 363 163 q 151 110 239 56 q 0 167 63 164 q 56 224 33 168 q 75 308 75 271 l 75 464 q 1 619 75 578 q 183 661 94 619 q 322 781 279 706 q 442 676 351 729 q 593 619 532 622 q 518 472 518 601 l 518 317 q 594 167 518 206 m 365 153 l 365 465 q 322 574 365 525 q 228 647 300 599 l 228 310 q 365 153 228 218 z "},"õ":{"ha":617,"x_min":0,"x_max":594,"o":"m 550 1056 q 388 867 532 867 q 265 901 344 867 q 156 935 185 935 q 81 865 104 935 l 49 865 q 206 1056 76 1056 q 322 1020 244 1056 q 442 985 400 985 q 522 1056 497 985 l 550 1056 m 594 167 q 271 0 363 163 q 151 110 239 56 q 0 167 63 164 q 56 224 33 168 q 75 308 75 271 l 75 464 q 1 619 75 578 q 183 661 94 619 q 322 781 279 706 q 442 676 351 729 q 593 619 532 622 q 518 472 518 601 l 518 317 q 594 167 518 206 m 365 153 l 365 465 q 322 574 365 525 q 228 647 300 599 l 228 310 q 365 153 228 218 z "},"ö":{"ha":617,"x_min":0,"x_max":594,"o":"m 554 997 l 442 885 l 328 997 l 442 1111 l 554 997 m 296 997 l 183 885 l 69 997 l 183 1111 l 296 997 m 594 167 q 271 0 363 163 q 151 110 239 56 q 0 167 63 164 q 56 224 33 168 q 75 308 75 271 l 75 464 q 1 619 75 578 q 183 661 94 619 q 322 781 279 706 q 442 676 351 729 q 593 619 532 622 q 518 472 518 601 l 518 317 q 594 167 518 206 m 365 153 l 365 465 q 322 574 365 525 q 228 647 300 599 l 228 310 q 365 153 228 218 z "},"÷":{"ha":1065,"x_min":101,"x_max":963,"o":"m 617 850 q 591 788 617 814 q 529 763 565 763 q 467 788 493 763 q 442 850 442 814 q 467 913 442 888 q 529 938 493 938 q 592 913 567 938 q 617 850 617 888 m 963 454 l 101 454 l 101 592 l 963 592 l 963 454 m 619 203 q 594 140 619 165 q 531 115 568 115 q 468 141 494 115 q 442 203 442 167 q 467 265 442 240 q 531 290 493 290 q 594 265 568 290 q 619 203 619 240 z "},"ø":{"ha":617,"x_min":0,"x_max":594,"o":"m 228 332 l 347 540 q 228 647 326 581 l 228 332 m 360 510 l 231 285 q 365 153 244 210 l 365 465 q 360 510 365 492 m 486 782 l 515 782 l 451 669 q 593 619 538 622 q 518 472 518 601 l 518 317 q 594 167 518 206 q 271 0 363 163 q 135 119 238 61 l 67 0 l 38 1 l 113 132 q 0 167 47 164 q 56 224 33 168 q 75 308 75 271 l 75 464 q 1 619 75 578 q 183 661 94 619 q 322 781 279 706 q 429 683 350 735 l 486 782 z "},"ù":{"ha":633,"x_min":0,"x_max":599,"o":"m 301 819 l 258 819 l 50 1110 l 231 1110 l 301 819 m 599 157 q 508 97 535 126 q 450 0 482 67 q 299 153 375 153 q 147 0 222 153 q 92 96 111 75 q 0 157 64 126 q 53 210 32 174 q 74 285 74 247 l 74 471 q 63 554 74 531 q 0 608 49 585 q 149 781 100 664 q 296 608 196 663 q 233 554 247 585 q 222 471 222 531 l 222 285 q 243 221 222 249 q 299 193 264 193 q 354 219 333 193 q 375 285 375 246 l 375 471 q 365 554 375 533 q 303 608 351 585 q 450 781 403 664 q 599 608 497 663 q 536 554 550 585 q 525 471 525 531 l 525 285 q 546 210 525 247 q 599 157 567 174 z "},"ú":{"ha":633,"x_min":0,"x_max":599,"o":"m 526 1110 l 318 819 l 275 819 l 346 1110 l 526 1110 m 599 157 q 508 97 535 126 q 450 0 482 67 q 299 153 375 153 q 147 0 222 153 q 92 96 111 75 q 0 157 64 126 q 53 210 32 174 q 74 285 74 247 l 74 471 q 63 554 74 531 q 0 608 49 585 q 149 781 100 664 q 296 608 196 663 q 233 554 247 585 q 222 471 222 531 l 222 285 q 243 221 222 249 q 299 193 264 193 q 354 219 333 193 q 375 285 375 246 l 375 471 q 365 554 375 533 q 303 608 351 585 q 450 781 403 664 q 599 608 497 663 q 536 554 550 585 q 525 471 525 531 l 525 285 q 546 210 525 247 q 599 157 567 174 z "},"û":{"ha":633,"x_min":0,"x_max":599,"o":"m 528 819 l 481 819 l 299 988 l 114 819 l 68 819 l 215 1111 l 383 1111 l 528 819 m 599 157 q 508 97 535 126 q 450 0 482 67 q 299 153 375 153 q 147 0 222 153 q 92 96 111 75 q 0 157 64 126 q 53 210 32 174 q 74 285 74 247 l 74 471 q 63 554 74 531 q 0 608 49 585 q 149 781 100 664 q 296 608 196 663 q 233 554 247 585 q 222 471 222 531 l 222 285 q 243 221 222 249 q 299 193 264 193 q 354 219 333 193 q 375 285 375 246 l 375 471 q 365 554 375 533 q 303 608 351 585 q 450 781 403 664 q 599 608 497 663 q 536 554 550 585 q 525 471 525 531 l 525 285 q 546 210 525 247 q 599 157 567 174 z "},"ü":{"ha":633,"x_min":0,"x_max":599,"o":"m 546 997 l 433 885 l 319 997 l 433 1111 l 546 997 m 288 997 l 175 885 l 61 997 l 175 1111 l 288 997 m 599 157 q 508 97 535 126 q 450 0 482 67 q 299 153 375 153 q 147 0 222 153 q 92 96 111 75 q 0 157 64 126 q 53 210 32 174 q 74 285 74 247 l 74 471 q 63 554 74 531 q 0 608 49 585 q 149 781 100 664 q 296 608 196 663 q 233 554 247 585 q 222 471 222 531 l 222 285 q 243 221 222 249 q 299 193 264 193 q 354 219 333 193 q 375 285 375 246 l 375 471 q 365 554 375 533 q 303 608 351 585 q 450 781 403 664 q 599 608 497 663 q 536 554 550 585 q 525 471 525 531 l 525 285 q 546 210 525 247 q 599 157 567 174 z "},"ý":{"ha":639,"x_min":6,"x_max":607,"o":"m 526 1110 l 318 819 l 275 819 l 346 1110 l 526 1110 m 607 157 q 547 106 565 149 q 525 19 535 76 q 500 -61 515 -37 q 414 -133 475 -101 l 307 -190 q 224 -297 250 -231 q 82 -212 168 -212 q 31 -251 53 -212 q 13 -290 8 -290 q 6 -265 6 -290 q 35 -156 6 -194 q 99 -106 43 -144 q 163 -32 143 -75 q 294 -124 225 -124 q 365 10 365 -124 l 365 535 q 304 604 365 604 q 242 535 242 604 l 242 283 q 263 208 242 247 q 317 157 286 163 q 218 101 254 149 q 163 -1 197 75 q 105 97 132 65 q 11 157 78 129 q 64 209 43 172 q 85 283 85 246 l 85 471 q 69 556 85 517 q 11 608 50 608 q 103 681 68 638 q 160 782 122 704 q 308 640 239 640 q 456 782 376 640 q 603 608 506 658 q 546 557 565 608 q 531 474 531 518 l 531 319 q 607 157 531 199 z "},"þ":{"ha":632,"x_min":-22,"x_max":611,"o":"m 611 169 q 517 104 549 144 q 461 3 497 79 q 367 119 422 85 q 218 153 311 153 l 218 -15 q 293 -133 218 -100 q 201 -201 233 -164 q 140 -296 182 -224 l 131 -279 q 79 -200 93 -215 q -12 -133 47 -164 q 54 -68 36 -111 q 67 26 67 -36 q 53 110 67 86 q -10 167 40 135 q 65 319 65 208 l 65 449 q 53 636 65 556 q -22 782 31 779 q 60 847 18 785 q 114 946 67 858 q 153 885 126 919 q 193 825 185 844 q 207 728 197 817 q 222 650 215 656 q 301 644 228 644 q 456 785 393 644 q 611 621 497 642 q 539 474 539 600 l 539 288 q 611 169 539 203 m 389 290 l 389 506 q 362 576 389 543 q 299 608 335 608 q 217 442 215 608 l 218 192 q 324 215 271 192 q 389 290 389 244 z "},"ÿ":{"ha":639,"x_min":6,"x_max":607,"o":"m 560 997 l 447 885 l 333 997 l 447 1111 l 560 997 m 301 997 l 189 885 l 75 997 l 189 1111 l 301 997 m 607 157 q 547 106 565 149 q 525 19 535 76 q 500 -61 515 -37 q 414 -133 475 -101 l 307 -190 q 224 -297 250 -231 q 82 -212 168 -212 q 31 -251 53 -212 q 13 -290 8 -290 q 6 -265 6 -290 q 35 -156 6 -194 q 99 -106 43 -144 q 163 -32 143 -75 q 294 -124 225 -124 q 365 10 365 -124 l 365 535 q 304 604 365 604 q 242 535 242 604 l 242 283 q 263 208 242 247 q 317 157 286 163 q 218 101 254 149 q 163 -1 197 75 q 105 97 132 65 q 11 157 78 129 q 64 209 43 172 q 85 283 85 246 l 85 471 q 69 556 85 517 q 11 608 50 608 q 103 681 68 638 q 160 782 122 704 q 308 640 239 640 q 456 782 376 640 q 603 608 506 658 q 546 557 565 608 q 531 474 531 518 l 531 319 q 607 157 531 199 z "},"ı":{"ha":324,"x_min":0,"x_max":296,"o":"m 296 165 q 208 94 242 136 q 149 0 189 69 q 89 94 107 72 q 1 165 53 138 q 64 224 50 189 q 74 311 74 249 l 74 496 q 0 617 74 585 q 94 676 49 617 q 149 781 131 722 q 206 679 167 729 q 296 617 253 619 q 224 496 224 583 l 224 311 q 233 224 224 247 q 296 165 247 189 z "},"Ł":{"ha":767,"x_min":0,"x_max":775,"o":"m 749 943 q 703 921 729 942 q 607 689 603 844 q 578 842 597 790 q 472 943 544 931 l 472 971 q 568 1035 568 986 q 544 1077 568 1061 q 490 1093 521 1093 q 393 1059 432 1093 q 354 971 354 1025 l 354 551 l 418 575 l 418 1042 q 451 1061 431 1054 l 451 588 l 596 639 l 628 551 l 451 488 l 451 344 l 418 344 l 418 476 l 354 453 q 275 210 354 288 q 42 92 217 151 l 42 115 q 143 186 122 154 q 164 307 164 218 l 164 385 l 32 338 l 0 425 l 164 483 l 164 747 q 118 878 164 818 q 0 942 69 944 l 0 971 l 17 971 q 229 1011 153 971 l 336 1089 q 489 1131 394 1131 q 603 1094 556 1131 q 671 1024 619 1082 q 749 971 708 982 l 749 943 m 775 182 q 535 1 621 151 q 317 89 443 89 q 172 60 236 89 q 90 -47 90 24 q 107 -100 90 -72 q 124 -126 124 -128 q 113 -135 124 -135 q 65 -101 85 -135 q 47 -43 47 -75 q 211 156 47 81 q 336 215 322 207 q 435 322 403 257 q 590 226 490 251 q 775 210 656 210 l 775 182 z "},"ł":{"ha":381,"x_min":0,"x_max":396,"o":"m 396 1089 q 303 985 336 1072 q 276 840 276 917 l 276 511 l 353 539 l 385 451 l 276 411 l 276 318 q 289 229 276 257 q 354 171 306 194 q 261 99 299 140 q 196 0 236 71 q 131 99 161 64 q 36 171 94 140 q 106 246 92 196 q 111 351 111 267 l 32 322 l 0 410 l 111 450 l 111 475 q 35 636 111 593 q 101 706 86 667 q 113 801 113 735 q 32 956 113 929 q 58 954 42 954 q 229 1025 129 954 q 396 1111 335 1100 l 396 1089 z "},"Œ":{"ha":1192,"x_min":4,"x_max":1175,"o":"m 1175 153 q 1025 106 1072 131 q 914 -3 956 68 q 711 65 847 60 l 707 65 q 579 43 632 65 q 542 19 574 39 q 385 -35 454 -35 q 122 158 250 -35 q 4 481 4 336 q 133 831 4 633 q 401 1078 261 1029 l 411 1071 q 300 931 374 1024 q 253 753 253 868 l 253 231 q 400 8 253 8 q 499 214 499 8 l 499 775 q 432 899 499 899 q 294 817 381 899 l 279 838 q 597 1156 567 1068 q 772 1000 636 1024 l 772 994 l 797 989 q 949 1157 810 1157 q 1046 1117 1006 1157 q 1101 1043 1096 1049 q 1175 1000 1140 1000 l 1175 971 q 1069 900 1115 965 q 1019 779 1032 847 q 975 907 1004 865 q 858 971 938 958 l 858 1000 q 935 1017 899 997 q 978 1076 978 1039 q 935 1113 978 1113 q 829 969 829 1113 l 829 654 q 899 667 886 654 q 913 735 913 679 l 954 735 l 954 463 l 913 463 q 904 533 913 517 q 843 560 890 560 l 829 560 l 829 343 l 796 343 l 796 953 q 715 763 715 928 l 715 286 q 726 222 715 251 q 796 324 768 264 l 829 324 q 983 208 896 240 q 1175 182 1056 182 l 1175 153 m 397 33 q 361 38 381 33 l 361 840 q 397 864 378 853 l 397 33 z "},"œ":{"ha":806,"x_min":0,"x_max":790,"o":"m 790 165 q 651 111 719 158 q 546 0 582 64 q 403 124 503 75 q 271 0 315 79 q 151 110 239 56 q 0 167 63 164 q 56 224 33 168 q 75 308 75 271 l 75 464 q 1 619 75 578 q 183 661 94 619 q 322 781 279 706 q 476 657 357 718 q 636 782 579 700 q 697 685 669 718 q 790 618 732 644 q 738 517 756 588 q 693 411 718 439 q 519 324 644 356 l 518 299 q 615 178 513 207 q 790 165 667 164 m 640 474 q 567 607 640 539 q 519 501 519 574 l 519 356 q 603 396 567 365 q 640 474 640 426 m 365 181 l 365 465 q 322 574 365 528 q 228 647 297 600 l 228 310 q 349 161 228 222 l 365 181 m 238 261 q 228 310 228 282 q 238 261 228 286 z "},"Š":{"ha":839,"x_min":7,"x_max":814,"o":"m 656 1519 l 508 1228 l 340 1228 l 196 1519 l 243 1519 l 424 1351 l 608 1519 l 656 1519 m 443 624 q 413 631 435 625 l 413 936 q 443 921 428 926 l 443 624 m 814 161 q 560 126 629 146 q 340 -3 438 92 q 178 88 300 88 q 96 64 128 88 q 60 -10 60 38 q 101 -75 60 -54 q 142 -101 142 -96 q 129 -108 142 -108 q 40 -58 76 -108 q 7 42 7 -12 q 76 199 7 143 q 207 267 106 222 q 288 344 282 300 q 367 207 294 267 q 519 144 440 147 l 519 483 q 410 557 519 557 q 240 513 328 557 q 129 388 144 464 l 129 782 q 110 901 129 864 q 7 951 82 953 l 7 981 l 146 981 q 317 1004 260 981 q 408 1061 344 1015 q 521 1117 464 1101 q 557 1122 542 1122 q 607 1089 583 1122 q 667 1024 638 1044 q 814 981 718 986 l 814 951 q 657 890 722 946 q 574 743 592 833 q 342 976 532 972 l 342 681 q 436 599 342 599 q 596 642 506 599 q 722 743 693 688 l 722 372 q 735 258 722 299 q 814 190 754 196 l 814 161 m 443 194 q 417 211 428 201 l 413 213 l 413 528 l 429 528 q 436 526 431 528 l 443 526 l 443 194 z "},"š":{"ha":628,"x_min":0,"x_max":604,"o":"m 543 1111 l 396 819 l 228 819 l 83 1111 l 129 1111 l 311 943 l 496 1111 l 543 1111 m 604 149 q 249 0 374 149 q 108 82 179 82 q 8 0 40 82 l 0 0 q 46 143 7 100 q 128 194 67 165 q 214 257 189 224 q 278 183 233 224 q 360 139 326 139 q 382 165 382 139 l 382 290 q 263 383 382 383 q 86 300 143 383 l 86 457 q 10 607 86 564 q 218 651 114 607 q 383 781 331 700 q 581 607 450 654 l 571 607 q 468 569 511 607 q 414 469 425 531 q 356 571 394 522 q 263 632 307 632 q 240 607 240 632 q 256 472 240 510 q 364 407 282 407 q 538 493 463 407 l 538 289 q 604 149 538 189 z "},"Ÿ":{"ha":819,"x_min":-36,"x_max":817,"o":"m 682 1339 l 569 1226 l 456 1339 l 569 1453 l 682 1339 m 424 1339 l 311 1226 l 197 1339 l 311 1453 l 424 1339 m 817 965 q 658 775 718 938 q 628 701 647 750 q 610 621 610 651 q 658 561 610 581 q 579 501 600 547 q 563 400 563 467 q 578 251 563 281 q 708 197 603 203 l 708 168 q 561 119 628 161 q 461 3 486 74 q 315 88 407 88 q 201 -4 201 88 q 235 -60 201 -49 q 251 -72 251 -65 q 236 -81 251 -81 q 174 -40 197 -81 q 153 36 153 -6 q 215 165 153 111 q 350 226 271 214 l 350 407 q 271 550 350 550 q 210 521 222 550 q 203 450 203 504 l 168 450 l 168 718 l 203 718 l 203 690 q 253 640 203 640 l 286 640 l 172 933 q 71 1069 119 1069 q 24 1044 46 1069 q 1 993 1 1018 q 24 943 1 968 q 47 919 47 918 q 36 911 47 911 q -15 937 7 911 q -36 996 -36 963 q 28 1110 -36 1068 q 160 1146 85 1146 q 260 1106 221 1146 l 332 1031 q 494 994 386 992 l 494 965 q 415 872 415 964 q 428 789 415 819 l 526 550 l 611 772 q 624 833 624 806 q 594 916 624 879 q 518 965 564 953 l 518 994 q 667 1147 646 1011 q 714 1045 679 1081 q 817 994 749 1010 l 817 965 z "},"Ž":{"ha":813,"x_min":0,"x_max":793,"o":"m 624 1519 l 476 1228 l 308 1228 l 164 1519 l 211 1519 l 392 1351 l 576 1519 l 624 1519 m 793 979 q 650 846 726 981 q 558 649 631 811 l 568 649 q 635 661 618 649 q 656 728 657 678 l 693 728 l 693 456 l 656 456 q 636 537 656 518 q 556 556 617 556 l 517 556 l 475 468 q 449 378 449 413 q 474 325 449 346 l 465 304 q 425 310 447 310 q 308 268 378 310 l 181 192 q 13 149 99 151 q 181 328 108 201 q 286 556 201 365 l 186 556 l 185 456 l 153 456 l 143 701 q 101 851 140 771 q 0 954 54 949 l 0 979 q 100 1028 53 979 q 183 1117 128 1058 q 307 1164 239 1164 q 481 1124 415 1164 q 589 1050 500 1111 q 793 1010 665 1010 l 793 979 m 793 168 q 646 117 708 163 q 542 0 593 79 q 419 75 496 57 q 274 88 368 88 q 129 60 189 88 q 50 -53 50 22 q 62 -98 50 -69 q 74 -126 74 -126 q 64 -136 74 -136 q 19 -103 38 -136 q 4 -46 4 -74 q 75 94 4 32 q 290 185 118 132 q 479 296 442 231 q 626 214 556 232 q 793 199 669 203 l 793 168 m 460 992 q 329 1122 460 1122 q 249 1061 249 1122 q 326 979 249 1008 l 326 954 q 229 849 272 943 q 189 701 190 767 l 188 649 l 328 649 l 438 892 q 460 992 460 940 z "},"ž":{"ha":679,"x_min":0,"x_max":651,"o":"m 543 1111 l 396 819 l 228 819 l 83 1111 l 129 1111 l 311 943 l 496 1111 l 543 1111 m 651 149 q 558 93 589 129 q 503 0 544 76 q 349 140 450 140 q 235 98 290 140 q 153 0 179 56 q 3 149 76 146 q 143 258 81 164 q 240 456 185 321 q 318 632 300 600 q 290 636 304 636 q 172 550 224 636 q 122 404 131 481 l 121 404 q 0 607 100 558 q 142 781 93 650 q 209 700 163 731 q 310 669 256 669 q 344 674 328 669 q 478 781 406 758 q 611 607 504 681 q 572 614 590 614 q 456 519 513 614 q 360 325 453 514 q 247 165 300 204 q 321 185 289 185 q 344 183 326 185 q 368 181 363 181 q 467 258 410 181 q 526 376 519 329 q 651 149 554 192 z "},"ſ":{"ha":522,"x_min":0,"x_max":507,"o":"m 507 950 q 390 749 390 899 q 381 747 389 747 l 344 747 q 281 889 342 822 q 142 956 215 958 q 254 811 235 896 q 263 622 263 775 l 263 315 q 433 174 263 174 q 476 176 451 174 l 476 165 q 325 119 396 165 q 219 0 254 74 q 135 106 192 58 q 14 169 78 153 q 79 224 56 178 q 99 310 99 261 l 99 622 l 3 622 l 3 672 l 99 672 l 99 708 q 100 744 100 724 q 0 939 100 894 q 164 982 90 939 q 268 1111 247 1029 q 507 950 333 990 z "},"ƒ":{"ha":779,"x_min":11,"x_max":771,"o":"m 771 1081 l 715 950 l 581 985 l 538 796 l 658 796 l 639 708 l 518 708 l 361 31 q 356 -8 356 7 q 392 -83 356 -58 l 383 -103 q 158 -221 274 -135 l 11 -75 l 33 -54 l 83 -103 l 188 -36 l 360 708 l 286 708 l 307 796 l 379 796 l 422 985 q 631 1118 556 1063 l 771 1081 z "},"ˆ":{"ha":624,"x_min":53,"x_max":513,"o":"m 513 819 l 465 819 l 283 988 l 99 819 l 53 819 l 200 1111 l 368 1111 l 513 819 z "},"ˇ":{"ha":532,"x_min":36,"x_max":496,"o":"m 496 1183 l 349 892 l 181 892 l 36 1183 l 82 1183 l 264 1017 l 449 1183 l 496 1183 z "},"¯":{"ha":632,"x_min":264,"x_max":535,"o":"m 535 361 l 264 361 l 264 461 l 535 461 l 535 361 z "},"ˉ":{"ha":632,"x_min":264,"x_max":535,"o":"m 535 361 l 264 361 l 264 461 l 535 461 l 535 361 z "},"˘":{"ha":532,"x_min":36,"x_max":496,"o":"m 496 1179 q 435 985 486 1061 q 265 889 374 889 q 97 985 158 889 q 36 1179 46 1063 l 67 1179 q 264 1024 114 1024 q 391 1065 338 1024 q 464 1179 444 1107 l 496 1179 z "},"˙":{"ha":532,"x_min":181,"x_max":351,"o":"m 351 1064 l 267 979 l 181 1064 l 267 1150 l 351 1064 z "},"˚":{"ha":532,"x_min":136,"x_max":396,"o":"m 396 1029 q 358 937 396 975 q 265 899 319 899 q 174 937 211 899 q 136 1029 136 975 q 174 1122 136 1085 q 265 1160 211 1160 q 358 1122 321 1160 q 396 1029 396 1085 m 351 1029 q 326 1090 351 1065 q 265 1114 301 1114 q 206 1090 231 1114 q 181 1029 181 1065 q 206 969 181 994 q 265 943 231 943 q 326 969 301 943 q 351 1029 351 994 z "},"˛":{"ha":611,"x_min":104,"x_max":510,"o":"m 510 -236 q 283 -333 394 -333 q 158 -293 208 -333 q 104 -176 104 -250 q 214 15 104 -89 l 253 15 q 200 -87 200 -44 q 259 -201 200 -151 q 381 -250 318 -250 q 494 -212 439 -250 l 510 -236 z "},"˜":{"ha":624,"x_min":49,"x_max":550,"o":"m 550 1056 q 388 867 532 867 q 265 901 344 867 q 156 935 185 935 q 81 865 104 935 l 49 865 q 206 1056 76 1056 q 322 1020 244 1056 q 442 985 400 985 q 522 1056 497 985 l 550 1056 z "},"˝":{"ha":532,"x_min":106,"x_max":590,"o":"m 590 1179 l 382 890 l 338 890 l 408 1179 l 590 1179 m 358 1179 l 150 890 l 106 890 l 176 1179 l 358 1179 z "},"µ":{"ha":694,"x_min":7,"x_max":713,"o":"m 713 139 q 569 -19 704 -19 q 444 110 460 -19 q 353 25 367 36 q 240 -19 296 -19 q 121 39 167 -19 q 119 7 119 25 q 139 -109 119 -32 q 158 -225 158 -186 q 136 -278 158 -257 q 82 -300 114 -300 q 7 -226 7 -300 q 25 -133 7 -190 q 50 -42 46 -67 q 58 129 58 17 l 58 642 l 196 642 l 196 260 q 208 133 196 174 q 297 61 231 61 q 376 97 328 61 q 444 156 382 103 l 444 642 l 582 642 l 582 178 q 583 106 582 115 q 618 56 590 56 q 679 139 669 56 l 713 139 z "},"μ":{"ha":694,"x_min":7,"x_max":713,"o":"m 713 139 q 569 -19 704 -19 q 444 110 460 -19 q 353 25 367 36 q 240 -19 296 -19 q 121 39 167 -19 q 119 7 119 25 q 139 -109 119 -32 q 158 -225 158 -186 q 136 -278 158 -257 q 82 -300 114 -300 q 7 -226 7 -300 q 25 -133 7 -190 q 50 -42 46 -67 q 58 129 58 17 l 58 642 l 196 642 l 196 260 q 208 133 196 174 q 297 61 231 61 q 376 97 328 61 q 444 156 382 103 l 444 642 l 582 642 l 582 178 q 583 106 582 115 q 618 56 590 56 q 679 139 669 56 l 713 139 z "},"π":{"ha":738,"x_min":29,"x_max":682,"o":"m 682 169 q 543 -19 660 -19 q 424 215 424 -19 q 450 522 424 358 l 290 522 q 282 367 288 469 q 158 -19 254 -19 q 115 -3 133 -19 q 97 38 97 13 q 131 117 97 68 q 176 194 169 172 q 204 357 194 247 q 215 522 208 413 l 196 522 q 110 497 143 522 q 54 426 86 479 l 29 426 q 149 608 69 576 q 250 621 181 621 l 682 621 l 682 522 l 525 522 q 499 211 499 364 q 583 94 499 94 q 658 169 650 94 l 682 169 z "},"–":{"ha":799,"x_min":-10,"x_max":808,"o":"m 808 364 l -10 364 l -10 435 l 808 435 l 808 364 z "},"—":{"ha":1597,"x_min":-10,"x_max":1607,"o":"m 1607 364 l -10 364 l -10 435 l 1607 435 l 1607 364 z "},"‘":{"ha":282,"x_min":-10,"x_max":249,"o":"m 249 857 l 117 726 l -10 844 q 218 1133 36 1046 l 247 1090 q 192 1040 208 1060 q 163 974 163 1008 q 249 857 163 926 z "},"’":{"ha":282,"x_min":-14,"x_max":244,"o":"m 244 1015 q 17 726 199 817 l -12 771 q 43 819 33 808 q 71 888 71 853 q -14 1004 71 936 l 118 1135 l 244 1015 z "},"‚":{"ha":282,"x_min":-14,"x_max":244,"o":"m 244 113 q 17 -176 199 -86 l -12 -132 q 43 -83 33 -94 q 71 -15 71 -50 q -14 101 71 33 l 118 232 l 244 113 z "},"“":{"ha":576,"x_min":-10,"x_max":543,"o":"m 543 857 l 413 726 l 285 844 q 513 1133 331 1046 l 542 1090 q 486 1040 500 1057 q 458 974 458 1008 q 543 857 458 925 m 249 857 l 117 726 l -10 844 q 218 1133 36 1046 l 247 1090 q 192 1040 208 1060 q 163 974 163 1008 q 249 857 163 926 z "},"”":{"ha":576,"x_min":-14,"x_max":539,"o":"m 539 1015 q 313 726 496 817 l 282 771 q 339 819 326 807 q 367 888 367 854 q 281 1004 367 935 l 413 1135 l 539 1015 m 244 1015 q 17 726 199 817 l -12 771 q 43 819 33 808 q 71 888 71 853 q -14 1004 71 936 l 118 1135 l 244 1015 z "},"„":{"ha":576,"x_min":-14,"x_max":539,"o":"m 539 113 q 313 -176 496 -86 l 282 -132 q 339 -83 326 -97 q 367 -15 367 -49 q 281 101 367 32 l 413 232 l 539 113 m 244 113 q 17 -176 199 -86 l -12 -132 q 43 -83 33 -94 q 71 -15 71 -50 q -14 101 71 33 l 118 232 l 244 113 z "},"†":{"ha":814,"x_min":42,"x_max":775,"o":"m 775 685 l 661 567 q 431 665 560 660 q 535 440 433 532 q 447 75 474 300 q 431 -304 425 -115 l 389 -304 q 372 74 388 -178 q 285 440 350 279 q 390 665 382 529 q 156 565 275 664 l 42 686 l 157 803 q 389 704 268 714 q 286 994 378 854 l 410 1111 l 535 992 q 431 704 438 878 q 661 803 560 714 l 775 685 z "},"‡":{"ha":814,"x_min":40,"x_max":775,"o":"m 775 124 l 660 6 q 428 103 550 89 q 535 -185 439 -72 l 407 -304 l 282 -185 q 385 103 372 -74 q 156 6 265 94 l 40 124 l 156 242 q 385 143 263 150 q 282 408 372 301 q 385 665 372 507 q 156 565 263 660 l 40 685 l 156 804 q 385 704 258 711 q 282 994 375 872 l 407 1111 l 531 994 q 428 704 436 892 q 660 804 554 715 l 772 685 l 660 565 q 428 665 556 658 q 531 408 436 524 q 428 143 442 310 q 660 242 543 150 l 775 124 z "},"•":{"ha":560,"x_min":60,"x_max":506,"o":"m 506 528 q 441 369 506 435 q 283 304 376 304 q 125 369 190 304 q 60 528 60 435 q 125 685 60 621 q 283 750 190 750 q 440 685 375 750 q 506 528 506 619 z "},"…":{"ha":988,"x_min":0,"x_max":963,"o":"m 963 153 q 874 90 901 117 q 811 1 847 63 q 748 90 776 61 q 658 153 719 118 q 748 216 719 188 q 811 304 776 244 q 874 215 850 239 q 963 153 897 192 m 633 153 q 545 90 572 117 q 482 1 518 63 q 419 90 447 61 q 329 153 390 118 q 419 216 390 188 q 482 304 447 244 q 544 215 521 239 q 633 153 568 192 m 304 153 q 216 90 243 117 q 153 1 189 63 q 90 90 118 61 q 0 153 61 118 q 90 216 61 188 q 153 304 118 244 q 215 215 192 239 q 304 153 239 192 z "},"‰":{"ha":1607,"x_min":0,"x_max":1607,"o":"m 1607 126 q 1358 -1 1431 126 q 1266 83 1336 40 q 1149 126 1196 125 q 1193 169 1176 126 q 1207 236 1207 203 l 1207 357 q 1150 476 1207 443 q 1290 508 1222 476 q 1397 601 1367 543 q 1490 519 1421 560 q 1607 476 1558 479 q 1549 363 1549 463 l 1549 243 q 1607 126 1549 160 m 1107 126 q 858 -1 931 126 q 766 83 836 40 q 649 126 696 125 q 693 169 676 126 q 707 236 707 203 l 707 357 q 650 476 707 443 q 790 508 722 476 q 897 601 867 543 q 990 519 921 560 q 1107 476 1058 479 q 1049 363 1049 463 l 1049 243 q 1107 126 1049 160 m 933 899 q 821 858 861 893 l 663 551 q 689 518 663 528 q 628 483 639 508 l 472 161 q 465 131 465 147 q 538 57 465 75 q 317 -42 415 43 q 213 92 307 57 q 343 161 318 108 l 501 496 q 472 524 501 518 q 535 561 526 542 l 676 878 q 679 921 679 886 q 610 1063 679 1011 q 454 1108 549 1108 q 340 1086 392 1108 q 256 1010 279 1060 q 347 936 288 971 q 457 897 414 897 q 399 783 399 883 l 399 664 q 458 547 399 582 q 315 517 381 547 q 210 419 243 483 q 117 502 188 460 q 0 547 46 544 q 44 590 28 547 q 58 657 58 624 l 58 776 q 1 897 58 864 q 214 978 129 897 q 321 1108 225 1068 q 499 1139 393 1139 q 717 1094 646 1139 q 801 997 742 1079 q 933 899 850 931 m 1431 117 l 1431 357 q 1399 440 1431 404 q 1325 497 1381 461 l 1325 238 q 1431 117 1325 164 m 931 117 l 931 357 q 899 440 931 404 q 825 497 881 461 l 825 238 q 931 117 825 164 m 282 536 l 282 778 q 249 861 282 825 q 175 918 228 883 l 175 658 q 282 536 175 586 z "},"‹":{"ha":365,"x_min":60,"x_max":306,"o":"m 306 71 l 283 47 q 60 444 60 208 q 283 842 60 679 l 306 819 q 171 446 171 681 q 306 71 171 211 z "},"›":{"ha":365,"x_min":61,"x_max":307,"o":"m 307 444 q 83 47 307 208 l 61 71 q 194 446 194 215 q 61 819 194 681 l 83 842 q 307 444 307 679 z "},"⁄":{"ha":807,"x_min":17,"x_max":838,"o":"m 838 1036 q 658 918 703 1010 q 519 613 519 636 q 551 575 519 590 q 481 531 503 571 q 383 326 465 503 q 304 135 304 156 q 375 61 304 90 q 251 24 317 61 q 153 -60 192 -11 q 104 33 138 -7 q 17 88 64 82 q 167 168 143 117 l 336 536 q 339 553 339 544 q 310 592 339 586 q 381 631 368 601 l 510 915 q 521 974 521 940 q 444 1056 521 1047 q 575 1093 513 1064 q 678 1178 651 1129 q 735 1083 685 1124 q 838 1036 778 1049 z "},"№":{"ha":1563,"x_min":-8,"x_max":1343,"o":"m 1343 354 q 1021 188 1108 350 q 901 294 990 242 q 749 350 811 347 q 806 407 783 353 q 825 492 825 454 l 825 647 q 750 804 825 761 q 932 846 842 804 q 1071 965 1032 892 q 1190 860 1100 914 q 1342 804 1281 807 q 1267 656 1267 783 l 1267 501 q 1343 354 1267 397 m 1150 36 q 1019 -253 1072 -12 q 978 -93 1004 -167 q 889 36 939 13 q 965 89 944 68 q 1019 165 986 110 q 1073 89 1056 107 q 1150 36 1090 71 m 836 135 q 710 90 764 132 q 639 -22 656 47 q 629 -24 632 -24 q 565 14 601 -24 q 489 89 528 51 q 383 135 439 131 l 383 163 q 446 225 446 163 q 426 317 446 258 l 247 853 l 247 315 q 276 215 247 261 q 360 163 310 163 l 360 135 q 213 -1 242 110 q 108 64 179 64 q 58 50 81 64 q 35 13 35 36 q 50 -24 35 -1 q 65 -46 65 -46 q 54 -57 65 -57 q 11 -19 31 -57 q -7 40 -7 14 q 60 165 -7 119 q 201 207 117 203 l 201 507 q 186 508 196 508 q 128 482 142 508 q 119 417 119 465 l 88 417 l 88 672 l 119 672 q 133 608 119 622 q 201 594 147 594 l 201 861 q 121 993 201 993 q 55 969 85 993 q 25 914 25 946 q 47 869 25 892 q 68 844 68 846 q 57 836 68 836 q 10 860 29 836 q -8 917 -8 885 q 54 1024 -8 986 q 179 1057 106 1057 q 278 1022 233 1057 q 358 960 353 963 q 518 928 421 926 l 518 899 q 472 847 472 901 q 496 719 472 782 l 674 247 l 674 707 q 644 825 674 774 q 551 899 611 885 l 551 928 q 693 1058 671 943 q 836 928 711 947 l 836 900 q 742 829 774 889 q 715 710 715 779 l 715 326 q 836 163 715 194 l 836 135 m 1115 340 l 1115 653 q 1072 761 1115 714 q 976 835 1046 790 l 976 497 q 1115 340 976 404 z "},"™":{"ha":944,"x_min":-1,"x_max":917,"o":"m 917 657 q 829 588 872 650 q 778 628 807 594 q 735 657 751 657 l 735 669 q 765 743 765 683 l 765 1003 l 708 754 q 703 713 703 731 q 726 669 703 674 l 726 657 q 654 593 676 653 q 628 635 650 614 q 585 657 606 656 l 585 669 q 603 710 603 682 q 596 751 603 726 l 525 1003 l 525 743 q 538 696 525 718 q 575 669 551 669 l 575 657 q 510 592 525 646 q 460 622 496 622 q 425 599 425 622 q 440 571 425 593 l 432 585 q 406 611 406 585 q 506 690 406 685 l 506 835 l 499 835 q 467 792 465 835 l 451 792 l 451 913 l 467 913 q 475 882 465 888 q 506 876 481 876 l 506 1010 q 467 1076 506 1076 q 435 1065 450 1076 q 421 1039 421 1054 q 442 1006 421 1028 l 436 1000 q 404 1039 404 1000 q 436 1092 404 1074 q 499 1107 463 1107 q 576 1070 526 1107 q 679 1035 625 1033 l 679 1022 q 638 979 638 1025 q 658 871 638 949 l 688 761 q 715 869 697 797 q 736 974 736 949 q 692 1022 736 1015 l 692 1035 q 758 1056 726 1035 q 801 1108 790 1076 q 917 1035 826 1042 l 917 1022 q 864 958 864 1019 l 864 743 q 917 669 864 681 l 917 657 m 390 1036 q 326 854 346 1036 q 307 958 324 899 q 258 1036 285 1036 l 258 1050 q 294 1079 294 1065 q 271 1092 294 1092 q 244 1050 244 1092 l 244 763 q 272 701 244 711 q 308 696 285 696 l 308 682 q 242 658 276 681 q 196 608 207 636 q 133 647 169 647 q 85 607 85 647 q 106 576 85 594 l 99 572 q 63 624 63 572 q 147 708 63 693 l 147 1036 q 86 963 106 1036 q 69 854 83 946 q 50 958 69 893 q -1 1036 26 1036 l -1 1050 q 65 1107 51 1061 q 131 1050 85 1050 q 203 1079 158 1050 q 271 1108 247 1108 q 343 1083 317 1108 q 390 1050 374 1054 l 390 1036 z "},"Ω":{"ha":1028,"x_min":39,"x_max":988,"o":"m 988 0 l 608 0 l 624 204 q 799 528 799 261 q 731 775 799 675 q 513 890 653 890 q 299 778 376 890 q 229 538 229 678 q 403 204 229 271 l 418 0 l 39 0 l 39 213 l 63 213 q 174 126 69 126 l 357 126 l 357 172 q 144 301 225 197 q 63 540 63 406 q 201 836 63 724 q 517 940 329 940 q 829 836 703 940 q 965 543 965 725 q 887 307 965 404 q 669 172 808 210 l 669 126 l 857 126 q 964 213 957 126 l 988 213 l 988 0 z "},"Ω":{"ha":1028,"x_min":39,"x_max":988,"o":"m 988 0 l 608 0 l 624 204 q 799 528 799 261 q 731 775 799 675 q 513 890 653 890 q 299 778 376 890 q 229 538 229 678 q 403 204 229 271 l 418 0 l 39 0 l 39 213 l 63 213 q 174 126 69 126 l 357 126 l 357 172 q 144 301 225 197 q 63 540 63 406 q 201 836 63 724 q 517 940 329 940 q 829 836 703 940 q 965 543 965 725 q 887 307 965 404 q 669 172 808 210 l 669 126 l 857 126 q 964 213 957 126 l 988 213 l 988 0 z "},"∂":{"ha":681,"x_min":40,"x_max":672,"o":"m 672 624 q 581 215 672 404 q 271 -21 467 -21 q 103 40 165 -21 q 40 206 40 101 q 147 486 40 363 q 415 615 260 615 q 628 486 561 615 q 636 613 636 564 q 574 799 636 729 q 401 868 513 868 q 197 760 272 868 l 165 760 q 264 904 214 858 q 424 964 329 964 q 619 853 554 964 q 672 624 672 764 m 615 426 q 421 579 563 579 q 219 435 297 579 q 156 178 156 317 q 186 67 156 108 q 288 18 221 18 q 507 167 408 18 q 615 426 583 282 z "},"Δ":{"ha":850,"x_min":18,"x_max":832,"o":"m 832 0 l 18 0 l 443 940 l 832 0 m 671 56 l 401 711 l 103 56 l 671 56 z "},"∆":{"ha":850,"x_min":18,"x_max":832,"o":"m 832 0 l 18 0 l 443 940 l 832 0 m 671 56 l 401 711 l 103 56 l 671 56 z "},"∏":{"ha":1143,"x_min":31,"x_max":1113,"o":"m 1113 -139 l 707 -139 l 707 -112 q 806 -96 778 -112 q 840 -7 840 -75 l 840 975 l 301 975 l 301 -7 q 338 -96 301 -74 q 436 -112 365 -112 l 436 -139 l 31 -139 l 31 -112 q 129 -96 101 -112 q 165 -7 165 -74 l 165 897 q 129 986 165 964 q 31 1003 103 1003 l 31 1028 l 1113 1028 l 1113 1003 q 1014 986 1040 1003 q 979 897 979 964 l 979 -7 q 1015 -96 979 -74 q 1113 -112 1042 -112 l 1113 -139 z "},"∑":{"ha":983,"x_min":26,"x_max":960,"o":"m 960 143 l 917 -139 l 26 -139 l 26 -114 l 479 450 l 26 1004 l 26 1029 l 893 1029 l 911 800 l 883 800 q 715 974 864 974 l 213 974 l 594 508 l 168 -19 l 722 -19 q 863 19 814 -19 q 932 147 911 58 l 960 143 z "},"·":{"ha":449,"x_min":106,"x_max":343,"o":"m 343 540 l 224 422 l 106 540 l 224 660 l 343 540 z "},"∙":{"ha":449,"x_min":106,"x_max":343,"o":"m 343 540 l 224 422 l 106 540 l 224 660 l 343 540 z "},"√":{"ha":767,"x_min":58,"x_max":764,"o":"m 764 1268 l 553 -53 l 217 639 l 82 578 l 58 621 l 263 724 l 538 165 l 714 1268 l 764 1268 z "},"∞":{"ha":983,"x_min":33,"x_max":951,"o":"m 951 357 q 888 165 951 251 q 714 72 818 72 q 576 136 636 72 q 486 267 538 178 q 265 108 406 108 q 97 181 161 108 q 33 358 33 253 q 86 529 33 458 q 242 608 144 608 q 364 561 311 608 q 440 453 399 529 q 533 592 483 550 q 692 640 593 640 q 879 558 807 640 q 951 357 951 475 m 913 357 q 861 513 913 444 q 721 588 806 588 q 576 489 633 588 q 506 315 563 464 q 585 192 544 232 q 717 136 640 136 q 863 201 808 136 q 913 357 913 264 m 421 400 q 239 546 357 546 q 117 493 163 546 q 71 360 71 440 q 110 226 71 283 q 226 161 154 161 q 358 246 307 161 q 421 400 381 282 z "},"∫":{"ha":376,"x_min":-1,"x_max":378,"o":"m 378 1190 q 315 1121 378 1121 q 269 1140 296 1121 q 236 1158 243 1158 q 210 1115 210 1158 q 215 1017 210 1079 q 240 567 240 733 q 232 211 240 474 q 210 -8 228 61 q 78 -149 175 -149 q 21 -126 43 -149 q -1 -67 -1 -103 q 58 0 -1 0 q 106 -22 82 0 q 139 -43 131 -43 q 165 -1 165 -43 q 160 79 165 33 q 133 558 133 296 l 133 607 l 146 1001 q 176 1165 149 1097 q 293 1264 215 1264 q 351 1242 325 1264 q 378 1190 378 1219 z "},"≈":{"ha":926,"x_min":90,"x_max":836,"o":"m 836 743 q 789 583 833 646 q 646 511 738 511 q 439 572 578 511 q 250 632 300 632 q 133 511 157 632 l 90 511 q 275 744 106 744 q 485 683 343 744 q 676 622 626 622 q 793 743 779 622 l 836 743 m 836 399 q 789 239 833 303 q 646 165 738 165 q 438 226 579 165 q 250 286 297 286 q 133 167 154 286 l 90 167 q 274 399 106 399 q 485 338 342 399 q 676 276 628 276 q 793 399 779 276 l 836 399 z "},"⋲":{"ha":926,"x_min":90,"x_max":836,"o":"m 836 743 q 789 583 833 646 q 646 511 738 511 q 439 572 578 511 q 250 632 300 632 q 133 511 157 632 l 90 511 q 275 744 106 744 q 485 683 343 744 q 676 622 626 622 q 793 743 779 622 l 836 743 m 836 399 q 789 239 833 303 q 646 165 738 165 q 438 226 579 165 q 250 286 297 286 q 133 167 154 286 l 90 167 q 274 399 106 399 q 485 338 342 399 q 676 276 628 276 q 793 399 779 276 l 836 399 z "},"≠":{"ha":926,"x_min":88,"x_max":836,"o":"m 836 233 l 429 233 l 288 -124 l 181 -124 l 321 233 l 88 233 l 88 358 l 369 358 l 446 554 l 88 554 l 88 681 l 494 681 l 635 1038 l 742 1038 l 604 681 l 836 681 l 836 554 l 554 554 l 478 358 l 836 358 l 836 233 z "},"≤":{"ha":926,"x_min":88,"x_max":838,"o":"m 838 224 l 89 536 l 89 650 l 838 963 l 838 828 l 260 593 l 838 360 l 838 224 m 838 -51 l 88 -51 l 88 75 l 838 75 l 838 -51 z "},"≥":{"ha":926,"x_min":88,"x_max":838,"o":"m 838 536 l 89 224 l 89 358 l 665 593 l 89 826 l 89 963 l 838 650 l 838 536 m 838 -51 l 88 -51 l 88 75 l 838 75 l 838 -51 z "},"◊":{"ha":686,"x_min":40,"x_max":643,"o":"m 643 504 l 342 -29 l 40 504 l 342 1024 l 643 504 m 539 504 l 342 843 l 144 504 l 342 150 l 539 504 z "},"":{"ha":803,"x_min":0,"x_max":772,"o":"m 772 165 q 685 94 718 136 q 625 0 665 69 q 565 94 583 72 q 478 165 529 138 q 540 224 526 189 q 550 311 550 249 l 550 496 q 476 617 550 585 q 571 676 525 617 q 625 781 607 722 q 682 679 643 729 q 772 617 729 619 q 700 496 700 583 l 700 311 q 710 224 700 247 q 772 165 724 189 m 772 946 q 625 790 674 901 q 489 942 581 901 q 390 753 396 890 l 381 514 l 356 514 l 351 622 l 263 622 l 263 315 q 433 174 263 174 q 476 176 451 174 l 476 165 q 325 119 396 165 q 219 0 254 74 q 135 106 192 58 q 14 169 78 153 q 79 224 56 178 q 99 310 99 261 l 99 622 l 3 622 l 3 672 l 99 672 l 99 708 q 100 744 100 724 q 0 939 100 894 q 164 982 90 939 q 268 1111 247 1029 q 493 953 333 993 q 625 1111 590 1006 q 772 946 674 988 m 349 672 q 346 753 349 708 q 279 894 340 831 q 142 956 218 957 q 247 835 225 900 q 263 672 263 790 l 349 672 z "},"":{"ha":808,"x_min":0,"x_max":825,"o":"m 825 1089 q 732 985 765 1072 q 706 840 706 917 l 706 318 q 718 229 706 257 q 783 171 733 194 q 690 99 728 140 q 625 0 665 71 q 475 165 560 117 q 325 119 396 165 q 219 0 254 72 q 135 106 192 58 q 14 169 78 153 q 79 224 56 178 q 99 310 99 261 l 99 622 l 3 622 l 3 672 l 99 672 l 99 708 q 100 744 100 724 q 0 939 100 894 q 164 982 90 939 q 268 1111 247 1029 q 446 968 321 1013 q 492 954 485 954 q 658 1025 558 954 q 825 1111 764 1100 l 825 1089 m 349 672 q 346 753 349 708 q 279 894 340 831 q 142 956 218 957 q 247 835 225 900 q 263 672 263 790 l 349 672 m 540 318 l 540 475 q 464 636 540 593 q 531 706 517 669 q 542 801 542 733 q 489 942 542 906 q 390 753 396 890 l 381 514 l 356 514 l 351 622 l 263 622 l 263 315 q 433 174 263 174 q 476 176 451 174 q 532 235 519 199 q 540 318 540 258 z "}}}
